<?xml version="1.0" encoding="utf-8" standalone="no"?>
<!DOCTYPE svg PUBLIC "-//W3C//DTD SVG 1.1//EN"
  "http://www.w3.org/Graphics/SVG/1.1/DTD/svg11.dtd">
<svg xmlns:xlink="http://www.w3.org/1999/xlink" width="460.8pt" height="345.6pt" viewBox="0 0 460.8 345.6" xmlns="http://www.w3.org/2000/svg" version="1.1">
 <metadata>
  <rdf:RDF xmlns:dc="http://purl.org/dc/elements/1.1/" xmlns:cc="http://creativecommons.org/ns#" xmlns:rdf="http://www.w3.org/1999/02/22-rdf-syntax-ns#">
   <cc:Work>
    <dc:type rdf:resource="http://purl.org/dc/dcmitype/StillImage"/>
    <dc:date>2024-06-08T16:45:06.269209</dc:date>
    <dc:format>image/svg+xml</dc:format>
    <dc:creator>
     <cc:Agent>
      <dc:title>Matplotlib v3.5.3, https://matplotlib.org/</dc:title>
     </cc:Agent>
    </dc:creator>
   </cc:Work>
  </rdf:RDF>
 </metadata>
 <defs>
  <style type="text/css">*{stroke-linejoin: round; stroke-linecap: butt}</style>
 </defs>
 <g id="figure_1">
  <g id="patch_1">
   <path d="M 0 345.6 
L 460.8 345.6 
L 460.8 0 
L 0 0 
z
" style="fill: #ffffff"/>
  </g>
  <g id="axes_1">
   <g id="patch_2">
    <path d="M 65.99 300.04 
L 450 300.04 
L 450 28.32 
L 65.99 28.32 
z
" style="fill: #ffffff"/>
   </g>
   <g id="matplotlib.axis_1">
    <g id="xtick_1">
     <g id="line2d_1">
      <path d="M 83.445 300.04 
L 83.445 28.32 
" clip-path="url(#p8653ba33ab)" style="fill: none; stroke: #b0b0b0; stroke-width: 0.8; stroke-linecap: square"/>
     </g>
     <g id="line2d_2">
      <defs>
       <path id="m132a44241f" d="M 0 0 
L 0 3.5 
" style="stroke: #000000; stroke-width: 0.8"/>
      </defs>
      <g>
       <use xlink:href="#m132a44241f" x="83.445" y="300.04" style="stroke: #000000; stroke-width: 0.8"/>
      </g>
     </g>
     <g id="text_1">
      <!-- 0.0 -->
      <g transform="translate(75.493438 314.638437)scale(0.1 -0.1)">
       <defs>
        <path id="DejaVuSans-30" d="M 2034 4250 
Q 1547 4250 1301 3770 
Q 1056 3291 1056 2328 
Q 1056 1369 1301 889 
Q 1547 409 2034 409 
Q 2525 409 2770 889 
Q 3016 1369 3016 2328 
Q 3016 3291 2770 3770 
Q 2525 4250 2034 4250 
z
M 2034 4750 
Q 2819 4750 3233 4129 
Q 3647 3509 3647 2328 
Q 3647 1150 3233 529 
Q 2819 -91 2034 -91 
Q 1250 -91 836 529 
Q 422 1150 422 2328 
Q 422 3509 836 4129 
Q 1250 4750 2034 4750 
z
" transform="scale(0.015625)"/>
        <path id="DejaVuSans-2e" d="M 684 794 
L 1344 794 
L 1344 0 
L 684 0 
L 684 794 
z
" transform="scale(0.015625)"/>
       </defs>
       <use xlink:href="#DejaVuSans-30"/>
       <use xlink:href="#DejaVuSans-2e" x="63.623047"/>
       <use xlink:href="#DejaVuSans-30" x="95.410156"/>
      </g>
     </g>
    </g>
    <g id="xtick_2">
     <g id="line2d_3">
      <path d="M 153.265 300.04 
L 153.265 28.32 
" clip-path="url(#p8653ba33ab)" style="fill: none; stroke: #b0b0b0; stroke-width: 0.8; stroke-linecap: square"/>
     </g>
     <g id="line2d_4">
      <g>
       <use xlink:href="#m132a44241f" x="153.265" y="300.04" style="stroke: #000000; stroke-width: 0.8"/>
      </g>
     </g>
     <g id="text_2">
      <!-- 0.2 -->
      <g transform="translate(145.313437 314.638437)scale(0.1 -0.1)">
       <defs>
        <path id="DejaVuSans-32" d="M 1228 531 
L 3431 531 
L 3431 0 
L 469 0 
L 469 531 
Q 828 903 1448 1529 
Q 2069 2156 2228 2338 
Q 2531 2678 2651 2914 
Q 2772 3150 2772 3378 
Q 2772 3750 2511 3984 
Q 2250 4219 1831 4219 
Q 1534 4219 1204 4116 
Q 875 4013 500 3803 
L 500 4441 
Q 881 4594 1212 4672 
Q 1544 4750 1819 4750 
Q 2544 4750 2975 4387 
Q 3406 4025 3406 3419 
Q 3406 3131 3298 2873 
Q 3191 2616 2906 2266 
Q 2828 2175 2409 1742 
Q 1991 1309 1228 531 
z
" transform="scale(0.015625)"/>
       </defs>
       <use xlink:href="#DejaVuSans-30"/>
       <use xlink:href="#DejaVuSans-2e" x="63.623047"/>
       <use xlink:href="#DejaVuSans-32" x="95.410156"/>
      </g>
     </g>
    </g>
    <g id="xtick_3">
     <g id="line2d_5">
      <path d="M 223.085 300.04 
L 223.085 28.32 
" clip-path="url(#p8653ba33ab)" style="fill: none; stroke: #b0b0b0; stroke-width: 0.8; stroke-linecap: square"/>
     </g>
     <g id="line2d_6">
      <g>
       <use xlink:href="#m132a44241f" x="223.085" y="300.04" style="stroke: #000000; stroke-width: 0.8"/>
      </g>
     </g>
     <g id="text_3">
      <!-- 0.4 -->
      <g transform="translate(215.133438 314.638437)scale(0.1 -0.1)">
       <defs>
        <path id="DejaVuSans-34" d="M 2419 4116 
L 825 1625 
L 2419 1625 
L 2419 4116 
z
M 2253 4666 
L 3047 4666 
L 3047 1625 
L 3713 1625 
L 3713 1100 
L 3047 1100 
L 3047 0 
L 2419 0 
L 2419 1100 
L 313 1100 
L 313 1709 
L 2253 4666 
z
" transform="scale(0.015625)"/>
       </defs>
       <use xlink:href="#DejaVuSans-30"/>
       <use xlink:href="#DejaVuSans-2e" x="63.623047"/>
       <use xlink:href="#DejaVuSans-34" x="95.410156"/>
      </g>
     </g>
    </g>
    <g id="xtick_4">
     <g id="line2d_7">
      <path d="M 292.905 300.04 
L 292.905 28.32 
" clip-path="url(#p8653ba33ab)" style="fill: none; stroke: #b0b0b0; stroke-width: 0.8; stroke-linecap: square"/>
     </g>
     <g id="line2d_8">
      <g>
       <use xlink:href="#m132a44241f" x="292.905" y="300.04" style="stroke: #000000; stroke-width: 0.8"/>
      </g>
     </g>
     <g id="text_4">
      <!-- 0.6 -->
      <g transform="translate(284.953438 314.638437)scale(0.1 -0.1)">
       <defs>
        <path id="DejaVuSans-36" d="M 2113 2584 
Q 1688 2584 1439 2293 
Q 1191 2003 1191 1497 
Q 1191 994 1439 701 
Q 1688 409 2113 409 
Q 2538 409 2786 701 
Q 3034 994 3034 1497 
Q 3034 2003 2786 2293 
Q 2538 2584 2113 2584 
z
M 3366 4563 
L 3366 3988 
Q 3128 4100 2886 4159 
Q 2644 4219 2406 4219 
Q 1781 4219 1451 3797 
Q 1122 3375 1075 2522 
Q 1259 2794 1537 2939 
Q 1816 3084 2150 3084 
Q 2853 3084 3261 2657 
Q 3669 2231 3669 1497 
Q 3669 778 3244 343 
Q 2819 -91 2113 -91 
Q 1303 -91 875 529 
Q 447 1150 447 2328 
Q 447 3434 972 4092 
Q 1497 4750 2381 4750 
Q 2619 4750 2861 4703 
Q 3103 4656 3366 4563 
z
" transform="scale(0.015625)"/>
       </defs>
       <use xlink:href="#DejaVuSans-30"/>
       <use xlink:href="#DejaVuSans-2e" x="63.623047"/>
       <use xlink:href="#DejaVuSans-36" x="95.410156"/>
      </g>
     </g>
    </g>
    <g id="xtick_5">
     <g id="line2d_9">
      <path d="M 362.725 300.04 
L 362.725 28.32 
" clip-path="url(#p8653ba33ab)" style="fill: none; stroke: #b0b0b0; stroke-width: 0.8; stroke-linecap: square"/>
     </g>
     <g id="line2d_10">
      <g>
       <use xlink:href="#m132a44241f" x="362.725" y="300.04" style="stroke: #000000; stroke-width: 0.8"/>
      </g>
     </g>
     <g id="text_5">
      <!-- 0.8 -->
      <g transform="translate(354.773437 314.638437)scale(0.1 -0.1)">
       <defs>
        <path id="DejaVuSans-38" d="M 2034 2216 
Q 1584 2216 1326 1975 
Q 1069 1734 1069 1313 
Q 1069 891 1326 650 
Q 1584 409 2034 409 
Q 2484 409 2743 651 
Q 3003 894 3003 1313 
Q 3003 1734 2745 1975 
Q 2488 2216 2034 2216 
z
M 1403 2484 
Q 997 2584 770 2862 
Q 544 3141 544 3541 
Q 544 4100 942 4425 
Q 1341 4750 2034 4750 
Q 2731 4750 3128 4425 
Q 3525 4100 3525 3541 
Q 3525 3141 3298 2862 
Q 3072 2584 2669 2484 
Q 3125 2378 3379 2068 
Q 3634 1759 3634 1313 
Q 3634 634 3220 271 
Q 2806 -91 2034 -91 
Q 1263 -91 848 271 
Q 434 634 434 1313 
Q 434 1759 690 2068 
Q 947 2378 1403 2484 
z
M 1172 3481 
Q 1172 3119 1398 2916 
Q 1625 2713 2034 2713 
Q 2441 2713 2670 2916 
Q 2900 3119 2900 3481 
Q 2900 3844 2670 4047 
Q 2441 4250 2034 4250 
Q 1625 4250 1398 4047 
Q 1172 3844 1172 3481 
z
" transform="scale(0.015625)"/>
       </defs>
       <use xlink:href="#DejaVuSans-30"/>
       <use xlink:href="#DejaVuSans-2e" x="63.623047"/>
       <use xlink:href="#DejaVuSans-38" x="95.410156"/>
      </g>
     </g>
    </g>
    <g id="xtick_6">
     <g id="line2d_11">
      <path d="M 432.545 300.04 
L 432.545 28.32 
" clip-path="url(#p8653ba33ab)" style="fill: none; stroke: #b0b0b0; stroke-width: 0.8; stroke-linecap: square"/>
     </g>
     <g id="line2d_12">
      <g>
       <use xlink:href="#m132a44241f" x="432.545" y="300.04" style="stroke: #000000; stroke-width: 0.8"/>
      </g>
     </g>
     <g id="text_6">
      <!-- 1.0 -->
      <g transform="translate(424.593437 314.638437)scale(0.1 -0.1)">
       <defs>
        <path id="DejaVuSans-31" d="M 794 531 
L 1825 531 
L 1825 4091 
L 703 3866 
L 703 4441 
L 1819 4666 
L 2450 4666 
L 2450 531 
L 3481 531 
L 3481 0 
L 794 0 
L 794 531 
z
" transform="scale(0.015625)"/>
       </defs>
       <use xlink:href="#DejaVuSans-31"/>
       <use xlink:href="#DejaVuSans-2e" x="63.623047"/>
       <use xlink:href="#DejaVuSans-30" x="95.410156"/>
      </g>
     </g>
    </g>
    <g id="text_7">
     <!-- Time -->
     <g transform="translate(238.777813 331.355937)scale(0.14 -0.14)">
      <defs>
       <path id="DejaVuSans-Bold-54" d="M 31 4666 
L 4331 4666 
L 4331 3756 
L 2784 3756 
L 2784 0 
L 1581 0 
L 1581 3756 
L 31 3756 
L 31 4666 
z
" transform="scale(0.015625)"/>
       <path id="DejaVuSans-Bold-69" d="M 538 3500 
L 1656 3500 
L 1656 0 
L 538 0 
L 538 3500 
z
M 538 4863 
L 1656 4863 
L 1656 3950 
L 538 3950 
L 538 4863 
z
" transform="scale(0.015625)"/>
       <path id="DejaVuSans-Bold-6d" d="M 3781 2919 
Q 3994 3244 4286 3414 
Q 4578 3584 4928 3584 
Q 5531 3584 5847 3212 
Q 6163 2841 6163 2131 
L 6163 0 
L 5038 0 
L 5038 1825 
Q 5041 1866 5042 1909 
Q 5044 1953 5044 2034 
Q 5044 2406 4934 2573 
Q 4825 2741 4581 2741 
Q 4263 2741 4089 2478 
Q 3916 2216 3909 1719 
L 3909 0 
L 2784 0 
L 2784 1825 
Q 2784 2406 2684 2573 
Q 2584 2741 2328 2741 
Q 2006 2741 1831 2477 
Q 1656 2213 1656 1722 
L 1656 0 
L 531 0 
L 531 3500 
L 1656 3500 
L 1656 2988 
Q 1863 3284 2130 3434 
Q 2397 3584 2719 3584 
Q 3081 3584 3359 3409 
Q 3638 3234 3781 2919 
z
" transform="scale(0.015625)"/>
       <path id="DejaVuSans-Bold-65" d="M 4031 1759 
L 4031 1441 
L 1416 1441 
Q 1456 1047 1700 850 
Q 1944 653 2381 653 
Q 2734 653 3104 758 
Q 3475 863 3866 1075 
L 3866 213 
Q 3469 63 3072 -14 
Q 2675 -91 2278 -91 
Q 1328 -91 801 392 
Q 275 875 275 1747 
Q 275 2603 792 3093 
Q 1309 3584 2216 3584 
Q 3041 3584 3536 3087 
Q 4031 2591 4031 1759 
z
M 2881 2131 
Q 2881 2450 2695 2645 
Q 2509 2841 2209 2841 
Q 1884 2841 1681 2658 
Q 1478 2475 1428 2131 
L 2881 2131 
z
" transform="scale(0.015625)"/>
      </defs>
      <use xlink:href="#DejaVuSans-Bold-54"/>
      <use xlink:href="#DejaVuSans-Bold-69" x="68.212891"/>
      <use xlink:href="#DejaVuSans-Bold-6d" x="102.490234"/>
      <use xlink:href="#DejaVuSans-Bold-65" x="206.689453"/>
     </g>
    </g>
   </g>
   <g id="matplotlib.axis_2">
    <g id="ytick_1">
     <g id="line2d_13">
      <path d="M 65.99 296.735412 
L 450 296.735412 
" clip-path="url(#p8653ba33ab)" style="fill: none; stroke: #b0b0b0; stroke-width: 0.8; stroke-linecap: square"/>
     </g>
     <g id="line2d_14">
      <defs>
       <path id="mc2265c94c0" d="M 0 0 
L -3.5 0 
" style="stroke: #000000; stroke-width: 0.8"/>
      </defs>
      <g>
       <use xlink:href="#mc2265c94c0" x="65.99" y="296.735412" style="stroke: #000000; stroke-width: 0.8"/>
      </g>
     </g>
     <g id="text_8">
      <!-- −0.25 -->
      <g transform="translate(28.344688 300.534631)scale(0.1 -0.1)">
       <defs>
        <path id="DejaVuSans-2212" d="M 678 2272 
L 4684 2272 
L 4684 1741 
L 678 1741 
L 678 2272 
z
" transform="scale(0.015625)"/>
        <path id="DejaVuSans-35" d="M 691 4666 
L 3169 4666 
L 3169 4134 
L 1269 4134 
L 1269 2991 
Q 1406 3038 1543 3061 
Q 1681 3084 1819 3084 
Q 2600 3084 3056 2656 
Q 3513 2228 3513 1497 
Q 3513 744 3044 326 
Q 2575 -91 1722 -91 
Q 1428 -91 1123 -41 
Q 819 9 494 109 
L 494 744 
Q 775 591 1075 516 
Q 1375 441 1709 441 
Q 2250 441 2565 725 
Q 2881 1009 2881 1497 
Q 2881 1984 2565 2268 
Q 2250 2553 1709 2553 
Q 1456 2553 1204 2497 
Q 953 2441 691 2322 
L 691 4666 
z
" transform="scale(0.015625)"/>
       </defs>
       <use xlink:href="#DejaVuSans-2212"/>
       <use xlink:href="#DejaVuSans-30" x="83.789062"/>
       <use xlink:href="#DejaVuSans-2e" x="147.412109"/>
       <use xlink:href="#DejaVuSans-32" x="179.199219"/>
       <use xlink:href="#DejaVuSans-35" x="242.822266"/>
      </g>
     </g>
    </g>
    <g id="ytick_2">
     <g id="line2d_15">
      <path d="M 65.99 265.243245 
L 450 265.243245 
" clip-path="url(#p8653ba33ab)" style="fill: none; stroke: #b0b0b0; stroke-width: 0.8; stroke-linecap: square"/>
     </g>
     <g id="line2d_16">
      <g>
       <use xlink:href="#mc2265c94c0" x="65.99" y="265.243245" style="stroke: #000000; stroke-width: 0.8"/>
      </g>
     </g>
     <g id="text_9">
      <!-- −0.20 -->
      <g transform="translate(28.344688 269.042464)scale(0.1 -0.1)">
       <use xlink:href="#DejaVuSans-2212"/>
       <use xlink:href="#DejaVuSans-30" x="83.789062"/>
       <use xlink:href="#DejaVuSans-2e" x="147.412109"/>
       <use xlink:href="#DejaVuSans-32" x="179.199219"/>
       <use xlink:href="#DejaVuSans-30" x="242.822266"/>
      </g>
     </g>
    </g>
    <g id="ytick_3">
     <g id="line2d_17">
      <path d="M 65.99 233.751078 
L 450 233.751078 
" clip-path="url(#p8653ba33ab)" style="fill: none; stroke: #b0b0b0; stroke-width: 0.8; stroke-linecap: square"/>
     </g>
     <g id="line2d_18">
      <g>
       <use xlink:href="#mc2265c94c0" x="65.99" y="233.751078" style="stroke: #000000; stroke-width: 0.8"/>
      </g>
     </g>
     <g id="text_10">
      <!-- −0.15 -->
      <g transform="translate(28.344688 237.550297)scale(0.1 -0.1)">
       <use xlink:href="#DejaVuSans-2212"/>
       <use xlink:href="#DejaVuSans-30" x="83.789062"/>
       <use xlink:href="#DejaVuSans-2e" x="147.412109"/>
       <use xlink:href="#DejaVuSans-31" x="179.199219"/>
       <use xlink:href="#DejaVuSans-35" x="242.822266"/>
      </g>
     </g>
    </g>
    <g id="ytick_4">
     <g id="line2d_19">
      <path d="M 65.99 202.258911 
L 450 202.258911 
" clip-path="url(#p8653ba33ab)" style="fill: none; stroke: #b0b0b0; stroke-width: 0.8; stroke-linecap: square"/>
     </g>
     <g id="line2d_20">
      <g>
       <use xlink:href="#mc2265c94c0" x="65.99" y="202.258911" style="stroke: #000000; stroke-width: 0.8"/>
      </g>
     </g>
     <g id="text_11">
      <!-- −0.10 -->
      <g transform="translate(28.344688 206.05813)scale(0.1 -0.1)">
       <use xlink:href="#DejaVuSans-2212"/>
       <use xlink:href="#DejaVuSans-30" x="83.789062"/>
       <use xlink:href="#DejaVuSans-2e" x="147.412109"/>
       <use xlink:href="#DejaVuSans-31" x="179.199219"/>
       <use xlink:href="#DejaVuSans-30" x="242.822266"/>
      </g>
     </g>
    </g>
    <g id="ytick_5">
     <g id="line2d_21">
      <path d="M 65.99 170.766744 
L 450 170.766744 
" clip-path="url(#p8653ba33ab)" style="fill: none; stroke: #b0b0b0; stroke-width: 0.8; stroke-linecap: square"/>
     </g>
     <g id="line2d_22">
      <g>
       <use xlink:href="#mc2265c94c0" x="65.99" y="170.766744" style="stroke: #000000; stroke-width: 0.8"/>
      </g>
     </g>
     <g id="text_12">
      <!-- −0.05 -->
      <g transform="translate(28.344688 174.565963)scale(0.1 -0.1)">
       <use xlink:href="#DejaVuSans-2212"/>
       <use xlink:href="#DejaVuSans-30" x="83.789062"/>
       <use xlink:href="#DejaVuSans-2e" x="147.412109"/>
       <use xlink:href="#DejaVuSans-30" x="179.199219"/>
       <use xlink:href="#DejaVuSans-35" x="242.822266"/>
      </g>
     </g>
    </g>
    <g id="ytick_6">
     <g id="line2d_23">
      <path d="M 65.99 139.274577 
L 450 139.274577 
" clip-path="url(#p8653ba33ab)" style="fill: none; stroke: #b0b0b0; stroke-width: 0.8; stroke-linecap: square"/>
     </g>
     <g id="line2d_24">
      <g>
       <use xlink:href="#mc2265c94c0" x="65.99" y="139.274577" style="stroke: #000000; stroke-width: 0.8"/>
      </g>
     </g>
     <g id="text_13">
      <!-- 0.00 -->
      <g transform="translate(36.724375 143.073796)scale(0.1 -0.1)">
       <use xlink:href="#DejaVuSans-30"/>
       <use xlink:href="#DejaVuSans-2e" x="63.623047"/>
       <use xlink:href="#DejaVuSans-30" x="95.410156"/>
       <use xlink:href="#DejaVuSans-30" x="159.033203"/>
      </g>
     </g>
    </g>
    <g id="ytick_7">
     <g id="line2d_25">
      <path d="M 65.99 107.78241 
L 450 107.78241 
" clip-path="url(#p8653ba33ab)" style="fill: none; stroke: #b0b0b0; stroke-width: 0.8; stroke-linecap: square"/>
     </g>
     <g id="line2d_26">
      <g>
       <use xlink:href="#mc2265c94c0" x="65.99" y="107.78241" style="stroke: #000000; stroke-width: 0.8"/>
      </g>
     </g>
     <g id="text_14">
      <!-- 0.05 -->
      <g transform="translate(36.724375 111.581629)scale(0.1 -0.1)">
       <use xlink:href="#DejaVuSans-30"/>
       <use xlink:href="#DejaVuSans-2e" x="63.623047"/>
       <use xlink:href="#DejaVuSans-30" x="95.410156"/>
       <use xlink:href="#DejaVuSans-35" x="159.033203"/>
      </g>
     </g>
    </g>
    <g id="ytick_8">
     <g id="line2d_27">
      <path d="M 65.99 76.290243 
L 450 76.290243 
" clip-path="url(#p8653ba33ab)" style="fill: none; stroke: #b0b0b0; stroke-width: 0.8; stroke-linecap: square"/>
     </g>
     <g id="line2d_28">
      <g>
       <use xlink:href="#mc2265c94c0" x="65.99" y="76.290243" style="stroke: #000000; stroke-width: 0.8"/>
      </g>
     </g>
     <g id="text_15">
      <!-- 0.10 -->
      <g transform="translate(36.724375 80.089461)scale(0.1 -0.1)">
       <use xlink:href="#DejaVuSans-30"/>
       <use xlink:href="#DejaVuSans-2e" x="63.623047"/>
       <use xlink:href="#DejaVuSans-31" x="95.410156"/>
       <use xlink:href="#DejaVuSans-30" x="159.033203"/>
      </g>
     </g>
    </g>
    <g id="ytick_9">
     <g id="line2d_29">
      <path d="M 65.99 44.798076 
L 450 44.798076 
" clip-path="url(#p8653ba33ab)" style="fill: none; stroke: #b0b0b0; stroke-width: 0.8; stroke-linecap: square"/>
     </g>
     <g id="line2d_30">
      <g>
       <use xlink:href="#mc2265c94c0" x="65.99" y="44.798076" style="stroke: #000000; stroke-width: 0.8"/>
      </g>
     </g>
     <g id="text_16">
      <!-- 0.15 -->
      <g transform="translate(36.724375 48.597294)scale(0.1 -0.1)">
       <use xlink:href="#DejaVuSans-30"/>
       <use xlink:href="#DejaVuSans-2e" x="63.623047"/>
       <use xlink:href="#DejaVuSans-31" x="95.410156"/>
       <use xlink:href="#DejaVuSans-35" x="159.033203"/>
      </g>
     </g>
    </g>
    <g id="text_17">
     <!-- Position -->
     <g transform="translate(21.433125 196.223594)rotate(-90)scale(0.14 -0.14)">
      <defs>
       <path id="DejaVuSans-Bold-50" d="M 588 4666 
L 2584 4666 
Q 3475 4666 3951 4270 
Q 4428 3875 4428 3144 
Q 4428 2409 3951 2014 
Q 3475 1619 2584 1619 
L 1791 1619 
L 1791 0 
L 588 0 
L 588 4666 
z
M 1791 3794 
L 1791 2491 
L 2456 2491 
Q 2806 2491 2997 2661 
Q 3188 2831 3188 3144 
Q 3188 3456 2997 3625 
Q 2806 3794 2456 3794 
L 1791 3794 
z
" transform="scale(0.015625)"/>
       <path id="DejaVuSans-Bold-6f" d="M 2203 2784 
Q 1831 2784 1636 2517 
Q 1441 2250 1441 1747 
Q 1441 1244 1636 976 
Q 1831 709 2203 709 
Q 2569 709 2762 976 
Q 2956 1244 2956 1747 
Q 2956 2250 2762 2517 
Q 2569 2784 2203 2784 
z
M 2203 3584 
Q 3106 3584 3614 3096 
Q 4122 2609 4122 1747 
Q 4122 884 3614 396 
Q 3106 -91 2203 -91 
Q 1297 -91 786 396 
Q 275 884 275 1747 
Q 275 2609 786 3096 
Q 1297 3584 2203 3584 
z
" transform="scale(0.015625)"/>
       <path id="DejaVuSans-Bold-73" d="M 3272 3391 
L 3272 2541 
Q 2913 2691 2578 2766 
Q 2244 2841 1947 2841 
Q 1628 2841 1473 2761 
Q 1319 2681 1319 2516 
Q 1319 2381 1436 2309 
Q 1553 2238 1856 2203 
L 2053 2175 
Q 2913 2066 3209 1816 
Q 3506 1566 3506 1031 
Q 3506 472 3093 190 
Q 2681 -91 1863 -91 
Q 1516 -91 1145 -36 
Q 775 19 384 128 
L 384 978 
Q 719 816 1070 734 
Q 1422 653 1784 653 
Q 2113 653 2278 743 
Q 2444 834 2444 1013 
Q 2444 1163 2330 1236 
Q 2216 1309 1875 1350 
L 1678 1375 
Q 931 1469 631 1722 
Q 331 1975 331 2491 
Q 331 3047 712 3315 
Q 1094 3584 1881 3584 
Q 2191 3584 2531 3537 
Q 2872 3491 3272 3391 
z
" transform="scale(0.015625)"/>
       <path id="DejaVuSans-Bold-74" d="M 1759 4494 
L 1759 3500 
L 2913 3500 
L 2913 2700 
L 1759 2700 
L 1759 1216 
Q 1759 972 1856 886 
Q 1953 800 2241 800 
L 2816 800 
L 2816 0 
L 1856 0 
Q 1194 0 917 276 
Q 641 553 641 1216 
L 641 2700 
L 84 2700 
L 84 3500 
L 641 3500 
L 641 4494 
L 1759 4494 
z
" transform="scale(0.015625)"/>
       <path id="DejaVuSans-Bold-6e" d="M 4056 2131 
L 4056 0 
L 2931 0 
L 2931 347 
L 2931 1631 
Q 2931 2084 2911 2256 
Q 2891 2428 2841 2509 
Q 2775 2619 2662 2680 
Q 2550 2741 2406 2741 
Q 2056 2741 1856 2470 
Q 1656 2200 1656 1722 
L 1656 0 
L 538 0 
L 538 3500 
L 1656 3500 
L 1656 2988 
Q 1909 3294 2193 3439 
Q 2478 3584 2822 3584 
Q 3428 3584 3742 3212 
Q 4056 2841 4056 2131 
z
" transform="scale(0.015625)"/>
      </defs>
      <use xlink:href="#DejaVuSans-Bold-50"/>
      <use xlink:href="#DejaVuSans-Bold-6f" x="73.291016"/>
      <use xlink:href="#DejaVuSans-Bold-73" x="141.992188"/>
      <use xlink:href="#DejaVuSans-Bold-69" x="201.513672"/>
      <use xlink:href="#DejaVuSans-Bold-74" x="235.791016"/>
      <use xlink:href="#DejaVuSans-Bold-69" x="283.59375"/>
      <use xlink:href="#DejaVuSans-Bold-6f" x="317.871094"/>
      <use xlink:href="#DejaVuSans-Bold-6e" x="386.572266"/>
     </g>
    </g>
   </g>
   <g id="line2d_31">
    <path d="M 83.445 102.842342 
L 86.971263 109.651546 
L 90.497525 116.460575 
L 94.023788 123.252538 
L 97.550051 130.010631 
L 101.076313 136.718179 
L 104.602576 143.358674 
L 108.128838 149.915815 
L 111.655101 156.373554 
L 115.181364 162.716131 
L 118.707626 168.928122 
L 122.233889 174.99446 
L 125.760152 180.900493 
L 129.286414 186.63201 
L 132.812677 192.175274 
L 136.338939 197.517067 
L 139.865202 202.644713 
L 143.391465 207.54611 
L 146.917727 212.209765 
L 150.44399 216.624825 
L 153.970253 220.781101 
L 157.496515 224.669087 
L 161.022778 228.279977 
L 164.54904 231.60574 
L 168.075303 234.639063 
L 171.601566 237.373414 
L 175.127828 239.803049 
L 178.654091 241.923041 
L 182.180354 243.729261 
L 185.706616 245.218423 
L 189.232879 246.38805 
L 192.759141 247.236546 
L 196.285404 247.763114 
L 199.811667 247.967838 
L 203.337929 247.851637 
L 206.864192 247.416258 
L 210.390455 246.664319 
L 213.916717 245.599245 
L 217.44298 244.225298 
L 220.969242 242.547545 
L 224.495505 240.571872 
L 228.021768 238.304924 
L 231.54803 235.754142 
L 235.074293 232.927701 
L 238.600556 229.834528 
L 242.126818 226.484222 
L 245.653081 222.887109 
L 249.179343 219.054141 
L 252.705606 214.996919 
L 256.231869 210.727637 
L 259.758131 206.259072 
L 263.284394 201.604529 
L 266.810657 196.777826 
L 270.336919 191.793256 
L 273.863182 186.665535 
L 277.389444 181.409797 
L 280.915707 176.041528 
L 284.44197 170.576533 
L 287.968232 165.030911 
L 291.494495 159.420994 
L 295.020758 153.763328 
L 298.54702 148.07461 
L 302.073283 142.371662 
L 305.599545 136.671381 
L 309.125808 130.990701 
L 312.652071 125.346548 
L 316.178333 119.755798 
L 319.704596 114.235236 
L 323.230859 108.801513 
L 326.757121 103.471107 
L 330.283384 98.260279 
L 333.809646 93.185027 
L 337.335909 88.261058 
L 340.862172 83.503745 
L 344.388434 78.928083 
L 347.914697 74.54865 
L 351.44096 70.379586 
L 354.967222 66.434538 
L 358.493485 62.726635 
L 362.019747 59.268468 
L 365.54601 56.072027 
L 369.072273 53.148701 
L 372.598535 50.509236 
L 376.124798 48.163713 
L 379.651061 46.121516 
L 383.177323 44.391309 
L 386.703586 42.981031 
L 390.229848 41.897853 
L 393.756111 41.148166 
L 397.282374 40.737592 
L 400.808636 40.670909 
L 404.334899 40.952124 
L 407.861162 41.584371 
L 411.387424 42.569988 
L 414.913687 43.910438 
L 418.439949 45.606352 
L 421.966212 47.65754 
L 425.492475 50.062914 
L 429.018737 52.820587 
L 432.545 55.927811 
" clip-path="url(#p8653ba33ab)" style="fill: none; stroke: #4d4d4d; stroke-opacity: 0.75; stroke-width: 1.5; stroke-linecap: square"/>
   </g>
   <g id="line2d_32">
    <path d="M 83.445 102.689337 
L 86.971263 109.550442 
L 90.497525 116.423918 
L 94.023788 123.292565 
L 97.550051 130.139275 
L 101.076313 136.947063 
L 104.602576 143.699118 
L 108.128838 150.378843 
L 111.655101 156.969894 
L 115.181364 163.456224 
L 118.707626 169.822121 
L 122.233889 176.052251 
L 125.760152 182.131684 
L 129.286414 188.045953 
L 132.812677 193.781073 
L 136.338939 199.323577 
L 139.865202 204.660555 
L 143.391465 209.779689 
L 146.917727 214.669279 
L 150.44399 219.318265 
L 153.970253 223.716272 
L 157.496515 227.853618 
L 161.022778 231.721349 
L 164.54904 235.311273 
L 168.075303 238.615937 
L 171.601566 241.628706 
L 175.127828 244.343723 
L 178.654091 246.755976 
L 182.180354 248.861252 
L 185.706616 250.65621 
L 189.232879 252.138333 
L 192.759141 253.30597 
L 196.285404 254.158352 
L 199.811667 254.695525 
L 203.337929 254.918437 
L 206.864192 254.828882 
L 210.390455 254.429515 
L 213.916717 253.723817 
L 217.44298 252.716135 
L 220.969242 251.411631 
L 224.495505 249.816292 
L 228.021768 247.936894 
L 231.54803 245.781003 
L 235.074293 243.356961 
L 238.600556 240.673835 
L 242.126818 237.741424 
L 245.653081 234.57023 
L 249.179343 231.171412 
L 252.705606 227.556767 
L 256.231869 223.73874 
L 259.758131 219.730322 
L 263.284394 215.545063 
L 266.810657 211.197043 
L 270.336919 206.700809 
L 273.863182 202.071354 
L 277.389444 197.324084 
L 280.915707 192.474772 
L 284.44197 187.539512 
L 287.968232 182.534697 
L 291.494495 177.476961 
L 295.020758 172.383149 
L 298.54702 167.270269 
L 302.073283 162.155445 
L 305.599545 157.055891 
L 309.125808 151.988847 
L 312.652071 146.971549 
L 316.178333 142.021185 
L 319.704596 137.154846 
L 323.230859 132.389489 
L 326.757121 127.741894 
L 330.283384 123.228616 
L 333.809646 118.865953 
L 337.335909 114.669899 
L 340.862172 110.656105 
L 344.388434 106.839841 
L 347.914697 103.235956 
L 351.44096 99.858846 
L 354.967222 96.722406 
L 358.493485 93.840019 
L 362.019747 91.224487 
L 365.54601 88.88803 
L 369.072273 86.842248 
L 372.598535 85.098085 
L 376.124798 83.665798 
L 379.651061 82.554947 
L 383.177323 81.774359 
L 386.703586 81.332115 
L 390.229848 81.23552 
L 393.756111 81.49108 
L 397.282374 82.104514 
L 400.808636 83.080703 
L 404.334899 84.423711 
L 407.861162 86.136743 
L 411.387424 88.222165 
L 414.913687 90.681477 
L 418.439949 93.515332 
L 421.966212 96.723504 
L 425.492475 100.304923 
L 429.018737 104.257644 
L 432.545 108.578875 
" clip-path="url(#p8653ba33ab)" style="fill: none; stroke: #4d4d4d; stroke-opacity: 0.75; stroke-width: 1.5; stroke-linecap: square"/>
   </g>
   <g id="line2d_33">
    <path d="M 83.445 113.455413 
L 86.971263 120.396865 
L 90.497525 127.350065 
L 94.023788 134.297964 
L 97.550051 141.223599 
L 101.076313 148.110135 
L 104.602576 154.940906 
L 108.128838 161.699458 
L 111.655101 168.36959 
L 115.181364 174.935395 
L 118.707626 181.381293 
L 122.233889 187.692091 
L 125.760152 193.852984 
L 129.286414 199.849629 
L 132.812677 205.668158 
L 136.338939 211.295233 
L 139.865202 216.71805 
L 143.391465 221.924393 
L 146.917727 226.90267 
L 150.44399 231.64192 
L 153.970253 236.131848 
L 157.496515 240.36286 
L 161.022778 244.326088 
L 164.54904 248.013394 
L 168.075303 251.417412 
L 171.601566 254.531543 
L 175.127828 257.349997 
L 178.654091 259.867789 
L 182.180354 262.080763 
L 185.706616 263.985585 
L 189.232879 265.57977 
L 192.759141 266.861693 
L 196.285404 267.830567 
L 199.811667 268.486465 
L 203.337929 268.830318 
L 206.864192 268.863889 
L 210.390455 268.589817 
L 213.916717 268.011555 
L 217.44298 267.133419 
L 220.969242 265.960526 
L 224.495505 264.498798 
L 228.021768 262.754972 
L 231.54803 260.73653 
L 235.074293 258.451749 
L 238.600556 255.909611 
L 242.126818 253.119839 
L 245.653081 250.092842 
L 249.179343 246.839675 
L 252.705606 243.372043 
L 256.231869 239.702278 
L 259.758131 235.843247 
L 263.284394 231.808408 
L 266.810657 227.6117 
L 270.336919 223.267556 
L 273.863182 218.790825 
L 277.389444 214.196781 
L 280.915707 209.501069 
L 284.44197 204.719636 
L 287.968232 199.868738 
L 291.494495 194.964863 
L 295.020758 190.024709 
L 298.54702 185.065137 
L 302.073283 180.103124 
L 305.599545 175.155732 
L 309.125808 170.24005 
L 312.652071 165.373168 
L 316.178333 160.572124 
L 319.704596 155.85386 
L 323.230859 151.235186 
L 326.757121 146.732736 
L 330.283384 142.362922 
L 333.809646 138.141901 
L 337.335909 134.085527 
L 340.862172 130.209316 
L 344.388434 126.528405 
L 347.914697 123.057515 
L 351.44096 119.810916 
L 354.967222 116.802386 
L 358.493485 114.045182 
L 362.019747 111.552005 
L 365.54601 109.33497 
L 369.072273 107.405567 
L 372.598535 105.77465 
L 376.124798 104.452388 
L 379.651061 103.448259 
L 383.177323 102.771013 
L 386.703586 102.428655 
L 390.229848 102.42843 
L 393.756111 102.776795 
L 397.282374 103.479406 
L 400.808636 104.541115 
L 404.334899 105.965938 
L 407.861162 107.757062 
L 411.387424 109.916827 
L 414.913687 112.446726 
L 418.439949 115.347398 
L 421.966212 118.618629 
L 425.492475 122.259346 
L 429.018737 126.267629 
L 432.545 130.640712 
" clip-path="url(#p8653ba33ab)" style="fill: none; stroke: #4d4d4d; stroke-opacity: 0.75; stroke-width: 1.5; stroke-linecap: square"/>
   </g>
   <g id="line2d_34">
    <path d="M 83.445 110.19489 
L 86.971263 116.691934 
L 90.497525 123.198609 
L 94.023788 129.699154 
L 97.550051 136.177886 
L 101.076313 142.619243 
L 104.602576 149.007816 
L 108.128838 155.328394 
L 111.655101 161.566 
L 115.181364 167.705925 
L 118.707626 173.733771 
L 122.233889 179.635483 
L 125.760152 185.397384 
L 129.286414 191.006206 
L 132.812677 196.44914 
L 136.338939 201.713836 
L 139.865202 206.788474 
L 143.391465 211.661757 
L 146.917727 216.322958 
L 150.44399 220.761946 
L 153.970253 224.969222 
L 157.496515 228.935895 
L 161.022778 232.653769 
L 164.54904 236.115339 
L 168.075303 239.313769 
L 171.601566 242.24298 
L 175.127828 244.897602 
L 178.654091 247.273046 
L 182.180354 249.365445 
L 185.706616 251.17174 
L 189.232879 252.689622 
L 192.759141 253.917588 
L 196.285404 254.854917 
L 199.811667 255.501665 
L 203.337929 255.858704 
L 206.864192 255.927659 
L 210.390455 255.710969 
L 213.916717 255.211834 
L 217.44298 254.434235 
L 220.969242 253.382911 
L 224.495505 252.063325 
L 228.021768 250.481707 
L 231.54803 248.644994 
L 235.074293 246.560807 
L 238.600556 244.23748 
L 242.126818 241.683976 
L 245.653081 238.909934 
L 249.179343 235.925566 
L 252.705606 232.741711 
L 256.231869 229.369744 
L 259.758131 225.821576 
L 263.284394 222.109642 
L 266.810657 218.246838 
L 270.336919 214.24649 
L 273.863182 210.122345 
L 277.389444 205.888522 
L 280.915707 201.55947 
L 284.44197 197.149943 
L 287.968232 192.674967 
L 291.494495 188.149783 
L 295.020758 183.589832 
L 298.54702 179.010697 
L 302.073283 174.428077 
L 305.599545 169.857745 
L 309.125808 165.315502 
L 312.652071 160.817142 
L 316.178333 156.37842 
L 319.704596 152.015 
L 323.230859 147.742421 
L 326.757121 143.57606 
L 330.283384 139.531093 
L 333.809646 135.622453 
L 337.335909 131.864801 
L 340.862172 128.272478 
L 344.388434 124.85948 
L 347.914697 121.639416 
L 351.44096 118.625476 
L 354.967222 115.830404 
L 358.493485 113.266449 
L 362.019747 110.945359 
L 365.54601 108.87833 
L 369.072273 107.075987 
L 372.598535 105.548361 
L 376.124798 104.304859 
L 379.651061 103.354238 
L 383.177323 102.704588 
L 386.703586 102.363311 
L 390.229848 102.337107 
L 393.756111 102.63194 
L 397.282374 103.253047 
L 400.808636 104.204905 
L 404.334899 105.49123 
L 407.861162 107.114969 
L 411.387424 109.078286 
L 414.913687 111.382563 
L 418.439949 114.028386 
L 421.966212 117.015557 
L 425.492475 120.343089 
L 429.018737 124.009205 
L 432.545 128.011346 
" clip-path="url(#p8653ba33ab)" style="fill: none; stroke: #4d4d4d; stroke-opacity: 0.75; stroke-width: 1.5; stroke-linecap: square"/>
   </g>
   <g id="line2d_35">
    <path d="M 83.445 99.096217 
L 86.971263 105.067392 
L 90.497525 111.047556 
L 94.023788 117.021948 
L 97.550051 122.975882 
L 101.076313 128.894783 
L 104.602576 134.764221 
L 108.128838 140.569951 
L 111.655101 146.297945 
L 115.181364 151.93443 
L 118.707626 157.465921 
L 122.233889 162.879254 
L 125.760152 168.161623 
L 129.286414 173.300605 
L 132.812677 178.284192 
L 136.338939 183.100834 
L 139.865202 187.739449 
L 143.391465 192.18946 
L 146.917727 196.440829 
L 150.44399 200.484063 
L 153.970253 204.310255 
L 157.496515 207.911099 
L 161.022778 211.278912 
L 164.54904 214.406652 
L 168.075303 217.287932 
L 171.601566 219.917053 
L 175.127828 222.288987 
L 178.654091 224.399435 
L 182.180354 226.244782 
L 185.706616 227.822158 
L 189.232879 229.129403 
L 192.759141 230.1651 
L 196.285404 230.928583 
L 199.811667 231.419909 
L 203.337929 231.639874 
L 206.864192 231.590029 
L 210.390455 231.272643 
L 213.916717 230.69071 
L 217.44298 229.847958 
L 220.969242 228.748825 
L 224.495505 227.398435 
L 228.021768 225.802617 
L 231.54803 223.967866 
L 235.074293 221.901333 
L 238.600556 219.610808 
L 242.126818 217.104686 
L 245.653081 214.391992 
L 249.179343 211.482303 
L 252.705606 208.385756 
L 256.231869 205.113007 
L 259.758131 201.675225 
L 263.284394 198.084034 
L 266.810657 194.351523 
L 270.336919 190.490168 
L 273.863182 186.512848 
L 277.389444 182.432777 
L 280.915707 178.263495 
L 284.44197 174.01882 
L 287.968232 169.712816 
L 291.494495 165.359766 
L 295.020758 160.974122 
L 298.54702 156.570484 
L 302.073283 152.163553 
L 305.599545 147.768097 
L 309.125808 143.398916 
L 312.652071 139.070805 
L 316.178333 134.798514 
L 319.704596 130.596713 
L 323.230859 126.479955 
L 326.757121 122.462643 
L 330.283384 118.558985 
L 333.809646 114.782972 
L 337.335909 111.148329 
L 340.862172 107.668489 
L 344.388434 104.356559 
L 347.914697 101.225283 
L 351.44096 98.287018 
L 354.967222 95.55369 
L 358.493485 93.036784 
L 362.019747 90.747287 
L 365.54601 88.695691 
L 369.072273 86.891949 
L 372.598535 85.345456 
L 376.124798 84.065011 
L 379.651061 83.058831 
L 383.177323 82.33448 
L 386.703586 81.898894 
L 390.229848 81.758348 
L 393.756111 81.918425 
L 397.282374 82.384035 
L 400.808636 83.159367 
L 404.334899 84.247899 
L 407.861162 85.652401 
L 411.387424 87.374884 
L 414.913687 89.416654 
L 418.439949 91.778254 
L 421.966212 94.459502 
L 425.492475 97.45947 
L 429.018737 100.776499 
L 432.545 104.40819 
" clip-path="url(#p8653ba33ab)" style="fill: none; stroke: #4d4d4d; stroke-opacity: 0.75; stroke-width: 1.5; stroke-linecap: square"/>
   </g>
   <g id="line2d_36">
    <path d="M 83.445 100.547573 
L 86.971263 107.506406 
L 90.497525 114.476682 
L 94.023788 121.441112 
L 97.550051 128.38249 
L 101.076313 135.283747 
L 104.602576 142.127982 
L 108.128838 148.898508 
L 111.655101 155.578896 
L 115.181364 162.153015 
L 118.707626 168.605067 
L 122.233889 174.919635 
L 125.760152 181.081716 
L 129.286414 187.076765 
L 132.812677 192.890714 
L 136.338939 198.510037 
L 139.865202 203.921751 
L 143.391465 209.113471 
L 146.917727 214.073433 
L 150.44399 218.790524 
L 153.970253 223.254304 
L 157.496515 227.455057 
L 161.022778 231.383775 
L 164.54904 235.032207 
L 168.075303 238.392884 
L 171.601566 241.459112 
L 175.127828 244.225026 
L 178.654091 246.685567 
L 182.180354 248.836522 
L 185.706616 250.674511 
L 189.232879 252.19701 
L 192.759141 253.402377 
L 196.285404 254.289804 
L 199.811667 254.859366 
L 203.337929 255.112011 
L 206.864192 255.049533 
L 210.390455 254.674595 
L 213.916717 253.990729 
L 217.44298 253.002268 
L 220.969242 251.714432 
L 224.495505 250.133218 
L 228.021768 248.265439 
L 231.54803 246.118717 
L 235.074293 243.701424 
L 238.600556 241.022681 
L 242.126818 238.092335 
L 245.653081 234.920944 
L 249.179343 231.519732 
L 252.705606 227.900554 
L 256.231869 224.07592 
L 259.758131 220.058886 
L 263.284394 215.863092 
L 266.810657 211.502674 
L 270.336919 206.992259 
L 273.863182 202.346928 
L 277.389444 197.582159 
L 280.915707 192.713813 
L 284.44197 187.75807 
L 287.968232 182.731406 
L 291.494495 177.650548 
L 295.020758 172.532429 
L 298.54702 167.394144 
L 302.073283 162.252915 
L 305.599545 157.126039 
L 309.125808 152.030852 
L 312.652071 146.984681 
L 316.178333 142.004803 
L 319.704596 137.108401 
L 323.230859 132.312523 
L 326.757121 127.634035 
L 330.283384 123.089583 
L 333.809646 118.69555 
L 337.335909 114.468015 
L 340.862172 110.422709 
L 344.388434 106.574987 
L 347.914697 102.939777 
L 351.44096 99.531545 
L 354.967222 96.364274 
L 358.493485 93.451394 
L 362.019747 90.805796 
L 365.54601 88.43976 
L 369.072273 86.364945 
L 372.598535 84.592348 
L 376.124798 83.13229 
L 379.651061 81.994376 
L 383.177323 81.187486 
L 386.703586 80.719736 
L 390.229848 80.598468 
L 393.756111 80.830231 
L 397.282374 81.420769 
L 400.808636 82.374992 
L 404.334899 83.696981 
L 407.861162 85.389961 
L 411.387424 87.456312 
L 414.913687 89.897542 
L 418.439949 92.714302 
L 421.966212 95.906374 
L 425.492475 99.47267 
L 429.018737 103.411247 
L 432.545 107.719293 
" clip-path="url(#p8653ba33ab)" style="fill: none; stroke: #4d4d4d; stroke-opacity: 0.75; stroke-width: 1.5; stroke-linecap: square"/>
   </g>
   <g id="line2d_37">
    <path d="M 83.445 126.002925 
L 86.971263 133.483929 
L 90.497525 140.971336 
L 94.023788 148.446327 
L 97.550051 155.89018 
L 101.076313 163.284312 
L 104.602576 170.610325 
L 108.128838 177.850063 
L 111.655101 184.985638 
L 115.181364 191.999495 
L 118.707626 198.874435 
L 122.233889 205.593684 
L 125.760152 212.140914 
L 129.286414 218.500281 
L 132.812677 224.656482 
L 136.338939 230.594792 
L 139.865202 236.301085 
L 143.391465 241.761866 
L 146.917727 246.964351 
L 150.44399 251.896424 
L 153.970253 256.546748 
L 157.496515 260.904716 
L 161.022778 264.96054 
L 164.54904 268.705248 
L 168.075303 272.130683 
L 171.601566 275.229591 
L 175.127828 277.995571 
L 178.654091 280.423123 
L 182.180354 282.507648 
L 185.706616 284.245476 
L 189.232879 285.633867 
L 192.759141 286.671019 
L 196.285404 287.356069 
L 199.811667 287.689091 
L 203.337929 287.671108 
L 206.864192 287.304083 
L 210.390455 286.590915 
L 213.916717 285.535443 
L 217.44298 284.142387 
L 220.969242 282.417426 
L 224.495505 280.367083 
L 228.021768 277.99879 
L 231.54803 275.320836 
L 235.074293 272.342315 
L 238.600556 269.073184 
L 242.126818 265.524143 
L 245.653081 261.706679 
L 249.179343 257.633013 
L 252.705606 253.316069 
L 256.231869 248.769435 
L 259.758131 244.00735 
L 263.284394 239.044624 
L 266.810657 233.896668 
L 270.336919 228.579409 
L 273.863182 223.109243 
L 277.389444 217.503026 
L 280.915707 211.778018 
L 284.44197 205.951836 
L 287.968232 200.04241 
L 291.494495 194.067943 
L 295.020758 188.046868 
L 298.54702 181.997796 
L 302.073283 175.939469 
L 305.599545 169.890711 
L 309.125808 163.870397 
L 312.652071 157.897381 
L 316.178333 151.990471 
L 319.704596 146.16837 
L 323.230859 140.449632 
L 326.757121 134.852616 
L 330.283384 129.39544 
L 333.809646 124.095935 
L 337.335909 118.971602 
L 340.862172 114.039569 
L 344.388434 109.316542 
L 347.914697 104.818768 
L 351.44096 100.562 
L 354.967222 96.561451 
L 358.493485 92.831746 
L 362.019747 89.386906 
L 365.54601 86.240307 
L 369.072273 83.404631 
L 372.598535 80.891855 
L 376.124798 78.713209 
L 379.651061 76.879147 
L 383.177323 75.399333 
L 386.703586 74.282602 
L 390.229848 73.536951 
L 393.756111 73.169503 
L 397.282374 73.18651 
L 400.808636 73.593315 
L 404.334899 74.394363 
L 407.861162 75.593165 
L 411.387424 77.192305 
L 414.913687 79.193436 
L 418.439949 81.597252 
L 421.966212 84.403528 
L 425.492475 87.611072 
L 429.018737 91.217772 
L 432.545 95.220569 
" clip-path="url(#p8653ba33ab)" style="fill: none; stroke: #4d4d4d; stroke-opacity: 0.75; stroke-width: 1.5; stroke-linecap: square"/>
   </g>
   <g id="line2d_38">
    <path d="M 83.445 111.380325 
L 86.971263 118.952496 
L 90.497525 126.529158 
L 94.023788 134.091756 
L 97.550051 141.621832 
L 101.076313 149.101065 
L 104.602576 156.511319 
L 108.128838 163.834688 
L 111.655101 171.053541 
L 115.181364 178.150567 
L 118.707626 185.108816 
L 122.233889 191.911742 
L 125.760152 198.543247 
L 129.286414 204.987716 
L 132.812677 211.230066 
L 136.338939 217.255763 
L 139.865202 223.050894 
L 143.391465 228.602159 
L 146.917727 233.896931 
L 150.44399 238.92329 
L 153.970253 243.670039 
L 157.496515 248.126732 
L 161.022778 252.283722 
L 164.54904 256.132138 
L 168.075303 259.663985 
L 171.601566 262.872074 
L 175.127828 265.750096 
L 178.654091 268.292638 
L 182.180354 270.495165 
L 185.706616 272.354056 
L 189.232879 273.866625 
L 192.759141 275.031071 
L 196.285404 275.84655 
L 199.811667 276.313145 
L 203.337929 276.431861 
L 206.864192 276.204631 
L 210.390455 275.634308 
L 213.916717 274.724676 
L 217.44298 273.480416 
L 220.969242 271.907086 
L 224.495505 270.011142 
L 228.021768 267.799914 
L 231.54803 265.281549 
L 235.074293 262.465048 
L 238.600556 259.360199 
L 242.126818 255.977561 
L 245.653081 252.328462 
L 249.179343 248.424953 
L 252.705606 244.279771 
L 256.231869 239.906316 
L 259.758131 235.318603 
L 263.284394 230.531281 
L 266.810657 225.559507 
L 270.336919 220.418985 
L 273.863182 215.125893 
L 277.389444 209.696844 
L 280.915707 204.148859 
L 284.44197 198.4993 
L 287.968232 192.76585 
L 291.494495 186.966454 
L 295.020758 181.119286 
L 298.54702 175.24269 
L 302.073283 169.355143 
L 305.599545 163.475215 
L 309.125808 157.621502 
L 312.652071 151.812601 
L 316.178333 146.067052 
L 319.704596 140.403294 
L 323.230859 134.83962 
L 326.757121 129.394131 
L 330.283384 124.084689 
L 333.809646 118.928875 
L 337.335909 113.943941 
L 340.862172 109.146774 
L 344.388434 104.553844 
L 347.914697 100.181176 
L 351.44096 96.044293 
L 354.967222 92.158194 
L 358.493485 88.537303 
L 362.019747 85.19544 
L 365.54601 82.145791 
L 369.072273 79.400867 
L 372.598535 76.972466 
L 376.124798 74.871662 
L 379.651061 73.10877 
L 383.177323 71.693307 
L 386.703586 70.633991 
L 390.229848 69.938702 
L 393.756111 69.614465 
L 397.282374 69.667446 
L 400.808636 70.102909 
L 404.334899 70.925234 
L 407.861162 72.137889 
L 411.387424 73.743416 
L 414.913687 75.743444 
L 418.439949 78.138672 
L 421.966212 80.928857 
L 425.492475 84.112834 
L 429.018737 87.68852 
L 432.545 91.652903 
" clip-path="url(#p8653ba33ab)" style="fill: none; stroke: #4d4d4d; stroke-opacity: 0.75; stroke-width: 1.5; stroke-linecap: square"/>
   </g>
   <g id="line2d_39">
    <path d="M 83.445 115.599434 
L 86.971263 121.228478 
L 90.497525 126.866839 
L 94.023788 132.500902 
L 97.550051 138.117124 
L 101.076313 143.702063 
L 104.602576 149.242413 
L 108.128838 154.725035 
L 111.655101 160.136994 
L 115.181364 165.465586 
L 118.707626 170.698377 
L 122.233889 175.823226 
L 125.760152 180.82832 
L 129.286414 185.702208 
L 132.812677 190.433814 
L 136.338939 195.012484 
L 139.865202 199.427999 
L 143.391465 203.670607 
L 146.917727 207.731044 
L 150.44399 211.600564 
L 153.970253 215.270949 
L 157.496515 218.734531 
L 161.022778 221.984244 
L 164.54904 225.013578 
L 168.075303 227.816639 
L 171.601566 230.388191 
L 175.127828 232.723578 
L 178.654091 234.818849 
L 182.180354 236.670654 
L 185.706616 238.276364 
L 189.232879 239.633971 
L 192.759141 240.742189 
L 196.285404 241.600381 
L 199.811667 242.208611 
L 203.337929 242.567611 
L 206.864192 242.678819 
L 210.390455 242.544308 
L 213.916717 242.166855 
L 217.44298 241.549906 
L 220.969242 240.697524 
L 224.495505 239.614468 
L 228.021768 238.306097 
L 231.54803 236.778398 
L 235.074293 235.03797 
L 238.600556 233.091992 
L 242.126818 230.948227 
L 245.653081 228.61497 
L 249.179343 226.101073 
L 252.705606 223.415873 
L 256.231869 220.569198 
L 259.758131 217.571356 
L 263.284394 214.433063 
L 266.810657 211.165466 
L 270.336919 207.780074 
L 273.863182 204.288758 
L 277.389444 200.703714 
L 280.915707 197.037417 
L 284.44197 193.30262 
L 287.968232 189.512294 
L 291.494495 185.679603 
L 295.020758 181.817878 
L 298.54702 177.940585 
L 302.073283 174.061282 
L 305.599545 170.193585 
L 309.125808 166.351147 
L 312.652071 162.547612 
L 316.178333 158.79658 
L 319.704596 155.111581 
L 323.230859 151.506036 
L 326.757121 147.993228 
L 330.283384 144.586262 
L 333.809646 141.298038 
L 337.335909 138.141214 
L 340.862172 135.128179 
L 344.388434 132.27102 
L 347.914697 129.581491 
L 351.44096 127.070985 
L 354.967222 124.750506 
L 358.493485 122.630636 
L 362.019747 120.721519 
L 365.54601 119.032826 
L 369.072273 117.573732 
L 372.598535 116.352905 
L 376.124798 115.378462 
L 379.651061 114.657973 
L 383.177323 114.198424 
L 386.703586 114.006206 
L 390.229848 114.087104 
L 393.756111 114.446274 
L 397.282374 115.088235 
L 400.808636 116.016854 
L 404.334899 117.235344 
L 407.861162 118.746245 
L 411.387424 120.55143 
L 414.913687 122.652089 
L 418.439949 125.048732 
L 421.966212 127.741187 
L 425.492475 130.7286 
L 429.018737 134.009437 
L 432.545 137.581487 
" clip-path="url(#p8653ba33ab)" style="fill: none; stroke: #4d4d4d; stroke-opacity: 0.75; stroke-width: 1.5; stroke-linecap: square"/>
   </g>
   <g id="line2d_40">
    <path d="M 83.445 111.841556 
L 86.971263 117.926649 
L 90.497525 124.022749 
L 94.023788 130.115235 
L 97.550051 136.189559 
L 101.076313 142.231283 
L 104.602576 148.226112 
L 108.128838 154.159938 
L 111.655101 160.018865 
L 115.181364 165.789246 
L 118.707626 171.457728 
L 122.233889 177.011272 
L 125.760152 182.437183 
L 129.286414 187.723166 
L 132.812677 192.857325 
L 136.338939 197.828216 
L 139.865202 202.624863 
L 143.391465 207.236786 
L 146.917727 211.654042 
L 150.44399 215.867231 
L 153.970253 219.867527 
L 157.496515 223.646707 
L 161.022778 227.197156 
L 164.54904 230.51189 
L 168.075303 233.584604 
L 171.601566 236.409637 
L 175.127828 238.982014 
L 178.654091 241.297476 
L 182.180354 243.352437 
L 185.706616 245.144053 
L 189.232879 246.670194 
L 192.759141 247.929451 
L 196.285404 248.921169 
L 199.811667 249.645393 
L 203.337929 250.102922 
L 206.864192 250.295285 
L 210.390455 250.224735 
L 213.916717 249.894237 
L 217.44298 249.30749 
L 220.969242 248.468877 
L 224.495505 247.383484 
L 228.021768 246.057083 
L 231.54803 244.496095 
L 235.074293 242.707623 
L 238.600556 240.699364 
L 242.126818 238.479661 
L 245.653081 236.057421 
L 249.179343 233.442162 
L 252.705606 230.643896 
L 256.231869 227.673202 
L 259.758131 224.541135 
L 263.284394 221.259203 
L 266.810657 217.839389 
L 270.336919 214.294056 
L 273.863182 210.635947 
L 277.389444 206.878165 
L 280.915707 203.034113 
L 284.44197 199.117479 
L 287.968232 195.142205 
L 291.494495 191.122425 
L 295.020758 187.072462 
L 298.54702 183.006778 
L 302.073283 178.939935 
L 305.599545 174.886561 
L 309.125808 170.861319 
L 312.652071 166.87886 
L 316.178333 162.953796 
L 319.704596 159.100661 
L 323.230859 155.33387 
L 326.757121 151.667689 
L 330.283384 148.116195 
L 333.809646 144.693241 
L 337.335909 141.412427 
L 340.862172 138.287059 
L 344.388434 135.330119 
L 347.914697 132.554232 
L 351.44096 129.971637 
L 354.967222 127.594151 
L 358.493485 125.433142 
L 362.019747 123.499505 
L 365.54601 121.803627 
L 369.072273 120.355367 
L 372.598535 119.164026 
L 376.124798 118.238335 
L 379.651061 117.586416 
L 383.177323 117.215775 
L 386.703586 117.13328 
L 390.229848 117.345139 
L 393.756111 117.856892 
L 397.282374 118.673393 
L 400.808636 119.7988 
L 404.334899 121.236557 
L 407.861162 122.989399 
L 411.387424 125.059332 
L 414.913687 127.447638 
L 418.439949 130.154863 
L 421.966212 133.180822 
L 425.492475 136.524599 
L 429.018737 140.184545 
L 432.545 144.158287 
" clip-path="url(#p8653ba33ab)" style="fill: none; stroke: #4d4d4d; stroke-opacity: 0.75; stroke-width: 1.5; stroke-linecap: square"/>
   </g>
   <g id="line2d_41">
    <path d="M 83.445 117.26716 
L 86.971263 123.205526 
L 90.497525 129.156468 
L 94.023788 135.105598 
L 97.550051 141.038604 
L 101.076313 146.94128 
L 104.602576 152.799561 
L 108.128838 158.599564 
L 111.655101 164.327616 
L 115.181364 169.970295 
L 118.707626 175.514458 
L 122.233889 180.947275 
L 125.760152 186.256261 
L 129.286414 191.429309 
L 132.812677 196.45472 
L 136.338939 201.321236 
L 139.865202 206.01805 
L 143.391465 210.534861 
L 146.917727 214.861881 
L 150.44399 218.989861 
L 153.970253 222.910113 
L 157.496515 226.614548 
L 161.022778 230.095676 
L 164.54904 233.346628 
L 168.075303 236.361198 
L 171.601566 239.133804 
L 175.127828 241.659574 
L 178.654091 243.934294 
L 182.180354 245.954454 
L 185.706616 247.717247 
L 189.232879 249.220582 
L 192.759141 250.463067 
L 196.285404 251.444057 
L 199.811667 252.163608 
L 203.337929 252.622497 
L 206.864192 252.822218 
L 210.390455 252.765005 
L 213.916717 252.453776 
L 217.44298 251.892154 
L 220.969242 251.084456 
L 224.495505 250.035703 
L 228.021768 248.751556 
L 231.54803 247.238348 
L 235.074293 245.503045 
L 238.600556 243.553247 
L 242.126818 241.39714 
L 245.653081 239.043507 
L 249.179343 236.501698 
L 252.705606 233.781575 
L 256.231869 230.893538 
L 259.758131 227.848465 
L 263.284394 224.657693 
L 266.810657 221.332991 
L 270.336919 217.886537 
L 273.863182 214.330865 
L 277.389444 210.678866 
L 280.915707 206.943732 
L 284.44197 203.138934 
L 287.968232 199.278176 
L 291.494495 195.375376 
L 295.020758 191.444626 
L 298.54702 187.50015 
L 302.073283 183.556279 
L 305.599545 179.627406 
L 309.125808 175.727959 
L 312.652071 171.872354 
L 316.178333 168.074966 
L 319.704596 164.350096 
L 323.230859 160.711927 
L 326.757121 157.174496 
L 330.283384 153.751652 
L 333.809646 150.457028 
L 337.335909 147.304004 
L 340.862172 144.305672 
L 344.388434 141.474805 
L 347.914697 138.823827 
L 351.44096 136.364777 
L 354.967222 134.109284 
L 358.493485 132.068533 
L 362.019747 130.253244 
L 365.54601 128.673636 
L 369.072273 127.339411 
L 372.598535 126.259721 
L 376.124798 125.443153 
L 379.651061 124.897701 
L 383.177323 124.630751 
L 386.703586 124.649057 
L 390.229848 124.958731 
L 393.756111 125.565224 
L 397.282374 126.47331 
L 400.808636 127.68708 
L 404.334899 129.209926 
L 407.861162 131.044534 
L 411.387424 133.192881 
L 414.913687 135.656226 
L 418.439949 138.435109 
L 421.966212 141.529347 
L 425.492475 144.938038 
L 429.018737 148.659561 
L 432.545 152.691579 
" clip-path="url(#p8653ba33ab)" style="fill: none; stroke: #4d4d4d; stroke-opacity: 0.75; stroke-width: 1.5; stroke-linecap: square"/>
   </g>
   <g id="line2d_42">
    <path d="M 83.445 117.842312 
L 86.971263 124.146429 
L 90.497525 130.459231 
L 94.023788 136.76484 
L 97.550051 143.04746 
L 101.076313 149.291412 
L 104.602576 155.481174 
L 108.128838 161.601425 
L 111.655101 167.637074 
L 115.181364 173.573309 
L 118.707626 179.39562 
L 122.233889 185.089853 
L 125.760152 190.642231 
L 129.286414 196.039388 
L 132.812677 201.26841 
L 136.338939 206.316876 
L 139.865202 211.172862 
L 143.391465 215.824992 
L 146.917727 220.262464 
L 150.44399 224.475081 
L 153.970253 228.453251 
L 157.496515 232.188038 
L 161.022778 235.671175 
L 164.54904 238.895106 
L 168.075303 241.852942 
L 171.601566 244.538554 
L 175.127828 246.946556 
L 178.654091 249.072283 
L 182.180354 250.911887 
L 185.706616 252.46226 
L 189.232879 253.721077 
L 192.759141 254.686834 
L 196.285404 255.358791 
L 199.811667 255.737013 
L 203.337929 255.822373 
L 206.864192 255.616523 
L 210.390455 255.121904 
L 213.916717 254.341742 
L 217.44298 253.280047 
L 220.969242 251.941596 
L 224.495505 250.331897 
L 228.021768 248.45722 
L 231.54803 246.324548 
L 235.074293 243.941568 
L 238.600556 241.316669 
L 242.126818 238.458891 
L 245.653081 235.377919 
L 249.179343 232.084076 
L 252.705606 228.588241 
L 256.231869 224.901901 
L 259.758131 221.03705 
L 263.284394 217.006215 
L 266.810657 212.822369 
L 270.336919 208.498958 
L 273.863182 204.049819 
L 277.389444 199.489178 
L 280.915707 194.83159 
L 284.44197 190.091918 
L 287.968232 185.285299 
L 291.494495 180.427085 
L 295.020758 175.532832 
L 298.54702 170.618237 
L 302.073283 165.699113 
L 305.599545 160.791351 
L 309.125808 155.910867 
L 312.652071 151.073573 
L 316.178333 146.295339 
L 319.704596 141.591943 
L 323.230859 136.979039 
L 326.757121 132.472118 
L 330.283384 128.086468 
L 333.809646 123.837131 
L 337.335909 119.738875 
L 340.862172 115.806147 
L 344.388434 112.053049 
L 347.914697 108.493287 
L 351.44096 105.14015 
L 354.967222 102.006469 
L 358.493485 99.104594 
L 362.019747 96.446354 
L 365.54601 94.043025 
L 369.072273 91.905314 
L 372.598535 90.043326 
L 376.124798 88.466532 
L 379.651061 87.18376 
L 383.177323 86.203159 
L 386.703586 85.532183 
L 390.229848 85.177575 
L 393.756111 85.145355 
L 397.282374 85.440793 
L 400.808636 86.068394 
L 404.334899 87.031913 
L 407.861162 88.334311 
L 411.387424 89.977769 
L 414.913687 91.963672 
L 418.439949 94.292621 
L 421.966212 96.964418 
L 425.492475 99.97806 
L 429.018737 103.33176 
L 432.545 107.022941 
" clip-path="url(#p8653ba33ab)" style="fill: none; stroke: #4d4d4d; stroke-opacity: 0.75; stroke-width: 1.5; stroke-linecap: square"/>
   </g>
   <g id="line2d_43">
    <path d="M 83.445 91.918509 
L 86.971263 98.709609 
L 90.497525 105.507929 
L 94.023788 112.296612 
L 97.550051 119.05888 
L 101.076313 125.778077 
L 104.602576 132.437721 
L 108.128838 139.021536 
L 111.655101 145.513497 
L 115.181364 151.897868 
L 118.707626 158.159243 
L 122.233889 164.282582 
L 125.760152 170.253253 
L 129.286414 176.057065 
L 132.812677 181.680303 
L 136.338939 187.109764 
L 139.865202 192.332794 
L 143.391465 197.337308 
L 146.917727 202.111829 
L 150.44399 206.64552 
L 153.970253 210.928208 
L 157.496515 214.950395 
L 161.022778 218.703306 
L 164.54904 222.178906 
L 168.075303 225.369885 
L 171.601566 228.269728 
L 175.127828 230.872712 
L 178.654091 233.173908 
L 182.180354 235.169187 
L 185.706616 236.855274 
L 189.232879 238.229709 
L 192.759141 239.290869 
L 196.285404 240.037984 
L 199.811667 240.47112 
L 203.337929 240.591197 
L 206.864192 240.39997 
L 210.390455 239.900047 
L 213.916717 239.094846 
L 217.44298 237.988626 
L 220.969242 236.586448 
L 224.495505 234.894186 
L 228.021768 232.918475 
L 231.54803 230.666759 
L 235.074293 228.147183 
L 238.600556 225.368655 
L 242.126818 222.340785 
L 245.653081 219.07386 
L 249.179343 215.578837 
L 252.705606 211.867283 
L 256.231869 207.951385 
L 259.758131 203.843894 
L 263.284394 199.558104 
L 266.810657 195.107807 
L 270.336919 190.507269 
L 273.863182 185.7712 
L 277.389444 180.914698 
L 280.915707 175.953232 
L 284.44197 170.902586 
L 287.968232 165.778833 
L 291.494495 160.598284 
L 295.020758 155.377455 
L 298.54702 150.133023 
L 302.073283 144.881784 
L 305.599545 139.640612 
L 309.125808 134.426414 
L 312.652071 129.256092 
L 316.178333 124.146498 
L 319.704596 119.114394 
L 323.230859 114.176404 
L 326.757121 109.348982 
L 330.283384 104.648365 
L 333.809646 100.09053 
L 337.335909 95.691162 
L 340.862172 91.465608 
L 344.388434 87.428845 
L 347.914697 83.595427 
L 351.44096 79.979468 
L 354.967222 76.594605 
L 358.493485 73.453947 
L 362.019747 70.570053 
L 365.54601 67.954916 
L 369.072273 65.619895 
L 372.598535 63.575722 
L 376.124798 61.832469 
L 379.651061 60.399493 
L 383.177323 59.285465 
L 386.703586 58.498302 
L 390.229848 58.045156 
L 393.756111 57.932428 
L 397.282374 58.165702 
L 400.808636 58.749793 
L 404.334899 59.688661 
L 407.861162 60.985456 
L 411.387424 62.642504 
L 414.913687 64.66127 
L 418.439949 67.042397 
L 421.966212 69.785664 
L 425.492475 72.890016 
L 429.018737 76.353551 
L 432.545 80.17353 
" clip-path="url(#p8653ba33ab)" style="fill: none; stroke: #4d4d4d; stroke-opacity: 0.75; stroke-width: 1.5; stroke-linecap: square"/>
   </g>
   <g id="line2d_44">
    <path d="M 83.445 102.800713 
L 86.971263 108.266745 
L 90.497525 113.742399 
L 94.023788 119.213983 
L 97.550051 124.66787 
L 101.076313 130.090543 
L 104.602576 135.468616 
L 108.128838 140.788876 
L 111.655101 146.038311 
L 115.181364 151.204143 
L 118.707626 156.273866 
L 122.233889 161.235268 
L 125.760152 166.076467 
L 129.286414 170.785942 
L 132.812677 175.352557 
L 136.338939 179.765597 
L 139.865202 184.014779 
L 143.391465 188.090294 
L 146.917727 191.982831 
L 150.44399 195.683583 
L 153.970253 199.184289 
L 157.496515 202.477245 
L 161.022778 205.555322 
L 164.54904 208.411988 
L 168.075303 211.041326 
L 171.601566 213.438037 
L 175.127828 215.597467 
L 178.654091 217.515621 
L 182.180354 219.18915 
L 185.706616 220.615393 
L 189.232879 221.79234 
L 192.759141 222.718688 
L 196.285404 223.393808 
L 199.811667 223.817756 
L 203.337929 223.991273 
L 206.864192 223.915796 
L 210.390455 223.593426 
L 213.916717 223.026942 
L 217.44298 222.219817 
L 220.969242 221.176142 
L 224.495505 219.900695 
L 228.021768 218.398862 
L 231.54803 216.676675 
L 235.074293 214.740772 
L 238.600556 212.598368 
L 242.126818 210.257274 
L 245.653081 207.725836 
L 249.179343 205.012949 
L 252.705606 202.128014 
L 256.231869 199.080918 
L 259.758131 195.882013 
L 263.284394 192.542098 
L 266.810657 189.072368 
L 270.336919 185.48441 
L 273.863182 181.790159 
L 277.389444 178.001884 
L 280.915707 174.132137 
L 284.44197 170.193738 
L 287.968232 166.199733 
L 291.494495 162.163367 
L 295.020758 158.098053 
L 298.54702 154.017327 
L 302.073283 149.934829 
L 305.599545 145.864258 
L 309.125808 141.819342 
L 312.652071 137.813804 
L 316.178333 133.861327 
L 319.704596 129.97552 
L 323.230859 126.169882 
L 326.757121 122.457769 
L 330.283384 118.852368 
L 333.809646 115.36665 
L 337.335909 112.013351 
L 340.862172 108.804927 
L 344.388434 105.753542 
L 347.914697 102.871012 
L 351.44096 100.168801 
L 354.967222 97.657975 
L 358.493485 95.349182 
L 362.019747 93.252616 
L 365.54601 91.378014 
L 369.072273 89.734603 
L 372.598535 88.331092 
L 376.124798 87.175655 
L 379.651061 86.275905 
L 383.177323 85.638867 
L 386.703586 85.270969 
L 390.229848 85.17803 
L 393.756111 85.365236 
L 397.282374 85.837133 
L 400.808636 86.597609 
L 404.334899 87.649899 
L 407.861162 88.996558 
L 411.387424 90.639468 
L 414.913687 92.579819 
L 418.439949 94.818137 
L 421.966212 97.354241 
L 425.492475 100.187272 
L 429.018737 103.31569 
L 432.545 106.73727 
" clip-path="url(#p8653ba33ab)" style="fill: none; stroke: #4d4d4d; stroke-opacity: 0.75; stroke-width: 1.5; stroke-linecap: square"/>
   </g>
   <g id="line2d_45">
    <path d="M 83.445 109.837699 
L 86.971263 116.615492 
L 90.497525 123.40397 
L 94.023788 130.186767 
L 97.550051 136.947601 
L 101.076313 143.670313 
L 104.602576 150.338907 
L 108.128838 156.937587 
L 111.655101 163.450806 
L 115.181364 169.863292 
L 118.707626 176.160096 
L 122.233889 182.326623 
L 125.760152 188.348674 
L 129.286414 194.212478 
L 132.812677 199.904726 
L 136.338939 205.412607 
L 139.865202 210.723841 
L 143.391465 215.8267 
L 146.917727 220.710044 
L 150.44399 225.363371 
L 153.970253 229.776789 
L 157.496515 233.941099 
L 161.022778 237.84778 
L 164.54904 241.489023 
L 168.075303 244.857752 
L 171.601566 247.947631 
L 175.127828 250.753123 
L 178.654091 253.269423 
L 182.180354 255.492542 
L 185.706616 257.419299 
L 189.232879 259.04729 
L 192.759141 260.374967 
L 196.285404 261.40156 
L 199.811667 262.127155 
L 203.337929 262.552623 
L 206.864192 262.679682 
L 210.390455 262.510858 
L 213.916717 262.049462 
L 217.44298 261.299635 
L 220.969242 260.266284 
L 224.495505 258.955106 
L 228.021768 257.37255 
L 231.54803 255.525823 
L 235.074293 253.422846 
L 238.600556 251.072264 
L 242.126818 248.483387 
L 245.653081 245.66621 
L 249.179343 242.631357 
L 252.705606 239.390054 
L 256.231869 235.954135 
L 259.758131 232.335961 
L 263.284394 228.548447 
L 266.810657 224.604956 
L 270.336919 220.519361 
L 273.863182 216.305905 
L 277.389444 211.979265 
L 280.915707 207.554435 
L 284.44197 203.046736 
L 287.968232 198.471768 
L 291.494495 193.845359 
L 295.020758 189.183533 
L 298.54702 184.502473 
L 302.073283 179.818484 
L 305.599545 175.14793 
L 309.125808 170.507227 
L 312.652071 165.91277 
L 316.178333 161.380916 
L 319.704596 156.927927 
L 323.230859 152.569939 
L 326.757121 148.322917 
L 330.283384 144.202615 
L 333.809646 140.224541 
L 337.335909 136.403913 
L 340.862172 132.755624 
L 344.388434 129.294203 
L 347.914697 126.033782 
L 351.44096 122.988054 
L 354.967222 120.170248 
L 358.493485 117.593087 
L 362.019747 115.268763 
L 365.54601 113.208905 
L 369.072273 111.424542 
L 372.598535 109.926088 
L 376.124798 108.723312 
L 379.651061 107.825303 
L 383.177323 107.240464 
L 386.703586 106.976481 
L 390.229848 107.040304 
L 393.756111 107.438129 
L 397.282374 108.175395 
L 400.808636 109.256747 
L 404.334899 110.686047 
L 407.861162 112.466351 
L 411.387424 114.59991 
L 414.913687 117.08815 
L 418.439949 119.93169 
L 421.966212 123.13032 
L 425.492475 126.683015 
L 429.018737 130.58793 
L 432.545 134.842407 
" clip-path="url(#p8653ba33ab)" style="fill: none; stroke: #4d4d4d; stroke-opacity: 0.75; stroke-width: 1.5; stroke-linecap: square"/>
   </g>
   <g id="line2d_46">
    <path d="M 83.445 100.091154 
L 86.971263 106.525259 
L 90.497525 112.966333 
L 94.023788 119.398267 
L 97.550051 125.805036 
L 101.076313 132.170733 
L 104.602576 138.479613 
L 108.128838 144.716129 
L 111.655101 150.864977 
L 115.181364 156.911124 
L 118.707626 162.839854 
L 122.233889 168.636806 
L 125.760152 174.288002 
L 129.286414 179.779886 
L 132.812677 185.099356 
L 136.338939 190.233806 
L 139.865202 195.171145 
L 143.391465 199.899827 
L 146.917727 204.4089 
L 150.44399 208.688008 
L 153.970253 212.727431 
L 157.496515 216.518099 
L 161.022778 220.051631 
L 164.54904 223.320349 
L 168.075303 226.317275 
L 171.601566 229.036187 
L 175.127828 231.471613 
L 178.654091 233.618851 
L 182.180354 235.473959 
L 185.706616 237.033794 
L 189.232879 238.296017 
L 192.759141 239.259071 
L 196.285404 239.922234 
L 199.811667 240.285562 
L 203.337929 240.349936 
L 206.864192 240.117037 
L 210.390455 239.589334 
L 213.916717 238.770111 
L 217.44298 237.663432 
L 220.969242 236.27414 
L 224.495505 234.607819 
L 228.021768 232.670842 
L 231.54803 230.470276 
L 235.074293 228.013948 
L 238.600556 225.310334 
L 242.126818 222.368632 
L 245.653081 219.198658 
L 249.179343 215.810867 
L 252.705606 212.21633 
L 256.231869 208.426681 
L 259.758131 204.454086 
L 263.284394 200.311254 
L 266.810657 196.011358 
L 270.336919 191.56803 
L 273.863182 186.995305 
L 277.389444 182.307618 
L 280.915707 177.51974 
L 284.44197 172.646743 
L 287.968232 167.703984 
L 291.494495 162.707042 
L 295.020758 157.671693 
L 298.54702 152.613866 
L 302.073283 147.549602 
L 305.599545 142.495021 
L 309.125808 137.466271 
L 312.652071 132.479495 
L 316.178333 127.550793 
L 319.704596 122.696169 
L 323.230859 117.93151 
L 326.757121 113.272526 
L 330.283384 108.734727 
L 333.809646 104.333377 
L 337.335909 100.083455 
L 340.862172 95.999618 
L 344.388434 92.096175 
L 347.914697 88.387024 
L 351.44096 84.885656 
L 354.967222 81.605084 
L 358.493485 78.557833 
L 362.019747 75.755908 
L 365.54601 73.210743 
L 369.072273 70.933212 
L 372.598535 68.933554 
L 376.124798 67.221386 
L 379.651061 65.805655 
L 383.177323 64.694635 
L 386.703586 63.895886 
L 390.229848 63.416255 
L 393.756111 63.261837 
L 397.282374 63.437987 
L 400.808636 63.949275 
L 404.334899 64.799508 
L 407.861162 65.991688 
L 411.387424 67.52803 
L 414.913687 69.409948 
L 418.439949 71.638036 
L 421.966212 74.212104 
L 425.492475 77.131126 
L 429.018737 80.393298 
L 432.545 83.995995 
" clip-path="url(#p8653ba33ab)" style="fill: none; stroke: #4d4d4d; stroke-opacity: 0.75; stroke-width: 1.5; stroke-linecap: square"/>
   </g>
   <g id="line2d_47">
    <path d="M 83.445 132.962182 
L 86.971263 139.750918 
L 90.497525 146.54907 
L 94.023788 153.339953 
L 97.550051 160.106963 
L 101.076313 166.833627 
L 104.602576 173.503632 
L 108.128838 180.100876 
L 111.655101 186.609499 
L 115.181364 193.013939 
L 118.707626 199.298941 
L 122.233889 205.449637 
L 125.760152 211.451543 
L 129.286414 217.290616 
L 132.812677 222.953286 
L 136.338939 228.426493 
L 139.865202 233.697717 
L 143.391465 238.755 
L 146.917727 243.586978 
L 150.44399 248.182942 
L 153.970253 252.53282 
L 157.496515 256.627209 
L 161.022778 260.457436 
L 164.54904 264.015534 
L 168.075303 267.294294 
L 171.601566 270.287269 
L 175.127828 272.988771 
L 178.654091 275.393939 
L 182.180354 277.498689 
L 185.706616 279.299785 
L 189.232879 280.794775 
L 192.759141 281.982066 
L 196.285404 282.860886 
L 199.811667 283.431321 
L 203.337929 283.694272 
L 206.864192 283.651465 
L 210.390455 283.305491 
L 213.916717 282.659729 
L 217.44298 281.718392 
L 220.969242 280.486484 
L 224.495505 278.969822 
L 228.021768 277.174978 
L 231.54803 275.109299 
L 235.074293 272.780857 
L 238.600556 270.198465 
L 242.126818 267.371639 
L 245.653081 264.310545 
L 249.179343 261.026013 
L 252.705606 257.529521 
L 256.231869 253.833101 
L 259.758131 249.949376 
L 263.284394 245.891506 
L 266.810657 241.673127 
L 270.336919 237.308363 
L 273.863182 232.811763 
L 277.389444 228.198268 
L 280.915707 223.483185 
L 284.44197 218.682132 
L 287.968232 213.811008 
L 291.494495 208.885955 
L 295.020758 203.923309 
L 298.54702 198.939583 
L 302.073283 193.951386 
L 305.599545 188.975412 
L 309.125808 184.028397 
L 312.652071 179.127062 
L 316.178333 174.288077 
L 319.704596 169.528032 
L 323.230859 164.863372 
L 326.757121 160.310382 
L 330.283384 155.885121 
L 333.809646 151.603405 
L 337.335909 147.480746 
L 340.862172 143.532334 
L 344.388434 139.772981 
L 347.914697 136.217096 
L 351.44096 132.878643 
L 354.967222 129.771108 
L 358.493485 126.907467 
L 362.019747 124.30015 
L 365.54601 121.96101 
L 369.072273 119.9013 
L 372.598535 118.131635 
L 376.124798 116.661971 
L 379.651061 115.501586 
L 383.177323 114.659038 
L 386.703586 114.14217 
L 390.229848 113.958064 
L 393.756111 114.113045 
L 397.282374 114.612649 
L 400.808636 115.461619 
L 404.334899 116.663893 
L 407.861162 118.222582 
L 411.387424 120.139983 
L 414.913687 122.417554 
L 418.439949 125.055922 
L 421.966212 128.054874 
L 425.492475 131.413365 
L 429.018737 135.129513 
L 432.545 139.20061 
" clip-path="url(#p8653ba33ab)" style="fill: none; stroke: #4d4d4d; stroke-opacity: 0.75; stroke-width: 1.5; stroke-linecap: square"/>
   </g>
   <g id="line2d_48">
    <path d="M 83.445 102.513384 
L 86.971263 106.969965 
L 90.497525 111.437404 
L 94.023788 115.904436 
L 97.550051 120.359855 
L 101.076313 124.792538 
L 104.602576 129.191475 
L 108.128838 133.545794 
L 111.655101 137.844793 
L 115.181364 142.077961 
L 118.707626 146.235007 
L 122.233889 150.305886 
L 125.760152 154.280825 
L 129.286414 158.150346 
L 132.812677 161.905287 
L 136.338939 165.53683 
L 139.865202 169.036523 
L 143.391465 172.396293 
L 146.917727 175.608478 
L 150.44399 178.66584 
L 153.970253 181.561573 
L 157.496515 184.289349 
L 161.022778 186.843294 
L 164.54904 189.218043 
L 168.075303 191.408727 
L 171.601566 193.410979 
L 175.127828 195.220986 
L 178.654091 196.835443 
L 182.180354 198.251606 
L 185.706616 199.467282 
L 189.232879 200.480825 
L 192.759141 201.291156 
L 196.285404 201.897757 
L 199.811667 202.300672 
L 203.337929 202.500525 
L 206.864192 202.498479 
L 210.390455 202.296271 
L 213.916717 201.896195 
L 217.44298 201.30109 
L 220.969242 200.51434 
L 224.495505 199.539859 
L 228.021768 198.382095 
L 231.54803 197.046 
L 235.074293 195.537034 
L 238.600556 193.861136 
L 242.126818 192.024723 
L 245.653081 190.034676 
L 249.179343 187.898302 
L 252.705606 185.623333 
L 256.231869 183.217907 
L 259.758131 180.690547 
L 263.284394 178.05012 
L 266.810657 175.305849 
L 270.336919 172.467259 
L 273.863182 169.544174 
L 277.389444 166.546683 
L 280.915707 163.48511 
L 284.44197 160.370005 
L 287.968232 157.2121 
L 291.494495 154.022291 
L 295.020758 150.811609 
L 298.54702 147.591193 
L 302.073283 144.372262 
L 305.599545 141.166085 
L 309.125808 137.983957 
L 312.652071 134.837166 
L 316.178333 131.736968 
L 319.704596 128.694558 
L 323.230859 125.721042 
L 326.757121 122.827409 
L 330.283384 120.024502 
L 333.809646 117.322996 
L 337.335909 114.733366 
L 340.862172 112.26586 
L 344.388434 109.930483 
L 347.914697 107.736958 
L 351.44096 105.694715 
L 354.967222 103.812856 
L 358.493485 102.100138 
L 362.019747 100.564957 
L 365.54601 99.215308 
L 369.072273 98.058793 
L 372.598535 97.102576 
L 376.124798 96.353382 
L 379.651061 95.817462 
L 383.177323 95.500606 
L 386.703586 95.408103 
L 390.229848 95.544731 
L 393.756111 95.914765 
L 397.282374 96.521939 
L 400.808636 97.369459 
L 404.334899 98.459976 
L 407.861162 99.795598 
L 411.387424 101.377868 
L 414.913687 103.207777 
L 418.439949 105.285743 
L 421.966212 107.611628 
L 425.492475 110.184719 
L 429.018737 113.003752 
L 432.545 116.066897 
" clip-path="url(#p8653ba33ab)" style="fill: none; stroke: #4d4d4d; stroke-opacity: 0.75; stroke-width: 1.5; stroke-linecap: square"/>
   </g>
   <g id="line2d_49">
    <path d="M 83.445 105.335054 
L 86.971263 112.568981 
L 90.497525 119.813191 
L 94.023788 127.049838 
L 97.550051 134.261158 
L 101.076313 141.429524 
L 104.602576 148.537489 
L 108.128838 155.567823 
L 111.655101 162.503564 
L 115.181364 169.328057 
L 118.707626 176.024991 
L 122.233889 182.578447 
L 125.760152 188.972939 
L 129.286414 195.19344 
L 132.812677 201.225439 
L 136.338939 207.054958 
L 139.865202 212.668603 
L 143.391465 218.053573 
L 146.917727 223.197738 
L 150.44399 228.089613 
L 153.970253 232.718425 
L 157.496515 237.074141 
L 161.022778 241.147451 
L 164.54904 244.92985 
L 168.075303 248.413625 
L 171.601566 251.591859 
L 175.127828 254.458497 
L 178.654091 257.008312 
L 182.180354 259.236959 
L 185.706616 261.140956 
L 189.232879 262.717684 
L 192.759141 263.965454 
L 196.285404 264.88343 
L 199.811667 265.471688 
L 203.337929 265.731213 
L 206.864192 265.663844 
L 210.390455 265.272351 
L 213.916717 264.560356 
L 217.44298 263.532364 
L 220.969242 262.193735 
L 224.495505 260.550671 
L 228.021768 258.610212 
L 231.54803 256.380222 
L 235.074293 253.869347 
L 238.600556 251.086999 
L 242.126818 248.043352 
L 245.653081 244.749303 
L 249.179343 241.216433 
L 252.705606 237.457009 
L 256.231869 233.483917 
L 259.758131 229.310653 
L 263.284394 224.951287 
L 266.810657 220.42043 
L 270.336919 215.733175 
L 273.863182 210.905092 
L 277.389444 205.952169 
L 280.915707 200.89077 
L 284.44197 195.737614 
L 287.968232 190.509704 
L 291.494495 185.224313 
L 295.020758 179.898926 
L 298.54702 174.551185 
L 302.073283 169.198879 
L 305.599545 163.859862 
L 309.125808 158.552036 
L 312.652071 153.29329 
L 316.178333 148.101463 
L 319.704596 142.994295 
L 323.230859 137.989387 
L 326.757121 133.104154 
L 330.283384 128.355782 
L 333.809646 123.761185 
L 337.335909 119.336967 
L 340.862172 115.099368 
L 344.388434 111.064241 
L 347.914697 107.246998 
L 351.44096 103.662581 
L 354.967222 100.325416 
L 358.493485 97.249382 
L 362.019747 94.44778 
L 365.54601 91.933296 
L 369.072273 89.717958 
L 372.598535 87.813126 
L 376.124798 86.229452 
L 379.651061 84.976859 
L 383.177323 84.064509 
L 386.703586 83.500789 
L 390.229848 83.293273 
L 393.756111 83.448728 
L 397.282374 83.973081 
L 400.808636 84.871404 
L 404.334899 86.147907 
L 407.861162 87.805922 
L 411.387424 89.847903 
L 414.913687 92.275413 
L 418.439949 95.089122 
L 421.966212 98.288801 
L 425.492475 101.87333 
L 429.018737 105.8407 
L 432.545 110.188013 
" clip-path="url(#p8653ba33ab)" style="fill: none; stroke: #4d4d4d; stroke-opacity: 0.75; stroke-width: 1.5; stroke-linecap: square"/>
   </g>
   <g id="line2d_50">
    <path d="M 83.445 118.323299 
L 86.971263 126.112896 
L 90.497525 133.906861 
L 94.023788 141.685925 
L 97.550051 149.430916 
L 101.076313 157.122808 
L 104.602576 164.742762 
L 108.128838 172.272186 
L 111.655101 179.692766 
L 115.181364 186.98652 
L 118.707626 194.135851 
L 122.233889 201.123565 
L 125.760152 207.932957 
L 129.286414 214.547794 
L 132.812677 220.952422 
L 136.338939 227.131749 
L 139.865202 233.071307 
L 143.391465 238.7573 
L 146.917727 244.176606 
L 150.44399 249.316848 
L 153.970253 254.166395 
L 157.496515 258.714408 
L 161.022778 262.950855 
L 164.54904 266.866527 
L 168.075303 270.453119 
L 171.601566 273.703169 
L 175.127828 276.610118 
L 178.654091 279.168352 
L 182.180354 281.37315 
L 185.706616 283.220769 
L 189.232879 284.708401 
L 192.759141 285.834189 
L 196.285404 286.59725 
L 199.811667 286.997669 
L 203.337929 287.036487 
L 206.864192 286.715722 
L 210.390455 286.038331 
L 213.916717 285.008246 
L 217.44298 283.63032 
L 220.969242 281.910333 
L 224.495505 279.854997 
L 228.021768 277.471913 
L 231.54803 274.769547 
L 235.074293 271.757248 
L 238.600556 268.445169 
L 242.126818 264.844302 
L 245.653081 260.966397 
L 249.179343 256.823964 
L 252.705606 252.430247 
L 256.231869 247.799144 
L 259.758131 242.945233 
L 263.284394 237.883698 
L 266.810657 232.630315 
L 270.336919 227.20137 
L 273.863182 221.61368 
L 277.389444 215.884491 
L 280.915707 210.031476 
L 284.44197 204.072678 
L 287.968232 198.026455 
L 291.494495 191.911446 
L 295.020758 185.746521 
L 298.54702 179.550742 
L 302.073283 173.343296 
L 305.599545 167.143465 
L 309.125808 160.970565 
L 312.652071 154.84391 
L 316.178333 148.782757 
L 319.704596 142.806255 
L 323.230859 136.933402 
L 326.757121 131.182999 
L 330.283384 125.573596 
L 333.809646 120.123452 
L 337.335909 114.850486 
L 340.862172 109.772236 
L 344.388434 104.905809 
L 347.914697 100.267843 
L 351.44096 95.874468 
L 354.967222 91.741252 
L 358.493485 87.883183 
L 362.019747 84.314616 
L 365.54601 81.049239 
L 369.072273 78.100042 
L 372.598535 75.479292 
L 376.124798 73.198481 
L 379.651061 71.268322 
L 383.177323 69.698704 
L 386.703586 68.498677 
L 390.229848 67.676423 
L 393.756111 67.239246 
L 397.282374 67.193539 
L 400.808636 67.544783 
L 404.334899 68.297515 
L 407.861162 69.45534 
L 411.387424 71.020904 
L 414.913687 72.995892 
L 418.439949 75.381027 
L 421.966212 78.176068 
L 425.492475 81.379802 
L 429.018737 84.990054 
L 432.545 89.003705 
" clip-path="url(#p8653ba33ab)" style="fill: none; stroke: #4d4d4d; stroke-opacity: 0.75; stroke-width: 1.5; stroke-linecap: square"/>
   </g>
   <g id="line2d_51">
    <path d="M 83.445 94.771084 
L 86.971263 101.364482 
L 90.497525 107.968461 
L 94.023788 114.56712 
L 97.550051 121.144643 
L 101.076313 127.685332 
L 104.602576 134.173648 
L 108.128838 140.594246 
L 111.655101 146.932019 
L 115.181364 153.172135 
L 118.707626 159.300067 
L 122.233889 165.301644 
L 125.760152 171.163064 
L 129.286414 176.870953 
L 132.812677 182.412382 
L 136.338939 187.774907 
L 139.865202 192.946594 
L 143.391465 197.916049 
L 146.917727 202.672466 
L 150.44399 207.205617 
L 153.970253 211.505907 
L 157.496515 215.564397 
L 161.022778 219.372804 
L 164.54904 222.923553 
L 168.075303 226.209765 
L 171.601566 229.225284 
L 175.127828 231.964731 
L 178.654091 234.423433 
L 182.180354 236.597532 
L 185.706616 238.483913 
L 189.232879 240.080256 
L 192.759141 241.385051 
L 196.285404 242.397567 
L 199.811667 243.117859 
L 203.337929 243.546799 
L 206.864192 243.686041 
L 210.390455 243.538033 
L 213.916717 243.106014 
L 217.44298 242.393991 
L 220.969242 241.406732 
L 224.495505 240.149774 
L 228.021768 238.629386 
L 231.54803 236.852562 
L 235.074293 234.827005 
L 238.600556 232.561098 
L 242.126818 230.063897 
L 245.653081 227.345117 
L 249.179343 224.415071 
L 252.705606 221.284665 
L 256.231869 217.965393 
L 259.758131 214.469276 
L 263.284394 210.808835 
L 266.810657 206.997088 
L 270.336919 203.047473 
L 273.863182 198.973859 
L 277.389444 194.790482 
L 280.915707 190.511919 
L 284.44197 186.153059 
L 287.968232 181.729041 
L 291.494495 177.255252 
L 295.020758 172.747256 
L 298.54702 168.220777 
L 302.073283 163.69165 
L 305.599545 159.175777 
L 309.125808 154.6891 
L 312.652071 150.247553 
L 316.178333 145.867021 
L 319.704596 141.563304 
L 323.230859 137.352077 
L 326.757121 133.248849 
L 330.283384 129.268926 
L 333.809646 125.427372 
L 337.335909 121.738971 
L 340.862172 118.218192 
L 344.388434 114.879149 
L 347.914697 111.735569 
L 351.44096 108.800758 
L 354.967222 106.087564 
L 358.493485 103.608348 
L 362.019747 101.374956 
L 365.54601 99.39868 
L 369.072273 97.690242 
L 372.598535 96.259753 
L 376.124798 95.116706 
L 379.651061 94.269927 
L 383.177323 93.727582 
L 386.703586 93.497143 
L 390.229848 93.585347 
L 393.756111 93.998229 
L 397.282374 94.741064 
L 400.808636 95.818367 
L 404.334899 97.233892 
L 407.861162 98.990603 
L 411.387424 101.090687 
L 414.913687 103.535536 
L 418.439949 106.325742 
L 421.966212 109.461107 
L 425.492475 112.940635 
L 429.018737 116.762531 
L 432.545 120.924215 
" clip-path="url(#p8653ba33ab)" style="fill: none; stroke: #4d4d4d; stroke-opacity: 0.75; stroke-width: 1.5; stroke-linecap: square"/>
   </g>
   <g id="line2d_52">
    <path d="M 83.445 105.036679 
L 86.971263 111.081421 
L 90.497525 117.13576 
L 94.023788 123.184244 
L 97.550051 129.211501 
L 101.076313 135.202277 
L 104.602576 141.141468 
L 108.128838 147.014165 
L 111.655101 152.805685 
L 115.181364 158.501612 
L 118.707626 164.087833 
L 122.233889 169.550568 
L 125.760152 174.876413 
L 129.286414 180.052363 
L 132.812677 185.065859 
L 136.338939 189.904806 
L 139.865202 194.557602 
L 143.391465 199.013179 
L 146.917727 203.261033 
L 150.44399 207.291221 
L 153.970253 211.094428 
L 157.496515 214.661958 
L 161.022778 217.985769 
L 164.54904 221.058487 
L 168.075303 223.873439 
L 171.601566 226.424644 
L 175.127828 228.706853 
L 178.654091 230.715554 
L 182.180354 232.446972 
L 185.706616 233.898095 
L 189.232879 235.066671 
L 192.759141 235.951216 
L 196.285404 236.551028 
L 199.811667 236.86617 
L 203.337929 236.89748 
L 206.864192 236.646571 
L 210.390455 236.115817 
L 213.916717 235.308363 
L 217.44298 234.228104 
L 220.969242 232.879685 
L 224.495505 231.268475 
L 228.021768 229.400566 
L 231.54803 227.28276 
L 235.074293 224.922549 
L 238.600556 222.328068 
L 242.126818 219.508122 
L 245.653081 216.472158 
L 249.179343 213.230183 
L 252.705606 209.792819 
L 256.231869 206.17122 
L 259.758131 202.377065 
L 263.284394 198.422537 
L 266.810657 194.320274 
L 270.336919 190.083349 
L 273.863182 185.725226 
L 277.389444 181.259752 
L 280.915707 176.701084 
L 284.44197 172.063694 
L 287.968232 167.3623 
L 291.494495 162.611848 
L 295.020758 157.82747 
L 298.54702 153.024444 
L 302.073283 148.218158 
L 305.599545 143.424069 
L 309.125808 138.657668 
L 312.652071 133.934439 
L 316.178333 129.269821 
L 319.704596 124.67917 
L 323.230859 120.177717 
L 326.757121 115.780537 
L 330.283384 111.502504 
L 333.809646 107.358255 
L 337.335909 103.362162 
L 340.862172 99.528283 
L 344.388434 95.870334 
L 347.914697 92.401656 
L 351.44096 89.135181 
L 354.967222 86.083397 
L 358.493485 83.258317 
L 362.019747 80.671448 
L 365.54601 78.333771 
L 369.072273 76.255694 
L 372.598535 74.447058 
L 376.124798 72.917078 
L 379.651061 71.674339 
L 383.177323 70.726775 
L 386.703586 70.081637 
L 390.229848 69.74549 
L 393.756111 69.724185 
L 397.282374 70.022857 
L 400.808636 70.645887 
L 404.334899 71.596924 
L 407.861162 72.878856 
L 411.387424 74.493802 
L 414.913687 76.443116 
L 418.439949 78.727376 
L 421.966212 81.346385 
L 425.492475 84.299172 
L 429.018737 87.584005 
L 432.545 91.198368 
" clip-path="url(#p8653ba33ab)" style="fill: none; stroke: #4d4d4d; stroke-opacity: 0.75; stroke-width: 1.5; stroke-linecap: square"/>
   </g>
   <g id="line2d_53">
    <path d="M 83.445 94.069811 
L 86.971263 100.252137 
L 90.497525 106.446231 
L 94.023788 112.636889 
L 97.550051 118.808968 
L 101.076313 124.94745 
L 104.602576 131.037463 
L 108.128838 137.064324 
L 111.655101 143.013577 
L 115.181364 148.871027 
L 118.707626 154.622776 
L 122.233889 160.255257 
L 125.760152 165.755269 
L 129.286414 171.110011 
L 132.812677 176.307109 
L 136.338939 181.334657 
L 139.865202 186.181229 
L 143.391465 190.835936 
L 146.917727 195.288425 
L 150.44399 199.528906 
L 153.970253 203.548212 
L 157.496515 207.337777 
L 161.022778 210.889676 
L 164.54904 214.196659 
L 168.075303 217.25215 
L 171.601566 220.05026 
L 175.127828 222.585819 
L 178.654091 224.854382 
L 182.180354 226.852243 
L 185.706616 228.576424 
L 189.232879 230.024723 
L 192.759141 231.195664 
L 196.285404 232.088553 
L 199.811667 232.703465 
L 203.337929 233.041208 
L 206.864192 233.103386 
L 210.390455 232.892337 
L 213.916717 232.411148 
L 217.44298 231.663666 
L 220.969242 230.654455 
L 224.495505 229.388806 
L 228.021768 227.872707 
L 231.54803 226.11288 
L 235.074293 224.116662 
L 238.600556 221.892107 
L 242.126818 219.447877 
L 245.653081 216.793241 
L 249.179343 213.938086 
L 252.705606 210.892858 
L 256.231869 207.668542 
L 259.758131 204.276646 
L 263.284394 200.729153 
L 266.810657 197.038515 
L 270.336919 193.217602 
L 273.863182 189.279677 
L 277.389444 185.238363 
L 280.915707 181.107615 
L 284.44197 176.901671 
L 287.968232 172.635032 
L 291.494495 168.322409 
L 295.020758 163.978707 
L 298.54702 159.618964 
L 302.073283 155.258338 
L 305.599545 150.912046 
L 309.125808 146.595342 
L 312.652071 142.323474 
L 316.178333 138.111644 
L 319.704596 133.974971 
L 323.230859 129.928455 
L 326.757121 125.986937 
L 330.283384 122.165065 
L 333.809646 118.477255 
L 337.335909 114.937651 
L 340.862172 111.5601 
L 344.388434 108.358112 
L 347.914697 105.344818 
L 351.44096 102.532953 
L 354.967222 99.934814 
L 358.493485 97.562226 
L 362.019747 95.426527 
L 365.54601 93.538523 
L 369.072273 91.908472 
L 372.598535 90.546055 
L 376.124798 89.460347 
L 379.651061 88.659806 
L 383.177323 88.152234 
L 386.703586 87.944789 
L 390.229848 88.043917 
L 393.756111 88.455392 
L 397.282374 89.184262 
L 400.808636 90.234844 
L 404.334899 91.610739 
L 407.861162 93.314775 
L 411.387424 95.34905 
L 414.913687 97.714889 
L 418.439949 100.412871 
L 421.966212 103.442796 
L 425.492475 106.803714 
L 429.018737 110.493907 
L 432.545 114.510908 
" clip-path="url(#p8653ba33ab)" style="fill: none; stroke: #4d4d4d; stroke-opacity: 0.75; stroke-width: 1.5; stroke-linecap: square"/>
   </g>
   <g id="line2d_54">
    <path d="M 83.445 108.103444 
L 86.971263 114.513271 
L 90.497525 120.933269 
L 94.023788 127.347575 
L 97.550051 133.74041 
L 101.076313 140.096109 
L 104.602576 146.399167 
L 108.128838 152.634276 
L 111.655101 158.786362 
L 115.181364 164.840626 
L 118.707626 170.782578 
L 122.233889 176.598068 
L 125.760152 182.273338 
L 129.286414 187.795034 
L 132.812677 193.150262 
L 136.338939 198.3266 
L 139.865202 203.312146 
L 143.391465 208.095536 
L 146.917727 212.665975 
L 150.44399 217.013268 
L 153.970253 221.127845 
L 157.496515 225.000766 
L 161.022778 228.623802 
L 164.54904 231.989358 
L 168.075303 235.090594 
L 171.601566 237.921361 
L 175.127828 240.476292 
L 178.654091 242.75073 
L 182.180354 244.74081 
L 185.706616 246.443433 
L 189.232879 247.856302 
L 192.759141 248.977875 
L 196.285404 249.807451 
L 199.811667 250.345074 
L 203.337929 250.59161 
L 206.864192 250.548719 
L 210.390455 250.21885 
L 213.916717 249.605214 
L 217.44298 248.711818 
L 220.969242 247.543421 
L 224.495505 246.10555 
L 228.021768 244.404456 
L 231.54803 242.447112 
L 235.074293 240.241206 
L 238.600556 237.795118 
L 242.126818 235.117877 
L 245.653081 232.219151 
L 249.179343 229.109262 
L 252.705606 225.799079 
L 256.231869 222.300062 
L 259.758131 218.624215 
L 263.284394 214.784039 
L 266.810657 210.792505 
L 270.336919 206.663033 
L 273.863182 202.409454 
L 277.389444 198.045972 
L 280.915707 193.587138 
L 284.44197 189.047797 
L 287.968232 184.443068 
L 291.494495 179.788291 
L 295.020758 175.099002 
L 298.54702 170.390887 
L 302.073283 165.679744 
L 305.599545 160.981445 
L 309.125808 156.311891 
L 312.652071 151.686979 
L 316.178333 147.122563 
L 319.704596 142.634406 
L 323.230859 138.238146 
L 326.757121 133.949259 
L 330.283384 129.783015 
L 333.809646 125.754445 
L 337.335909 121.878302 
L 340.862172 118.16902 
L 344.388434 114.640678 
L 347.914697 111.30698 
L 351.44096 108.181195 
L 354.967222 105.276147 
L 358.493485 102.604169 
L 362.019747 100.177077 
L 365.54601 98.006141 
L 369.072273 96.10205 
L 372.598535 94.474909 
L 376.124798 93.134172 
L 379.651061 92.088662 
L 383.177323 91.346516 
L 386.703586 90.915182 
L 390.229848 90.801403 
L 393.756111 91.011186 
L 397.282374 91.54979 
L 400.808636 92.421731 
L 404.334899 93.630748 
L 407.861162 95.179804 
L 411.387424 97.071078 
L 414.913687 99.305957 
L 418.439949 101.885032 
L 421.966212 104.808109 
L 425.492475 108.07419 
L 429.018737 111.681486 
L 432.545 115.627423 
" clip-path="url(#p8653ba33ab)" style="fill: none; stroke: #4d4d4d; stroke-opacity: 0.75; stroke-width: 1.5; stroke-linecap: square"/>
   </g>
   <g id="patch_3">
    <path d="M 65.99 300.04 
L 65.99 28.32 
" style="fill: none; stroke: #000000; stroke-width: 0.8; stroke-linejoin: miter; stroke-linecap: square"/>
   </g>
   <g id="patch_4">
    <path d="M 450 300.04 
L 450 28.32 
" style="fill: none; stroke: #000000; stroke-width: 0.8; stroke-linejoin: miter; stroke-linecap: square"/>
   </g>
   <g id="patch_5">
    <path d="M 65.99 300.04 
L 450 300.04 
" style="fill: none; stroke: #000000; stroke-width: 0.8; stroke-linejoin: miter; stroke-linecap: square"/>
   </g>
   <g id="patch_6">
    <path d="M 65.99 28.32 
L 450 28.32 
" style="fill: none; stroke: #000000; stroke-width: 0.8; stroke-linejoin: miter; stroke-linecap: square"/>
   </g>
   <g id="text_18">
    <!-- Unimodal Demonstrations -->
    <g transform="translate(140.53375 22.32)scale(0.16 -0.16)">
     <defs>
      <path id="DejaVuSans-Bold-55" d="M 588 4666 
L 1791 4666 
L 1791 1869 
Q 1791 1291 1980 1042 
Q 2169 794 2597 794 
Q 3028 794 3217 1042 
Q 3406 1291 3406 1869 
L 3406 4666 
L 4609 4666 
L 4609 1869 
Q 4609 878 4112 393 
Q 3616 -91 2597 -91 
Q 1581 -91 1084 393 
Q 588 878 588 1869 
L 588 4666 
z
" transform="scale(0.015625)"/>
      <path id="DejaVuSans-Bold-64" d="M 2919 2988 
L 2919 4863 
L 4044 4863 
L 4044 0 
L 2919 0 
L 2919 506 
Q 2688 197 2409 53 
Q 2131 -91 1766 -91 
Q 1119 -91 703 423 
Q 288 938 288 1747 
Q 288 2556 703 3070 
Q 1119 3584 1766 3584 
Q 2128 3584 2408 3439 
Q 2688 3294 2919 2988 
z
M 2181 722 
Q 2541 722 2730 984 
Q 2919 1247 2919 1747 
Q 2919 2247 2730 2509 
Q 2541 2772 2181 2772 
Q 1825 2772 1636 2509 
Q 1447 2247 1447 1747 
Q 1447 1247 1636 984 
Q 1825 722 2181 722 
z
" transform="scale(0.015625)"/>
      <path id="DejaVuSans-Bold-61" d="M 2106 1575 
Q 1756 1575 1579 1456 
Q 1403 1338 1403 1106 
Q 1403 894 1545 773 
Q 1688 653 1941 653 
Q 2256 653 2472 879 
Q 2688 1106 2688 1447 
L 2688 1575 
L 2106 1575 
z
M 3816 1997 
L 3816 0 
L 2688 0 
L 2688 519 
Q 2463 200 2181 54 
Q 1900 -91 1497 -91 
Q 953 -91 614 226 
Q 275 544 275 1050 
Q 275 1666 698 1953 
Q 1122 2241 2028 2241 
L 2688 2241 
L 2688 2328 
Q 2688 2594 2478 2717 
Q 2269 2841 1825 2841 
Q 1466 2841 1156 2769 
Q 847 2697 581 2553 
L 581 3406 
Q 941 3494 1303 3539 
Q 1666 3584 2028 3584 
Q 2975 3584 3395 3211 
Q 3816 2838 3816 1997 
z
" transform="scale(0.015625)"/>
      <path id="DejaVuSans-Bold-6c" d="M 538 4863 
L 1656 4863 
L 1656 0 
L 538 0 
L 538 4863 
z
" transform="scale(0.015625)"/>
      <path id="DejaVuSans-Bold-20" transform="scale(0.015625)"/>
      <path id="DejaVuSans-Bold-44" d="M 1791 3756 
L 1791 909 
L 2222 909 
Q 2959 909 3348 1275 
Q 3738 1641 3738 2338 
Q 3738 3031 3350 3393 
Q 2963 3756 2222 3756 
L 1791 3756 
z
M 588 4666 
L 1856 4666 
Q 2919 4666 3439 4514 
Q 3959 4363 4331 4000 
Q 4659 3684 4818 3271 
Q 4978 2859 4978 2338 
Q 4978 1809 4818 1395 
Q 4659 981 4331 666 
Q 3956 303 3431 151 
Q 2906 0 1856 0 
L 588 0 
L 588 4666 
z
" transform="scale(0.015625)"/>
      <path id="DejaVuSans-Bold-72" d="M 3138 2547 
Q 2991 2616 2845 2648 
Q 2700 2681 2553 2681 
Q 2122 2681 1889 2404 
Q 1656 2128 1656 1613 
L 1656 0 
L 538 0 
L 538 3500 
L 1656 3500 
L 1656 2925 
Q 1872 3269 2151 3426 
Q 2431 3584 2822 3584 
Q 2878 3584 2943 3579 
Q 3009 3575 3134 3559 
L 3138 2547 
z
" transform="scale(0.015625)"/>
     </defs>
     <use xlink:href="#DejaVuSans-Bold-55"/>
     <use xlink:href="#DejaVuSans-Bold-6e" x="81.201172"/>
     <use xlink:href="#DejaVuSans-Bold-69" x="152.392578"/>
     <use xlink:href="#DejaVuSans-Bold-6d" x="186.669922"/>
     <use xlink:href="#DejaVuSans-Bold-6f" x="290.869141"/>
     <use xlink:href="#DejaVuSans-Bold-64" x="359.570312"/>
     <use xlink:href="#DejaVuSans-Bold-61" x="431.152344"/>
     <use xlink:href="#DejaVuSans-Bold-6c" x="498.632812"/>
     <use xlink:href="#DejaVuSans-Bold-20" x="532.910156"/>
     <use xlink:href="#DejaVuSans-Bold-44" x="567.724609"/>
     <use xlink:href="#DejaVuSans-Bold-65" x="650.732422"/>
     <use xlink:href="#DejaVuSans-Bold-6d" x="718.554688"/>
     <use xlink:href="#DejaVuSans-Bold-6f" x="822.753906"/>
     <use xlink:href="#DejaVuSans-Bold-6e" x="891.455078"/>
     <use xlink:href="#DejaVuSans-Bold-73" x="962.646484"/>
     <use xlink:href="#DejaVuSans-Bold-74" x="1022.167969"/>
     <use xlink:href="#DejaVuSans-Bold-72" x="1069.970703"/>
     <use xlink:href="#DejaVuSans-Bold-61" x="1119.287109"/>
     <use xlink:href="#DejaVuSans-Bold-74" x="1186.767578"/>
     <use xlink:href="#DejaVuSans-Bold-69" x="1234.570312"/>
     <use xlink:href="#DejaVuSans-Bold-6f" x="1268.847656"/>
     <use xlink:href="#DejaVuSans-Bold-6e" x="1337.548828"/>
     <use xlink:href="#DejaVuSans-Bold-73" x="1408.740234"/>
    </g>
   </g>
   <g id="legend_1">
    <g id="patch_7">
     <path d="M 326.898438 295.04 
L 443 295.04 
Q 445 295.04 445 293.04 
L 445 279.361875 
Q 445 277.361875 443 277.361875 
L 326.898438 277.361875 
Q 324.898438 277.361875 324.898438 279.361875 
L 324.898438 293.04 
Q 324.898438 295.04 326.898438 295.04 
z
" style="fill: #ffffff; opacity: 0.9; stroke: #cccccc; stroke-linejoin: miter"/>
    </g>
    <g id="line2d_55">
     <path d="M 328.898438 285.460312 
L 338.898438 285.460312 
L 348.898438 285.460312 
" style="fill: none; stroke: #4d4d4d; stroke-opacity: 0.75; stroke-width: 1.5; stroke-linecap: square"/>
    </g>
    <g id="text_19">
     <!-- Demonstration -->
     <g transform="translate(356.898438 288.960312)scale(0.1 -0.1)">
      <use xlink:href="#DejaVuSans-Bold-44"/>
      <use xlink:href="#DejaVuSans-Bold-65" x="83.007812"/>
      <use xlink:href="#DejaVuSans-Bold-6d" x="150.830078"/>
      <use xlink:href="#DejaVuSans-Bold-6f" x="255.029297"/>
      <use xlink:href="#DejaVuSans-Bold-6e" x="323.730469"/>
      <use xlink:href="#DejaVuSans-Bold-73" x="394.921875"/>
      <use xlink:href="#DejaVuSans-Bold-74" x="454.443359"/>
      <use xlink:href="#DejaVuSans-Bold-72" x="502.246094"/>
      <use xlink:href="#DejaVuSans-Bold-61" x="551.5625"/>
      <use xlink:href="#DejaVuSans-Bold-74" x="619.042969"/>
      <use xlink:href="#DejaVuSans-Bold-69" x="666.845703"/>
      <use xlink:href="#DejaVuSans-Bold-6f" x="701.123047"/>
      <use xlink:href="#DejaVuSans-Bold-6e" x="769.824219"/>
     </g>
    </g>
   </g>
  </g>
 </g>
 <defs>
  <clipPath id="p8653ba33ab">
   <rect x="65.99" y="28.32" width="384.01" height="271.72"/>
  </clipPath>
 </defs>
</svg>
