<?xml version="1.0" encoding="utf-8" standalone="no"?>
<!DOCTYPE svg PUBLIC "-//W3C//DTD SVG 1.1//EN"
  "http://www.w3.org/Graphics/SVG/1.1/DTD/svg11.dtd">
<svg xmlns:xlink="http://www.w3.org/1999/xlink" width="460.8pt" height="345.6pt" viewBox="0 0 460.8 345.6" xmlns="http://www.w3.org/2000/svg" version="1.1">
 <metadata>
  <rdf:RDF xmlns:dc="http://purl.org/dc/elements/1.1/" xmlns:cc="http://creativecommons.org/ns#" xmlns:rdf="http://www.w3.org/1999/02/22-rdf-syntax-ns#">
   <cc:Work>
    <dc:type rdf:resource="http://purl.org/dc/dcmitype/StillImage"/>
    <dc:date>2024-06-07T19:35:38.260110</dc:date>
    <dc:format>image/svg+xml</dc:format>
    <dc:creator>
     <cc:Agent>
      <dc:title>Matplotlib v3.5.3, https://matplotlib.org/</dc:title>
     </cc:Agent>
    </dc:creator>
   </cc:Work>
  </rdf:RDF>
 </metadata>
 <defs>
  <style type="text/css">*{stroke-linejoin: round; stroke-linecap: butt}</style>
 </defs>
 <g id="figure_1">
  <g id="patch_1">
   <path d="M 0 345.6 
L 460.8 345.6 
L 460.8 0 
L 0 0 
z
" style="fill: #ffffff"/>
  </g>
  <g id="axes_1">
   <g id="patch_2">
    <path d="M 65.27 300.76 
L 450 300.76 
L 450 27.6 
L 65.27 27.6 
z
" style="fill: #ffffff"/>
   </g>
   <g id="matplotlib.axis_1">
    <g id="xtick_1">
     <g id="line2d_1">
      <path d="M 82.757727 300.76 
L 82.757727 27.6 
" clip-path="url(#p2a30b3f462)" style="fill: none; stroke: #b0b0b0; stroke-width: 0.8; stroke-linecap: square"/>
     </g>
     <g id="line2d_2">
      <defs>
       <path id="mee79d68666" d="M 0 0 
L 0 3.5 
" style="stroke: #000000; stroke-width: 0.8"/>
      </defs>
      <g>
       <use xlink:href="#mee79d68666" x="82.757727" y="300.76" style="stroke: #000000; stroke-width: 0.8"/>
      </g>
     </g>
     <g id="text_1">
      <!-- 0.0 -->
      <g transform="translate(74.806165 315.358437)scale(0.1 -0.1)">
       <defs>
        <path id="DejaVuSans-30" d="M 2034 4250 
Q 1547 4250 1301 3770 
Q 1056 3291 1056 2328 
Q 1056 1369 1301 889 
Q 1547 409 2034 409 
Q 2525 409 2770 889 
Q 3016 1369 3016 2328 
Q 3016 3291 2770 3770 
Q 2525 4250 2034 4250 
z
M 2034 4750 
Q 2819 4750 3233 4129 
Q 3647 3509 3647 2328 
Q 3647 1150 3233 529 
Q 2819 -91 2034 -91 
Q 1250 -91 836 529 
Q 422 1150 422 2328 
Q 422 3509 836 4129 
Q 1250 4750 2034 4750 
z
" transform="scale(0.015625)"/>
        <path id="DejaVuSans-2e" d="M 684 794 
L 1344 794 
L 1344 0 
L 684 0 
L 684 794 
z
" transform="scale(0.015625)"/>
       </defs>
       <use xlink:href="#DejaVuSans-30"/>
       <use xlink:href="#DejaVuSans-2e" x="63.623047"/>
       <use xlink:href="#DejaVuSans-30" x="95.410156"/>
      </g>
     </g>
    </g>
    <g id="xtick_2">
     <g id="line2d_3">
      <path d="M 152.708636 300.76 
L 152.708636 27.6 
" clip-path="url(#p2a30b3f462)" style="fill: none; stroke: #b0b0b0; stroke-width: 0.8; stroke-linecap: square"/>
     </g>
     <g id="line2d_4">
      <g>
       <use xlink:href="#mee79d68666" x="152.708636" y="300.76" style="stroke: #000000; stroke-width: 0.8"/>
      </g>
     </g>
     <g id="text_2">
      <!-- 0.2 -->
      <g transform="translate(144.757074 315.358437)scale(0.1 -0.1)">
       <defs>
        <path id="DejaVuSans-32" d="M 1228 531 
L 3431 531 
L 3431 0 
L 469 0 
L 469 531 
Q 828 903 1448 1529 
Q 2069 2156 2228 2338 
Q 2531 2678 2651 2914 
Q 2772 3150 2772 3378 
Q 2772 3750 2511 3984 
Q 2250 4219 1831 4219 
Q 1534 4219 1204 4116 
Q 875 4013 500 3803 
L 500 4441 
Q 881 4594 1212 4672 
Q 1544 4750 1819 4750 
Q 2544 4750 2975 4387 
Q 3406 4025 3406 3419 
Q 3406 3131 3298 2873 
Q 3191 2616 2906 2266 
Q 2828 2175 2409 1742 
Q 1991 1309 1228 531 
z
" transform="scale(0.015625)"/>
       </defs>
       <use xlink:href="#DejaVuSans-30"/>
       <use xlink:href="#DejaVuSans-2e" x="63.623047"/>
       <use xlink:href="#DejaVuSans-32" x="95.410156"/>
      </g>
     </g>
    </g>
    <g id="xtick_3">
     <g id="line2d_5">
      <path d="M 222.659545 300.76 
L 222.659545 27.6 
" clip-path="url(#p2a30b3f462)" style="fill: none; stroke: #b0b0b0; stroke-width: 0.8; stroke-linecap: square"/>
     </g>
     <g id="line2d_6">
      <g>
       <use xlink:href="#mee79d68666" x="222.659545" y="300.76" style="stroke: #000000; stroke-width: 0.8"/>
      </g>
     </g>
     <g id="text_3">
      <!-- 0.4 -->
      <g transform="translate(214.707983 315.358437)scale(0.1 -0.1)">
       <defs>
        <path id="DejaVuSans-34" d="M 2419 4116 
L 825 1625 
L 2419 1625 
L 2419 4116 
z
M 2253 4666 
L 3047 4666 
L 3047 1625 
L 3713 1625 
L 3713 1100 
L 3047 1100 
L 3047 0 
L 2419 0 
L 2419 1100 
L 313 1100 
L 313 1709 
L 2253 4666 
z
" transform="scale(0.015625)"/>
       </defs>
       <use xlink:href="#DejaVuSans-30"/>
       <use xlink:href="#DejaVuSans-2e" x="63.623047"/>
       <use xlink:href="#DejaVuSans-34" x="95.410156"/>
      </g>
     </g>
    </g>
    <g id="xtick_4">
     <g id="line2d_7">
      <path d="M 292.610455 300.76 
L 292.610455 27.6 
" clip-path="url(#p2a30b3f462)" style="fill: none; stroke: #b0b0b0; stroke-width: 0.8; stroke-linecap: square"/>
     </g>
     <g id="line2d_8">
      <g>
       <use xlink:href="#mee79d68666" x="292.610455" y="300.76" style="stroke: #000000; stroke-width: 0.8"/>
      </g>
     </g>
     <g id="text_4">
      <!-- 0.6 -->
      <g transform="translate(284.658892 315.358437)scale(0.1 -0.1)">
       <defs>
        <path id="DejaVuSans-36" d="M 2113 2584 
Q 1688 2584 1439 2293 
Q 1191 2003 1191 1497 
Q 1191 994 1439 701 
Q 1688 409 2113 409 
Q 2538 409 2786 701 
Q 3034 994 3034 1497 
Q 3034 2003 2786 2293 
Q 2538 2584 2113 2584 
z
M 3366 4563 
L 3366 3988 
Q 3128 4100 2886 4159 
Q 2644 4219 2406 4219 
Q 1781 4219 1451 3797 
Q 1122 3375 1075 2522 
Q 1259 2794 1537 2939 
Q 1816 3084 2150 3084 
Q 2853 3084 3261 2657 
Q 3669 2231 3669 1497 
Q 3669 778 3244 343 
Q 2819 -91 2113 -91 
Q 1303 -91 875 529 
Q 447 1150 447 2328 
Q 447 3434 972 4092 
Q 1497 4750 2381 4750 
Q 2619 4750 2861 4703 
Q 3103 4656 3366 4563 
z
" transform="scale(0.015625)"/>
       </defs>
       <use xlink:href="#DejaVuSans-30"/>
       <use xlink:href="#DejaVuSans-2e" x="63.623047"/>
       <use xlink:href="#DejaVuSans-36" x="95.410156"/>
      </g>
     </g>
    </g>
    <g id="xtick_5">
     <g id="line2d_9">
      <path d="M 362.561364 300.76 
L 362.561364 27.6 
" clip-path="url(#p2a30b3f462)" style="fill: none; stroke: #b0b0b0; stroke-width: 0.8; stroke-linecap: square"/>
     </g>
     <g id="line2d_10">
      <g>
       <use xlink:href="#mee79d68666" x="362.561364" y="300.76" style="stroke: #000000; stroke-width: 0.8"/>
      </g>
     </g>
     <g id="text_5">
      <!-- 0.8 -->
      <g transform="translate(354.609801 315.358437)scale(0.1 -0.1)">
       <defs>
        <path id="DejaVuSans-38" d="M 2034 2216 
Q 1584 2216 1326 1975 
Q 1069 1734 1069 1313 
Q 1069 891 1326 650 
Q 1584 409 2034 409 
Q 2484 409 2743 651 
Q 3003 894 3003 1313 
Q 3003 1734 2745 1975 
Q 2488 2216 2034 2216 
z
M 1403 2484 
Q 997 2584 770 2862 
Q 544 3141 544 3541 
Q 544 4100 942 4425 
Q 1341 4750 2034 4750 
Q 2731 4750 3128 4425 
Q 3525 4100 3525 3541 
Q 3525 3141 3298 2862 
Q 3072 2584 2669 2484 
Q 3125 2378 3379 2068 
Q 3634 1759 3634 1313 
Q 3634 634 3220 271 
Q 2806 -91 2034 -91 
Q 1263 -91 848 271 
Q 434 634 434 1313 
Q 434 1759 690 2068 
Q 947 2378 1403 2484 
z
M 1172 3481 
Q 1172 3119 1398 2916 
Q 1625 2713 2034 2713 
Q 2441 2713 2670 2916 
Q 2900 3119 2900 3481 
Q 2900 3844 2670 4047 
Q 2441 4250 2034 4250 
Q 1625 4250 1398 4047 
Q 1172 3844 1172 3481 
z
" transform="scale(0.015625)"/>
       </defs>
       <use xlink:href="#DejaVuSans-30"/>
       <use xlink:href="#DejaVuSans-2e" x="63.623047"/>
       <use xlink:href="#DejaVuSans-38" x="95.410156"/>
      </g>
     </g>
    </g>
    <g id="xtick_6">
     <g id="line2d_11">
      <path d="M 432.512273 300.76 
L 432.512273 27.6 
" clip-path="url(#p2a30b3f462)" style="fill: none; stroke: #b0b0b0; stroke-width: 0.8; stroke-linecap: square"/>
     </g>
     <g id="line2d_12">
      <g>
       <use xlink:href="#mee79d68666" x="432.512273" y="300.76" style="stroke: #000000; stroke-width: 0.8"/>
      </g>
     </g>
     <g id="text_6">
      <!-- 1.0 -->
      <g transform="translate(424.56071 315.358437)scale(0.1 -0.1)">
       <defs>
        <path id="DejaVuSans-31" d="M 794 531 
L 1825 531 
L 1825 4091 
L 703 3866 
L 703 4441 
L 1819 4666 
L 2450 4666 
L 2450 531 
L 3481 531 
L 3481 0 
L 794 0 
L 794 531 
z
" transform="scale(0.015625)"/>
       </defs>
       <use xlink:href="#DejaVuSans-31"/>
       <use xlink:href="#DejaVuSans-2e" x="63.623047"/>
       <use xlink:href="#DejaVuSans-30" x="95.410156"/>
      </g>
     </g>
    </g>
    <g id="text_7">
     <!-- Time -->
     <g transform="translate(242.954687 330.55625)scale(0.12 -0.12)">
      <defs>
       <path id="DejaVuSans-54" d="M -19 4666 
L 3928 4666 
L 3928 4134 
L 2272 4134 
L 2272 0 
L 1638 0 
L 1638 4134 
L -19 4134 
L -19 4666 
z
" transform="scale(0.015625)"/>
       <path id="DejaVuSans-69" d="M 603 3500 
L 1178 3500 
L 1178 0 
L 603 0 
L 603 3500 
z
M 603 4863 
L 1178 4863 
L 1178 4134 
L 603 4134 
L 603 4863 
z
" transform="scale(0.015625)"/>
       <path id="DejaVuSans-6d" d="M 3328 2828 
Q 3544 3216 3844 3400 
Q 4144 3584 4550 3584 
Q 5097 3584 5394 3201 
Q 5691 2819 5691 2113 
L 5691 0 
L 5113 0 
L 5113 2094 
Q 5113 2597 4934 2840 
Q 4756 3084 4391 3084 
Q 3944 3084 3684 2787 
Q 3425 2491 3425 1978 
L 3425 0 
L 2847 0 
L 2847 2094 
Q 2847 2600 2669 2842 
Q 2491 3084 2119 3084 
Q 1678 3084 1418 2786 
Q 1159 2488 1159 1978 
L 1159 0 
L 581 0 
L 581 3500 
L 1159 3500 
L 1159 2956 
Q 1356 3278 1631 3431 
Q 1906 3584 2284 3584 
Q 2666 3584 2933 3390 
Q 3200 3197 3328 2828 
z
" transform="scale(0.015625)"/>
       <path id="DejaVuSans-65" d="M 3597 1894 
L 3597 1613 
L 953 1613 
Q 991 1019 1311 708 
Q 1631 397 2203 397 
Q 2534 397 2845 478 
Q 3156 559 3463 722 
L 3463 178 
Q 3153 47 2828 -22 
Q 2503 -91 2169 -91 
Q 1331 -91 842 396 
Q 353 884 353 1716 
Q 353 2575 817 3079 
Q 1281 3584 2069 3584 
Q 2775 3584 3186 3129 
Q 3597 2675 3597 1894 
z
M 3022 2063 
Q 3016 2534 2758 2815 
Q 2500 3097 2075 3097 
Q 1594 3097 1305 2825 
Q 1016 2553 972 2059 
L 3022 2063 
z
" transform="scale(0.015625)"/>
      </defs>
      <use xlink:href="#DejaVuSans-54"/>
      <use xlink:href="#DejaVuSans-69" x="57.958984"/>
      <use xlink:href="#DejaVuSans-6d" x="85.742188"/>
      <use xlink:href="#DejaVuSans-65" x="183.154297"/>
     </g>
    </g>
   </g>
   <g id="matplotlib.axis_2">
    <g id="ytick_1">
     <g id="line2d_13">
      <path d="M 65.27 297.4379 
L 450 297.4379 
" clip-path="url(#p2a30b3f462)" style="fill: none; stroke: #b0b0b0; stroke-width: 0.8; stroke-linecap: square"/>
     </g>
     <g id="line2d_14">
      <defs>
       <path id="m3c2a1736d2" d="M 0 0 
L -3.5 0 
" style="stroke: #000000; stroke-width: 0.8"/>
      </defs>
      <g>
       <use xlink:href="#m3c2a1736d2" x="65.27" y="297.4379" style="stroke: #000000; stroke-width: 0.8"/>
      </g>
     </g>
     <g id="text_8">
      <!-- −0.25 -->
      <g transform="translate(27.624688 301.237118)scale(0.1 -0.1)">
       <defs>
        <path id="DejaVuSans-2212" d="M 678 2272 
L 4684 2272 
L 4684 1741 
L 678 1741 
L 678 2272 
z
" transform="scale(0.015625)"/>
        <path id="DejaVuSans-35" d="M 691 4666 
L 3169 4666 
L 3169 4134 
L 1269 4134 
L 1269 2991 
Q 1406 3038 1543 3061 
Q 1681 3084 1819 3084 
Q 2600 3084 3056 2656 
Q 3513 2228 3513 1497 
Q 3513 744 3044 326 
Q 2575 -91 1722 -91 
Q 1428 -91 1123 -41 
Q 819 9 494 109 
L 494 744 
Q 775 591 1075 516 
Q 1375 441 1709 441 
Q 2250 441 2565 725 
Q 2881 1009 2881 1497 
Q 2881 1984 2565 2268 
Q 2250 2553 1709 2553 
Q 1456 2553 1204 2497 
Q 953 2441 691 2322 
L 691 4666 
z
" transform="scale(0.015625)"/>
       </defs>
       <use xlink:href="#DejaVuSans-2212"/>
       <use xlink:href="#DejaVuSans-30" x="83.789062"/>
       <use xlink:href="#DejaVuSans-2e" x="147.412109"/>
       <use xlink:href="#DejaVuSans-32" x="179.199219"/>
       <use xlink:href="#DejaVuSans-35" x="242.822266"/>
      </g>
     </g>
    </g>
    <g id="ytick_2">
     <g id="line2d_15">
      <path d="M 65.27 265.778837 
L 450 265.778837 
" clip-path="url(#p2a30b3f462)" style="fill: none; stroke: #b0b0b0; stroke-width: 0.8; stroke-linecap: square"/>
     </g>
     <g id="line2d_16">
      <g>
       <use xlink:href="#m3c2a1736d2" x="65.27" y="265.778837" style="stroke: #000000; stroke-width: 0.8"/>
      </g>
     </g>
     <g id="text_9">
      <!-- −0.20 -->
      <g transform="translate(27.624688 269.578056)scale(0.1 -0.1)">
       <use xlink:href="#DejaVuSans-2212"/>
       <use xlink:href="#DejaVuSans-30" x="83.789062"/>
       <use xlink:href="#DejaVuSans-2e" x="147.412109"/>
       <use xlink:href="#DejaVuSans-32" x="179.199219"/>
       <use xlink:href="#DejaVuSans-30" x="242.822266"/>
      </g>
     </g>
    </g>
    <g id="ytick_3">
     <g id="line2d_17">
      <path d="M 65.27 234.119775 
L 450 234.119775 
" clip-path="url(#p2a30b3f462)" style="fill: none; stroke: #b0b0b0; stroke-width: 0.8; stroke-linecap: square"/>
     </g>
     <g id="line2d_18">
      <g>
       <use xlink:href="#m3c2a1736d2" x="65.27" y="234.119775" style="stroke: #000000; stroke-width: 0.8"/>
      </g>
     </g>
     <g id="text_10">
      <!-- −0.15 -->
      <g transform="translate(27.624688 237.918994)scale(0.1 -0.1)">
       <use xlink:href="#DejaVuSans-2212"/>
       <use xlink:href="#DejaVuSans-30" x="83.789062"/>
       <use xlink:href="#DejaVuSans-2e" x="147.412109"/>
       <use xlink:href="#DejaVuSans-31" x="179.199219"/>
       <use xlink:href="#DejaVuSans-35" x="242.822266"/>
      </g>
     </g>
    </g>
    <g id="ytick_4">
     <g id="line2d_19">
      <path d="M 65.27 202.460713 
L 450 202.460713 
" clip-path="url(#p2a30b3f462)" style="fill: none; stroke: #b0b0b0; stroke-width: 0.8; stroke-linecap: square"/>
     </g>
     <g id="line2d_20">
      <g>
       <use xlink:href="#m3c2a1736d2" x="65.27" y="202.460713" style="stroke: #000000; stroke-width: 0.8"/>
      </g>
     </g>
     <g id="text_11">
      <!-- −0.10 -->
      <g transform="translate(27.624688 206.259932)scale(0.1 -0.1)">
       <use xlink:href="#DejaVuSans-2212"/>
       <use xlink:href="#DejaVuSans-30" x="83.789062"/>
       <use xlink:href="#DejaVuSans-2e" x="147.412109"/>
       <use xlink:href="#DejaVuSans-31" x="179.199219"/>
       <use xlink:href="#DejaVuSans-30" x="242.822266"/>
      </g>
     </g>
    </g>
    <g id="ytick_5">
     <g id="line2d_21">
      <path d="M 65.27 170.801651 
L 450 170.801651 
" clip-path="url(#p2a30b3f462)" style="fill: none; stroke: #b0b0b0; stroke-width: 0.8; stroke-linecap: square"/>
     </g>
     <g id="line2d_22">
      <g>
       <use xlink:href="#m3c2a1736d2" x="65.27" y="170.801651" style="stroke: #000000; stroke-width: 0.8"/>
      </g>
     </g>
     <g id="text_12">
      <!-- −0.05 -->
      <g transform="translate(27.624688 174.60087)scale(0.1 -0.1)">
       <use xlink:href="#DejaVuSans-2212"/>
       <use xlink:href="#DejaVuSans-30" x="83.789062"/>
       <use xlink:href="#DejaVuSans-2e" x="147.412109"/>
       <use xlink:href="#DejaVuSans-30" x="179.199219"/>
       <use xlink:href="#DejaVuSans-35" x="242.822266"/>
      </g>
     </g>
    </g>
    <g id="ytick_6">
     <g id="line2d_23">
      <path d="M 65.27 139.142589 
L 450 139.142589 
" clip-path="url(#p2a30b3f462)" style="fill: none; stroke: #b0b0b0; stroke-width: 0.8; stroke-linecap: square"/>
     </g>
     <g id="line2d_24">
      <g>
       <use xlink:href="#m3c2a1736d2" x="65.27" y="139.142589" style="stroke: #000000; stroke-width: 0.8"/>
      </g>
     </g>
     <g id="text_13">
      <!-- 0.00 -->
      <g transform="translate(36.004375 142.941808)scale(0.1 -0.1)">
       <use xlink:href="#DejaVuSans-30"/>
       <use xlink:href="#DejaVuSans-2e" x="63.623047"/>
       <use xlink:href="#DejaVuSans-30" x="95.410156"/>
       <use xlink:href="#DejaVuSans-30" x="159.033203"/>
      </g>
     </g>
    </g>
    <g id="ytick_7">
     <g id="line2d_25">
      <path d="M 65.27 107.483527 
L 450 107.483527 
" clip-path="url(#p2a30b3f462)" style="fill: none; stroke: #b0b0b0; stroke-width: 0.8; stroke-linecap: square"/>
     </g>
     <g id="line2d_26">
      <g>
       <use xlink:href="#m3c2a1736d2" x="65.27" y="107.483527" style="stroke: #000000; stroke-width: 0.8"/>
      </g>
     </g>
     <g id="text_14">
      <!-- 0.05 -->
      <g transform="translate(36.004375 111.282745)scale(0.1 -0.1)">
       <use xlink:href="#DejaVuSans-30"/>
       <use xlink:href="#DejaVuSans-2e" x="63.623047"/>
       <use xlink:href="#DejaVuSans-30" x="95.410156"/>
       <use xlink:href="#DejaVuSans-35" x="159.033203"/>
      </g>
     </g>
    </g>
    <g id="ytick_8">
     <g id="line2d_27">
      <path d="M 65.27 75.824464 
L 450 75.824464 
" clip-path="url(#p2a30b3f462)" style="fill: none; stroke: #b0b0b0; stroke-width: 0.8; stroke-linecap: square"/>
     </g>
     <g id="line2d_28">
      <g>
       <use xlink:href="#m3c2a1736d2" x="65.27" y="75.824464" style="stroke: #000000; stroke-width: 0.8"/>
      </g>
     </g>
     <g id="text_15">
      <!-- 0.10 -->
      <g transform="translate(36.004375 79.623683)scale(0.1 -0.1)">
       <use xlink:href="#DejaVuSans-30"/>
       <use xlink:href="#DejaVuSans-2e" x="63.623047"/>
       <use xlink:href="#DejaVuSans-31" x="95.410156"/>
       <use xlink:href="#DejaVuSans-30" x="159.033203"/>
      </g>
     </g>
    </g>
    <g id="ytick_9">
     <g id="line2d_29">
      <path d="M 65.27 44.165402 
L 450 44.165402 
" clip-path="url(#p2a30b3f462)" style="fill: none; stroke: #b0b0b0; stroke-width: 0.8; stroke-linecap: square"/>
     </g>
     <g id="line2d_30">
      <g>
       <use xlink:href="#m3c2a1736d2" x="65.27" y="44.165402" style="stroke: #000000; stroke-width: 0.8"/>
      </g>
     </g>
     <g id="text_16">
      <!-- 0.15 -->
      <g transform="translate(36.004375 47.964621)scale(0.1 -0.1)">
       <use xlink:href="#DejaVuSans-30"/>
       <use xlink:href="#DejaVuSans-2e" x="63.623047"/>
       <use xlink:href="#DejaVuSans-31" x="95.410156"/>
       <use xlink:href="#DejaVuSans-35" x="159.033203"/>
      </g>
     </g>
    </g>
    <g id="text_17">
     <!-- Position -->
     <g transform="translate(21.129063 187.536875)rotate(-90)scale(0.12 -0.12)">
      <defs>
       <path id="DejaVuSans-50" d="M 1259 4147 
L 1259 2394 
L 2053 2394 
Q 2494 2394 2734 2622 
Q 2975 2850 2975 3272 
Q 2975 3691 2734 3919 
Q 2494 4147 2053 4147 
L 1259 4147 
z
M 628 4666 
L 2053 4666 
Q 2838 4666 3239 4311 
Q 3641 3956 3641 3272 
Q 3641 2581 3239 2228 
Q 2838 1875 2053 1875 
L 1259 1875 
L 1259 0 
L 628 0 
L 628 4666 
z
" transform="scale(0.015625)"/>
       <path id="DejaVuSans-6f" d="M 1959 3097 
Q 1497 3097 1228 2736 
Q 959 2375 959 1747 
Q 959 1119 1226 758 
Q 1494 397 1959 397 
Q 2419 397 2687 759 
Q 2956 1122 2956 1747 
Q 2956 2369 2687 2733 
Q 2419 3097 1959 3097 
z
M 1959 3584 
Q 2709 3584 3137 3096 
Q 3566 2609 3566 1747 
Q 3566 888 3137 398 
Q 2709 -91 1959 -91 
Q 1206 -91 779 398 
Q 353 888 353 1747 
Q 353 2609 779 3096 
Q 1206 3584 1959 3584 
z
" transform="scale(0.015625)"/>
       <path id="DejaVuSans-73" d="M 2834 3397 
L 2834 2853 
Q 2591 2978 2328 3040 
Q 2066 3103 1784 3103 
Q 1356 3103 1142 2972 
Q 928 2841 928 2578 
Q 928 2378 1081 2264 
Q 1234 2150 1697 2047 
L 1894 2003 
Q 2506 1872 2764 1633 
Q 3022 1394 3022 966 
Q 3022 478 2636 193 
Q 2250 -91 1575 -91 
Q 1294 -91 989 -36 
Q 684 19 347 128 
L 347 722 
Q 666 556 975 473 
Q 1284 391 1588 391 
Q 1994 391 2212 530 
Q 2431 669 2431 922 
Q 2431 1156 2273 1281 
Q 2116 1406 1581 1522 
L 1381 1569 
Q 847 1681 609 1914 
Q 372 2147 372 2553 
Q 372 3047 722 3315 
Q 1072 3584 1716 3584 
Q 2034 3584 2315 3537 
Q 2597 3491 2834 3397 
z
" transform="scale(0.015625)"/>
       <path id="DejaVuSans-74" d="M 1172 4494 
L 1172 3500 
L 2356 3500 
L 2356 3053 
L 1172 3053 
L 1172 1153 
Q 1172 725 1289 603 
Q 1406 481 1766 481 
L 2356 481 
L 2356 0 
L 1766 0 
Q 1100 0 847 248 
Q 594 497 594 1153 
L 594 3053 
L 172 3053 
L 172 3500 
L 594 3500 
L 594 4494 
L 1172 4494 
z
" transform="scale(0.015625)"/>
       <path id="DejaVuSans-6e" d="M 3513 2113 
L 3513 0 
L 2938 0 
L 2938 2094 
Q 2938 2591 2744 2837 
Q 2550 3084 2163 3084 
Q 1697 3084 1428 2787 
Q 1159 2491 1159 1978 
L 1159 0 
L 581 0 
L 581 3500 
L 1159 3500 
L 1159 2956 
Q 1366 3272 1645 3428 
Q 1925 3584 2291 3584 
Q 2894 3584 3203 3211 
Q 3513 2838 3513 2113 
z
" transform="scale(0.015625)"/>
      </defs>
      <use xlink:href="#DejaVuSans-50"/>
      <use xlink:href="#DejaVuSans-6f" x="56.677734"/>
      <use xlink:href="#DejaVuSans-73" x="117.859375"/>
      <use xlink:href="#DejaVuSans-69" x="169.958984"/>
      <use xlink:href="#DejaVuSans-74" x="197.742188"/>
      <use xlink:href="#DejaVuSans-69" x="236.951172"/>
      <use xlink:href="#DejaVuSans-6f" x="264.734375"/>
      <use xlink:href="#DejaVuSans-6e" x="325.916016"/>
     </g>
    </g>
   </g>
   <g id="line2d_31">
    <path d="M 82.757727 102.517279 
L 86.290601 109.362569 
L 89.823476 116.207682 
L 93.35635 123.03564 
L 96.889224 129.829548 
L 100.422098 136.572644 
L 103.954972 143.24833 
L 107.487847 149.840221 
L 111.020721 156.332183 
L 114.553595 162.708374 
L 118.086469 168.953285 
L 121.619343 175.051772 
L 125.152218 180.989105 
L 128.685092 186.750996 
L 132.217966 192.323637 
L 135.75084 197.693739 
L 139.283714 202.848559 
L 142.816589 207.775932 
L 146.349463 212.464303 
L 149.882337 216.90276 
L 153.415211 221.081063 
L 156.948085 224.989653 
L 160.48096 228.61968 
L 164.013834 231.963067 
L 167.546708 235.012466 
L 171.079582 237.761307 
L 174.612456 240.203819 
L 178.145331 242.335046 
L 181.678205 244.150838 
L 185.211079 245.647892 
L 188.743953 246.823718 
L 192.276827 247.67671 
L 195.809702 248.206069 
L 199.342576 248.411877 
L 202.87545 248.295061 
L 206.408324 247.857374 
L 209.941198 247.10145 
L 213.474073 246.030732 
L 217.006947 244.649504 
L 220.539821 242.96286 
L 224.072695 240.976717 
L 227.605569 238.697754 
L 231.138444 236.133454 
L 234.671318 233.292035 
L 238.204192 230.182469 
L 241.737066 226.814408 
L 245.26994 223.198232 
L 248.802815 219.344951 
L 252.335689 215.266227 
L 255.868563 210.97432 
L 259.401437 206.482073 
L 262.934311 201.802863 
L 266.467185 196.950581 
L 270.00006 191.939594 
L 273.532934 186.784698 
L 277.065808 181.501107 
L 280.598682 176.104389 
L 284.131556 170.610432 
L 287.664431 165.03542 
L 291.197305 159.395773 
L 294.730179 153.708124 
L 298.263053 147.989259 
L 301.795927 142.256087 
L 305.328802 136.525597 
L 308.861676 130.814812 
L 312.39455 125.140747 
L 315.927424 119.520369 
L 319.460298 113.97055 
L 322.993173 108.508031 
L 326.526047 103.149376 
L 330.058921 97.910932 
L 333.591795 92.808784 
L 337.124669 87.85872 
L 340.657544 83.076196 
L 344.190418 78.476284 
L 347.723292 74.073642 
L 351.256166 69.882484 
L 354.78904 65.916528 
L 358.321915 62.188975 
L 361.854789 58.712481 
L 365.387663 55.499101 
L 368.920537 52.560282 
L 372.453411 49.90683 
L 375.986286 47.548876 
L 379.51916 45.495856 
L 383.052034 43.75648 
L 386.584908 42.338728 
L 390.117782 41.24981 
L 393.650657 40.49615 
L 397.183531 40.0834 
L 400.716405 40.016364 
L 404.249279 40.299069 
L 407.782153 40.934667 
L 411.315028 41.925507 
L 414.847902 43.273061 
L 418.380776 44.977962 
L 421.91365 47.04002 
L 425.446524 49.458142 
L 428.979399 52.23043 
L 432.512273 55.35412 
" clip-path="url(#p2a30b3f462)" style="fill: none; stroke: #1f77b4; stroke-opacity: 0.6; stroke-width: 1.5; stroke-linecap: square"/>
   </g>
   <g id="line2d_32">
    <path d="M 82.757727 102.363462 
L 86.290601 109.260929 
L 89.823476 116.170831 
L 93.35635 123.075879 
L 96.889224 129.958873 
L 100.422098 136.80274 
L 103.954972 143.590578 
L 107.487847 150.305702 
L 111.020721 156.931683 
L 114.553595 163.452388 
L 118.086469 169.852022 
L 121.619343 176.115168 
L 125.152218 182.22682 
L 128.685092 188.172432 
L 132.217966 193.937946 
L 135.75084 199.509823 
L 139.283714 204.875085 
L 142.816589 210.021348 
L 146.349463 214.936851 
L 149.882337 219.610474 
L 153.415211 224.031788 
L 156.948085 228.19106 
L 160.48096 232.079289 
L 164.013834 235.688238 
L 167.546708 239.010416 
L 171.079582 242.039151 
L 174.612456 244.768556 
L 178.145331 247.193594 
L 181.678205 249.310027 
L 185.211079 251.114497 
L 188.743953 252.604474 
L 192.276827 253.7783 
L 195.809702 254.635199 
L 199.342576 255.175219 
L 202.87545 255.399312 
L 206.408324 255.309282 
L 209.941198 254.907799 
L 213.474073 254.198361 
L 217.006947 253.185339 
L 220.539821 251.873921 
L 224.072695 250.270127 
L 227.605569 248.38077 
L 231.138444 246.213453 
L 234.671318 243.776565 
L 238.204192 241.07922 
L 241.737066 238.131269 
L 245.26994 234.943268 
L 248.802815 231.526438 
L 252.335689 227.892637 
L 255.868563 224.054376 
L 259.401437 220.024715 
L 262.934311 215.817276 
L 266.467185 211.446214 
L 270.00006 206.926151 
L 273.532934 202.272162 
L 277.065808 197.499734 
L 280.598682 192.624722 
L 284.131556 187.663308 
L 287.664431 182.63197 
L 291.197305 177.547429 
L 294.730179 172.426622 
L 298.263053 167.286646 
L 301.795927 162.144716 
L 305.328802 157.018136 
L 308.861676 151.924239 
L 312.39455 146.880352 
L 315.927424 141.903752 
L 319.460298 137.011624 
L 322.993173 132.221013 
L 326.526047 127.548787 
L 330.058921 123.011591 
L 333.591795 118.625808 
L 337.124669 114.407517 
L 340.657544 110.372452 
L 344.190418 106.535963 
L 347.723292 102.912979 
L 351.256166 99.517972 
L 354.78904 96.36491 
L 358.321915 93.467247 
L 361.854789 90.837854 
L 365.387663 88.489015 
L 368.920537 86.432391 
L 372.453411 84.678985 
L 375.986286 83.239107 
L 379.51916 82.122369 
L 383.052034 81.337645 
L 386.584908 80.893056 
L 390.117782 80.79595 
L 393.650657 81.052864 
L 397.183531 81.669549 
L 400.716405 82.650912 
L 404.249279 84.001037 
L 407.782153 85.723148 
L 411.315028 87.819621 
L 414.847902 90.291966 
L 418.380776 93.140839 
L 421.91365 96.366014 
L 425.446524 99.966412 
L 428.979399 103.940081 
L 432.512273 108.284213 
" clip-path="url(#p2a30b3f462)" style="fill: none; stroke: #1f77b4; stroke-opacity: 0.6; stroke-width: 1.5; stroke-linecap: square"/>
   </g>
   <g id="line2d_33">
    <path d="M 82.757727 113.186594 
L 86.290601 120.164833 
L 89.823476 127.154882 
L 93.35635 134.139602 
L 96.889224 141.10194 
L 100.422098 148.024971 
L 103.954972 154.891943 
L 107.487847 161.686312 
L 111.020721 168.391793 
L 114.553595 174.992394 
L 118.086469 181.472453 
L 121.619343 187.816695 
L 125.152218 194.010238 
L 128.685092 200.038663 
L 132.217966 205.888027 
L 135.75084 211.544924 
L 139.283714 216.996479 
L 142.816589 222.230413 
L 146.349463 227.235074 
L 149.882337 231.99944 
L 153.415211 236.513162 
L 156.948085 240.766596 
L 160.48096 244.750828 
L 164.013834 248.457676 
L 167.546708 251.879733 
L 171.079582 255.010368 
L 174.612456 257.843758 
L 178.145331 260.374894 
L 181.678205 262.599595 
L 185.211079 264.514512 
L 188.743953 266.117146 
L 192.276827 267.405862 
L 195.809702 268.37987 
L 199.342576 269.039245 
L 202.87545 269.38492 
L 206.408324 269.418669 
L 209.941198 269.143145 
L 213.474073 268.561817 
L 217.006947 267.679028 
L 220.539821 266.49992 
L 224.072695 265.030444 
L 227.605569 263.277377 
L 231.138444 261.248238 
L 234.671318 258.951349 
L 238.204192 256.395738 
L 241.737066 253.591182 
L 245.26994 250.548143 
L 248.802815 247.277736 
L 252.335689 243.791727 
L 255.868563 240.102514 
L 259.401437 236.223031 
L 262.934311 232.16681 
L 266.467185 227.94786 
L 270.00006 223.580695 
L 273.532934 219.080239 
L 277.065808 214.461848 
L 280.598682 209.741252 
L 284.131556 204.934479 
L 287.664431 200.057873 
L 291.197305 195.12801 
L 294.730179 190.161675 
L 298.263053 185.175819 
L 301.795927 180.18751 
L 305.328802 175.213898 
L 308.861676 170.272166 
L 312.39455 165.379491 
L 315.927424 160.553004 
L 319.460298 155.809735 
L 322.993173 151.166584 
L 326.526047 146.640272 
L 330.058921 142.247301 
L 333.591795 138.003911 
L 337.124669 133.92604 
L 340.657544 130.029286 
L 344.190418 126.328868 
L 347.723292 122.839583 
L 351.256166 119.575779 
L 354.78904 116.551305 
L 358.321915 113.779488 
L 361.854789 111.273099 
L 365.387663 109.044315 
L 368.920537 107.104687 
L 372.453411 105.465127 
L 375.986286 104.135857 
L 379.51916 103.126406 
L 383.052034 102.445572 
L 386.584908 102.101399 
L 390.117782 102.101173 
L 393.650657 102.451384 
L 397.183531 103.157719 
L 400.716405 104.225055 
L 404.249279 105.657429 
L 407.782153 107.458044 
L 411.315028 109.629255 
L 414.847902 112.172562 
L 418.380776 115.088606 
L 421.91365 118.377174 
L 425.446524 122.037184 
L 428.979399 126.06671 
L 432.512273 130.462968 
" clip-path="url(#p2a30b3f462)" style="fill: none; stroke: #1f77b4; stroke-opacity: 0.6; stroke-width: 1.5; stroke-linecap: square"/>
   </g>
   <g id="line2d_34">
    <path d="M 82.757727 109.908792 
L 86.290601 116.440268 
L 89.823476 122.981425 
L 93.35635 129.51642 
L 96.889224 136.029487 
L 100.422098 142.50498 
L 103.954972 148.92741 
L 107.487847 155.281484 
L 111.020721 161.552147 
L 114.553595 167.724611 
L 118.086469 173.784402 
L 121.619343 179.71739 
L 125.152218 185.509827 
L 128.685092 191.148373 
L 132.217966 196.620153 
L 135.75084 201.91275 
L 139.283714 207.01428 
L 142.816589 211.91339 
L 146.349463 216.599293 
L 149.882337 221.061806 
L 153.415211 225.291379 
L 156.948085 229.279073 
L 160.48096 233.016651 
L 164.013834 236.496565 
L 167.546708 239.711946 
L 171.079582 242.65668 
L 174.612456 245.325371 
L 178.145331 247.713404 
L 181.678205 249.816892 
L 185.211079 251.632759 
L 188.743953 253.158685 
L 192.276827 254.393159 
L 195.809702 255.335455 
L 199.342576 255.985631 
L 202.87545 256.344562 
L 206.408324 256.413882 
L 209.941198 256.196044 
L 213.474073 255.694264 
L 217.006947 254.912544 
L 220.539821 253.855649 
L 224.072695 252.529069 
L 227.605569 250.939069 
L 231.138444 249.092622 
L 234.671318 246.99739 
L 238.204192 244.661751 
L 241.737066 242.094714 
L 245.26994 239.305971 
L 248.802815 236.305787 
L 252.335689 233.105058 
L 255.868563 229.715222 
L 259.401437 226.14825 
L 262.934311 222.416644 
L 266.467185 218.533369 
L 270.00006 214.511821 
L 273.532934 210.36582 
L 277.065808 206.109559 
L 280.598682 201.757565 
L 284.131556 197.32467 
L 287.664431 192.825978 
L 291.197305 188.276813 
L 294.730179 183.692696 
L 298.263053 179.089293 
L 301.795927 174.482388 
L 305.328802 169.887835 
L 308.861676 165.321519 
L 312.39455 160.79932 
L 315.927424 156.337075 
L 319.460298 151.950531 
L 322.993173 147.655309 
L 326.526047 143.466868 
L 330.058921 139.400464 
L 333.591795 135.471111 
L 337.124669 131.693544 
L 340.657544 128.082184 
L 344.190418 124.651098 
L 347.723292 121.413969 
L 351.256166 118.384056 
L 354.78904 115.574172 
L 358.321915 112.996629 
L 361.854789 110.663238 
L 365.387663 108.585255 
L 368.920537 106.77336 
L 372.453411 105.237638 
L 375.986286 103.987547 
L 379.51916 103.031888 
L 383.052034 102.378795 
L 386.584908 102.035709 
L 390.117782 102.009367 
L 393.650657 102.305762 
L 397.183531 102.93016 
L 400.716405 103.887062 
L 404.249279 105.180204 
L 407.782153 106.812549 
L 411.315028 108.786271 
L 414.847902 111.102759 
L 418.380776 113.762604 
L 421.91365 116.765605 
L 425.446524 120.110772 
L 428.979399 123.796317 
L 432.512273 127.819668 
" clip-path="url(#p2a30b3f462)" style="fill: none; stroke: #1f77b4; stroke-opacity: 0.6; stroke-width: 1.5; stroke-linecap: square"/>
   </g>
   <g id="line2d_35">
    <path d="M 82.757727 98.751301 
L 86.290601 104.754121 
L 89.823476 110.765977 
L 93.35635 116.77203 
L 96.889224 122.757518 
L 100.422098 128.707786 
L 103.954972 134.60833 
L 107.487847 140.444828 
L 111.020721 146.203178 
L 114.553595 151.869534 
L 118.086469 157.43034 
L 121.619343 162.872361 
L 125.152218 168.182724 
L 128.685092 173.34894 
L 132.217966 178.358938 
L 135.75084 183.201106 
L 139.283714 187.864304 
L 142.816589 192.337898 
L 146.349463 196.611798 
L 149.882337 200.676459 
L 153.415211 204.522928 
L 156.948085 208.142855 
L 160.48096 211.528516 
L 164.013834 214.672832 
L 167.546708 217.569381 
L 171.079582 220.212436 
L 174.612456 222.59694 
L 178.145331 224.718572 
L 181.678205 226.573699 
L 185.211079 228.159434 
L 188.743953 229.473607 
L 192.276827 230.514793 
L 195.809702 231.282322 
L 199.342576 231.776252 
L 202.87545 231.997383 
L 206.408324 231.947273 
L 209.941198 231.628205 
L 213.474073 231.043189 
L 217.006947 230.19597 
L 220.539821 229.091012 
L 224.072695 227.733466 
L 227.605569 226.129191 
L 231.138444 224.284716 
L 234.671318 222.207231 
L 238.204192 219.904568 
L 241.737066 217.385165 
L 245.26994 214.658094 
L 248.802815 211.732985 
L 252.335689 208.620027 
L 255.868563 205.329934 
L 259.401437 201.873934 
L 262.934311 198.263711 
L 266.467185 194.511419 
L 270.00006 190.629601 
L 273.532934 186.631203 
L 277.065808 182.529509 
L 280.598682 178.338131 
L 284.131556 174.070961 
L 287.664431 169.742138 
L 291.197305 165.366018 
L 294.730179 160.957132 
L 298.263053 156.530157 
L 301.795927 152.099871 
L 305.328802 147.681121 
L 308.861676 143.288785 
L 312.39455 138.937737 
L 315.927424 134.642804 
L 319.460298 130.418735 
L 322.993173 126.280161 
L 326.526047 122.241559 
L 330.058921 118.317213 
L 333.591795 114.521189 
L 337.124669 110.867284 
L 340.657544 107.369002 
L 344.190418 104.03952 
L 347.723292 100.89165 
L 351.256166 97.937813 
L 354.78904 95.189999 
L 358.321915 92.659756 
L 361.854789 90.358125 
L 365.387663 88.295656 
L 368.920537 86.482355 
L 372.453411 84.927667 
L 375.986286 83.640436 
L 379.51916 82.628923 
L 383.052034 81.900733 
L 386.584908 81.462839 
L 390.117782 81.321548 
L 393.650657 81.482474 
L 397.183531 81.950551 
L 400.716405 82.729992 
L 404.249279 83.824293 
L 407.782153 85.236238 
L 411.315028 86.967849 
L 414.847902 89.02044 
L 418.380776 91.394556 
L 421.91365 94.090014 
L 425.446524 97.105879 
L 428.979399 100.440487 
L 432.512273 104.091425 
" clip-path="url(#p2a30b3f462)" style="fill: none; stroke: #1f77b4; stroke-opacity: 0.6; stroke-width: 1.5; stroke-linecap: square"/>
   </g>
   <g id="line2d_36">
    <path d="M 82.757727 100.210348 
L 86.290601 107.20606 
L 89.823476 114.213276 
L 93.35635 121.214614 
L 96.889224 128.192779 
L 100.422098 135.13061 
L 103.954972 142.011116 
L 107.487847 148.817523 
L 111.020721 155.533314 
L 114.553595 162.142272 
L 118.086469 168.628518 
L 121.619343 174.97655 
L 125.152218 181.171288 
L 128.685092 187.198108 
L 132.217966 193.042868 
L 135.75084 198.691972 
L 139.283714 204.132365 
L 142.816589 209.351599 
L 146.349463 214.337847 
L 149.882337 219.079937 
L 153.415211 223.567372 
L 156.948085 227.790388 
L 160.48096 231.739926 
L 164.013834 235.407694 
L 167.546708 238.78618 
L 171.079582 241.868658 
L 174.612456 244.64923 
L 178.145331 247.122811 
L 181.678205 249.285165 
L 185.211079 251.132895 
L 188.743953 252.663463 
L 192.276827 253.875217 
L 195.809702 254.767347 
L 199.342576 255.339928 
L 202.87545 255.593912 
L 206.408324 255.531102 
L 209.941198 255.154178 
L 213.474073 254.466687 
L 217.006947 253.472988 
L 220.539821 252.178327 
L 224.072695 250.588733 
L 227.605569 248.711056 
L 231.138444 246.552957 
L 234.671318 244.122853 
L 238.204192 241.429915 
L 241.737066 238.484039 
L 245.26994 235.29584 
L 248.802815 231.876604 
L 252.335689 228.238246 
L 255.868563 224.393343 
L 259.401437 220.35502 
L 262.934311 216.136991 
L 266.467185 211.753464 
L 270.00006 207.219145 
L 273.532934 202.549197 
L 277.065808 197.759176 
L 280.598682 192.86503 
L 284.131556 187.883024 
L 287.664431 182.829721 
L 291.197305 177.721937 
L 294.730179 172.576693 
L 298.263053 167.411178 
L 301.795927 162.242702 
L 305.328802 157.088656 
L 308.861676 151.966467 
L 312.39455 146.893553 
L 315.927424 141.887284 
L 319.460298 136.964933 
L 322.993173 132.143639 
L 326.526047 127.440357 
L 330.058921 122.871821 
L 333.591795 118.454502 
L 337.124669 114.204563 
L 340.657544 110.137819 
L 344.190418 106.269705 
L 347.723292 102.61523 
L 351.256166 99.188936 
L 354.78904 96.004879 
L 358.321915 93.076562 
L 361.854789 90.416944 
L 365.387663 88.038369 
L 368.920537 85.952558 
L 372.453411 84.170568 
L 375.986286 82.702772 
L 379.51916 81.558828 
L 383.052034 80.747661 
L 386.584908 80.277432 
L 390.117782 80.155521 
L 393.650657 80.388512 
L 397.183531 80.98218 
L 400.716405 81.94146 
L 404.249279 83.270456 
L 407.782153 84.972408 
L 411.315028 87.049709 
L 414.847902 89.503877 
L 418.380776 92.335564 
L 421.91365 95.544553 
L 425.446524 99.129749 
L 428.979399 103.089199 
L 432.512273 107.420075 
" clip-path="url(#p2a30b3f462)" style="fill: none; stroke: #1f77b4; stroke-opacity: 0.6; stroke-width: 1.5; stroke-linecap: square"/>
   </g>
   <g id="line2d_37">
    <path d="M 82.757727 125.800603 
L 86.290601 133.321253 
L 89.823476 140.84834 
L 93.35635 148.362945 
L 96.889224 155.846248 
L 100.422098 163.279565 
L 103.954972 170.644403 
L 107.487847 177.922509 
L 111.020721 185.095899 
L 114.553595 192.146927 
L 118.086469 199.0583 
L 121.619343 205.813159 
L 125.152218 212.395086 
L 128.685092 218.788155 
L 132.217966 224.976981 
L 135.75084 230.946762 
L 139.283714 236.683296 
L 142.816589 242.173016 
L 146.349463 247.403073 
L 149.882337 252.361284 
L 153.415211 257.036252 
L 156.948085 261.417316 
L 160.48096 265.494634 
L 164.013834 269.259187 
L 167.546708 272.702776 
L 171.079582 275.818107 
L 174.612456 278.598745 
L 178.145331 281.039162 
L 181.678205 283.134734 
L 185.211079 284.881772 
L 188.743953 286.277521 
L 192.276827 287.320169 
L 195.809702 288.008849 
L 199.342576 288.343636 
L 202.87545 288.325559 
L 206.408324 287.956588 
L 209.941198 287.239641 
L 213.474073 286.178575 
L 217.006947 284.778136 
L 220.539821 283.044034 
L 224.072695 280.982825 
L 227.605569 278.601981 
L 231.138444 275.909835 
L 234.671318 272.915529 
L 238.204192 269.629073 
L 241.737066 266.061223 
L 245.26994 262.223529 
L 248.802815 258.128275 
L 252.335689 253.788452 
L 255.868563 249.217723 
L 259.401437 244.430401 
L 262.934311 239.441375 
L 266.467185 234.266137 
L 270.00006 228.920698 
L 273.532934 223.421543 
L 277.065808 217.785615 
L 280.598682 212.030267 
L 284.131556 206.173209 
L 287.664431 200.232465 
L 291.197305 194.226336 
L 294.730179 188.173352 
L 298.263053 182.092223 
L 301.795927 176.001789 
L 305.328802 169.920976 
L 308.861676 163.868756 
L 312.39455 157.864086 
L 315.927424 151.925872 
L 319.460298 146.072916 
L 322.993173 140.323871 
L 326.526047 134.697194 
L 330.058921 129.211096 
L 333.591795 123.883507 
L 337.124669 118.732017 
L 340.657544 113.773846 
L 344.190418 109.025789 
L 347.723292 104.504179 
L 351.256166 100.224852 
L 354.78904 96.203102 
L 358.321915 92.453631 
L 361.854789 88.990535 
L 365.387663 85.82726 
L 368.920537 82.976556 
L 372.453411 80.450463 
L 375.986286 78.260271 
L 379.51916 76.41649 
L 383.052034 74.928833 
L 386.584908 73.806184 
L 390.117782 73.056582 
L 393.650657 72.687187 
L 397.183531 72.704283 
L 400.716405 73.113244 
L 404.249279 73.918538 
L 407.782153 75.123692 
L 411.315028 76.731307 
L 414.847902 78.743044 
L 418.380776 81.159599 
L 421.91365 83.980747 
L 425.446524 87.205289 
L 428.979399 90.831104 
L 432.512273 94.855114 
" clip-path="url(#p2a30b3f462)" style="fill: none; stroke: #1f77b4; stroke-opacity: 0.6; stroke-width: 1.5; stroke-linecap: square"/>
   </g>
   <g id="line2d_38">
    <path d="M 82.757727 111.100509 
L 86.290601 118.71281 
L 89.823476 126.329625 
L 93.35635 133.932302 
L 96.889224 141.502284 
L 100.422098 149.021153 
L 103.954972 156.470678 
L 107.487847 163.832858 
L 111.020721 171.089968 
L 114.553595 178.224605 
L 118.086469 185.21973 
L 121.619343 192.058708 
L 125.152218 198.725358 
L 128.685092 205.20398 
L 132.217966 211.479411 
L 135.75084 217.537042 
L 139.283714 223.362885 
L 142.816589 228.943569 
L 146.349463 234.266401 
L 149.882337 239.319397 
L 153.415211 244.091302 
L 156.948085 248.571614 
L 160.48096 252.750634 
L 164.013834 256.619445 
L 167.546708 260.17001 
L 171.079582 263.395099 
L 174.612456 266.288374 
L 178.145331 268.84439 
L 181.678205 271.05859 
L 185.211079 272.927332 
L 188.743953 274.447918 
L 192.276827 275.618535 
L 195.809702 276.438335 
L 199.342576 276.907403 
L 202.87545 277.026748 
L 206.408324 276.798314 
L 209.941198 276.224969 
L 213.474073 275.310515 
L 217.006947 274.059662 
L 220.539821 272.477993 
L 224.072695 270.572001 
L 227.605569 268.349055 
L 231.138444 265.817344 
L 234.671318 262.985916 
L 238.204192 259.864613 
L 241.737066 256.464049 
L 245.26994 252.795611 
L 248.802815 248.871416 
L 252.335689 244.704265 
L 255.868563 240.307634 
L 259.401437 235.695607 
L 262.934311 230.882914 
L 266.467185 225.884793 
L 270.00006 220.717027 
L 273.532934 215.395884 
L 277.065808 209.938064 
L 280.598682 204.360677 
L 284.131556 198.681178 
L 287.664431 192.917343 
L 291.197305 187.087212 
L 294.730179 181.209057 
L 298.263053 175.301317 
L 301.795927 169.382569 
L 305.328802 163.47148 
L 308.861676 157.586745 
L 312.39455 151.747059 
L 315.927424 145.971061 
L 319.460298 140.277287 
L 322.993173 134.684129 
L 326.526047 129.20978 
L 330.058921 123.872201 
L 333.591795 118.689064 
L 337.124669 113.677712 
L 340.657544 108.855121 
L 344.190418 104.237851 
L 347.723292 99.84201 
L 351.256166 95.683202 
L 354.78904 91.776509 
L 358.321915 88.136429 
L 361.854789 84.776855 
L 365.387663 81.711045 
L 368.920537 78.951574 
L 372.453411 76.510304 
L 375.986286 74.398366 
L 379.51916 72.626132 
L 383.052034 71.203167 
L 386.584908 70.138237 
L 390.117782 69.439264 
L 393.650657 69.113308 
L 397.183531 69.166569 
L 400.716405 69.604341 
L 404.249279 70.431024 
L 407.782153 71.650105 
L 411.315028 73.26414 
L 414.847902 75.274768 
L 418.380776 77.68269 
L 421.91365 80.487661 
L 425.446524 83.688512 
L 428.979399 87.283148 
L 432.512273 91.26854 
" clip-path="url(#p2a30b3f462)" style="fill: none; stroke: #1f77b4; stroke-opacity: 0.6; stroke-width: 1.5; stroke-linecap: square"/>
   </g>
   <g id="line2d_39">
    <path d="M 82.757727 115.341978 
L 86.290601 121.000854 
L 89.823476 126.669095 
L 93.35635 132.333016 
L 96.889224 137.979002 
L 100.422098 143.593539 
L 103.954972 149.16325 
L 107.487847 154.674927 
L 111.020721 160.115568 
L 114.553595 165.472399 
L 118.086469 170.732921 
L 121.619343 175.88493 
L 125.152218 180.916549 
L 128.685092 185.816267 
L 132.217966 190.572948 
L 135.75084 195.175883 
L 139.283714 199.614799 
L 142.816589 203.879891 
L 146.349463 207.961846 
L 149.882337 211.851873 
L 153.415211 215.541709 
L 156.948085 219.023647 
L 160.48096 222.290581 
L 164.013834 225.33597 
L 167.546708 228.153886 
L 171.079582 230.739066 
L 174.612456 233.08683 
L 178.145331 235.193205 
L 181.678205 237.054823 
L 185.211079 238.669043 
L 188.743953 240.033845 
L 192.276827 241.147936 
L 195.809702 242.010676 
L 199.342576 242.622129 
L 202.87545 242.983032 
L 206.408324 243.094829 
L 209.941198 242.959605 
L 213.474073 242.580152 
L 217.006947 241.959933 
L 220.539821 241.103034 
L 224.072695 240.014239 
L 227.605569 238.698933 
L 231.138444 237.163139 
L 234.671318 235.413487 
L 238.204192 233.457197 
L 241.737066 231.30207 
L 245.26994 228.956448 
L 248.802815 226.429228 
L 252.335689 223.729798 
L 255.868563 220.868036 
L 259.401437 217.854308 
L 262.934311 214.699382 
L 266.467185 211.414469 
L 270.00006 208.011136 
L 273.532934 204.501317 
L 277.065808 200.897274 
L 280.598682 197.211547 
L 284.131556 193.456957 
L 287.664431 189.646545 
L 291.197305 185.793542 
L 294.730179 181.911352 
L 298.263053 178.013511 
L 301.795927 174.113648 
L 305.328802 170.225455 
L 308.861676 166.362654 
L 312.39455 162.538961 
L 315.927424 158.76805 
L 319.460298 155.063522 
L 322.993173 151.438869 
L 326.526047 147.907445 
L 330.058921 144.482424 
L 333.591795 141.176773 
L 337.124669 138.003219 
L 340.657544 134.974217 
L 344.190418 132.101916 
L 347.723292 129.398134 
L 351.256166 126.874324 
L 354.78904 124.541546 
L 358.321915 122.410442 
L 361.854789 120.491208 
L 365.387663 118.793565 
L 368.920537 117.326739 
L 372.453411 116.099442 
L 375.986286 115.119834 
L 379.51916 114.395527 
L 383.052034 113.933543 
L 386.584908 113.740307 
L 390.117782 113.821633 
L 393.650657 114.182706 
L 397.183531 114.828069 
L 400.716405 115.76161 
L 404.249279 116.986557 
L 407.782153 118.505465 
L 411.315028 120.320217 
L 414.847902 122.432009 
L 418.380776 124.841353 
L 421.91365 127.548077 
L 425.446524 130.551322 
L 428.979399 133.849545 
L 432.512273 137.440527 
" clip-path="url(#p2a30b3f462)" style="fill: none; stroke: #1f77b4; stroke-opacity: 0.6; stroke-width: 1.5; stroke-linecap: square"/>
   </g>
   <g id="line2d_40">
    <path d="M 82.757727 111.564185 
L 86.290601 117.681526 
L 89.823476 123.809933 
L 93.35635 129.934707 
L 96.889224 136.041222 
L 100.422098 142.114964 
L 103.954972 148.141564 
L 107.487847 154.106836 
L 111.020721 159.996812 
L 114.553595 165.797774 
L 118.086469 171.496297 
L 121.619343 177.079272 
L 125.152218 182.533938 
L 128.685092 187.847934 
L 132.217966 193.009303 
L 135.75084 198.006537 
L 139.283714 202.828604 
L 142.816589 207.464969 
L 146.349463 211.905634 
L 149.882337 216.141151 
L 153.415211 220.162647 
L 156.948085 223.961855 
L 160.48096 227.53112 
L 164.013834 230.863421 
L 167.546708 233.952419 
L 171.079582 236.792423 
L 174.612456 239.378433 
L 178.145331 241.706166 
L 181.678205 243.772017 
L 185.211079 245.573128 
L 188.743953 247.107357 
L 192.276827 248.373288 
L 195.809702 249.370261 
L 199.342576 250.098323 
L 202.87545 250.558276 
L 206.408324 250.751659 
L 209.941198 250.680735 
L 213.474073 250.348486 
L 217.006947 249.75863 
L 220.539821 248.915572 
L 224.072695 247.824427 
L 227.605569 246.490997 
L 231.138444 244.921736 
L 234.671318 243.123786 
L 238.204192 241.104884 
L 241.737066 238.873417 
L 245.26994 236.438341 
L 248.802815 233.809222 
L 252.335689 230.996126 
L 255.868563 228.009689 
L 259.401437 224.861024 
L 262.934311 221.561698 
L 266.467185 218.123761 
L 270.00006 214.559639 
L 273.532934 210.882144 
L 277.065808 207.104447 
L 280.598682 203.240023 
L 284.131556 199.302633 
L 287.664431 195.306291 
L 291.197305 191.265208 
L 294.730179 187.193782 
L 298.263053 183.106552 
L 301.795927 179.018157 
L 305.328802 174.943301 
L 308.861676 170.896727 
L 312.39455 166.893163 
L 315.927424 162.947297 
L 319.460298 159.073742 
L 322.993173 155.286989 
L 326.526047 151.601379 
L 330.058921 148.031063 
L 333.591795 144.58997 
L 337.124669 141.291769 
L 340.657544 138.149837 
L 344.190418 135.177227 
L 347.723292 132.386629 
L 351.256166 129.790347 
L 354.78904 127.400262 
L 358.321915 125.2278 
L 361.854789 123.283916 
L 365.387663 121.579051 
L 368.920537 120.123115 
L 372.453411 118.925461 
L 375.986286 117.994864 
L 379.51916 117.33949 
L 383.052034 116.966885 
L 386.584908 116.883952 
L 390.117782 117.096934 
L 393.650657 117.611399 
L 397.183531 118.432228 
L 400.716405 119.563598 
L 404.249279 121.008975 
L 407.782153 122.771107 
L 411.315028 124.852009 
L 414.847902 127.252972 
L 418.380776 129.974544 
L 421.91365 133.01654 
L 425.446524 136.378037 
L 428.979399 140.057379 
L 432.512273 144.052181 
" clip-path="url(#p2a30b3f462)" style="fill: none; stroke: #1f77b4; stroke-opacity: 0.6; stroke-width: 1.5; stroke-linecap: square"/>
   </g>
   <g id="line2d_41">
    <path d="M 82.757727 117.018542 
L 86.290601 122.988379 
L 89.823476 128.970858 
L 93.35635 134.951517 
L 96.889224 140.915965 
L 100.422098 146.849922 
L 103.954972 152.739249 
L 107.487847 158.56999 
L 111.020721 164.328398 
L 114.553595 170.000981 
L 118.086469 175.574526 
L 121.619343 181.036134 
L 125.152218 186.373256 
L 128.685092 191.573718 
L 132.217966 196.625762 
L 135.75084 201.518068 
L 139.283714 206.239774 
L 142.816589 210.780522 
L 146.349463 215.130474 
L 149.882337 219.28033 
L 153.415211 223.221357 
L 156.948085 226.945424 
L 160.48096 230.445001 
L 164.013834 233.713181 
L 167.546708 236.743728 
L 171.079582 239.531028 
L 174.612456 242.070183 
L 178.145331 244.356958 
L 181.678205 246.387824 
L 185.211079 248.159959 
L 188.743953 249.67126 
L 192.276827 250.920331 
L 195.809702 251.90652 
L 199.342576 252.629883 
L 202.87545 253.091205 
L 206.408324 253.291984 
L 209.941198 253.234468 
L 213.474073 252.921589 
L 217.006947 252.356991 
L 220.539821 251.545012 
L 224.072695 250.490702 
L 227.605569 249.199749 
L 231.138444 247.678522 
L 234.671318 245.934022 
L 238.204192 243.973891 
L 241.737066 241.806358 
L 245.26994 239.440252 
L 248.802815 236.884972 
L 252.335689 234.150434 
L 255.868563 231.247092 
L 259.401437 228.185881 
L 262.934311 224.978199 
L 266.467185 221.635877 
L 270.00006 218.171159 
L 273.532934 214.596643 
L 277.065808 210.92529 
L 280.598682 207.170361 
L 284.131556 203.3454 
L 287.664431 199.464181 
L 291.197305 195.540698 
L 294.730179 191.589117 
L 298.263053 187.623737 
L 301.795927 183.658965 
L 305.328802 179.709271 
L 308.861676 175.789159 
L 312.39455 171.91312 
L 315.927424 168.095607 
L 319.460298 164.350998 
L 322.993173 160.693548 
L 326.526047 157.137369 
L 330.058921 153.696386 
L 333.591795 150.384302 
L 337.124669 147.214569 
L 340.657544 144.200346 
L 344.190418 141.354478 
L 347.723292 138.68945 
L 351.256166 136.217368 
L 354.78904 133.949922 
L 358.321915 131.898356 
L 361.854789 130.073447 
L 365.387663 128.485467 
L 368.920537 127.144172 
L 372.453411 126.05876 
L 375.986286 125.237864 
L 379.51916 124.689521 
L 383.052034 124.421156 
L 386.584908 124.43956 
L 390.117782 124.750875 
L 393.650657 125.360582 
L 397.183531 126.273481 
L 400.716405 127.493684 
L 404.249279 129.024599 
L 407.782153 130.86893 
L 411.315028 133.028663 
L 414.847902 135.505063 
L 418.380776 138.298672 
L 421.91365 141.409308 
L 425.446524 144.836064 
L 428.979399 148.577309 
L 432.512273 152.630696 
" clip-path="url(#p2a30b3f462)" style="fill: none; stroke: #1f77b4; stroke-opacity: 0.6; stroke-width: 1.5; stroke-linecap: square"/>
   </g>
   <g id="line2d_42">
    <path d="M 82.757727 117.596742 
L 86.290601 123.934268 
L 89.823476 130.280525 
L 93.35635 136.619552 
L 96.889224 142.935467 
L 100.422098 149.212509 
L 103.954972 155.435074 
L 107.487847 161.58776 
L 111.020721 167.655395 
L 114.553595 173.62309 
L 118.086469 179.476256 
L 121.619343 185.200666 
L 125.152218 190.782469 
L 128.685092 196.208229 
L 132.217966 201.464963 
L 135.75084 206.540184 
L 139.283714 211.421904 
L 142.816589 216.098689 
L 146.349463 220.559677 
L 149.882337 224.794619 
L 153.415211 228.793871 
L 156.948085 232.548452 
L 160.48096 236.050047 
L 164.013834 239.291064 
L 167.546708 242.264575 
L 171.079582 244.96442 
L 174.612456 247.385184 
L 178.145331 249.522176 
L 181.678205 251.371528 
L 185.211079 252.930119 
L 188.743953 254.195606 
L 192.276827 255.166482 
L 195.809702 255.842 
L 199.342576 256.222226 
L 202.87545 256.308039 
L 206.408324 256.101098 
L 209.941198 255.603857 
L 213.474073 254.819561 
L 217.006947 253.75224 
L 220.539821 252.406695 
L 224.072695 250.788465 
L 227.605569 248.903854 
L 231.138444 246.759879 
L 234.671318 244.36427 
L 238.204192 241.725461 
L 241.737066 238.852537 
L 245.26994 235.755237 
L 248.802815 232.443939 
L 252.335689 228.929577 
L 255.868563 225.223701 
L 259.401437 221.338369 
L 262.934311 217.286171 
L 266.467185 213.080153 
L 270.00006 208.733829 
L 273.532934 204.261112 
L 277.065808 199.676302 
L 280.598682 194.994031 
L 284.131556 190.22924 
L 287.664431 185.397148 
L 291.197305 180.513187 
L 294.730179 175.592997 
L 298.263053 170.652357 
L 301.795927 165.707164 
L 305.328802 160.773392 
L 308.861676 155.867044 
L 312.39455 151.004115 
L 315.927424 146.200558 
L 319.460298 141.472236 
L 322.993173 136.834886 
L 326.526047 132.30408 
L 330.058921 127.895188 
L 333.591795 123.623331 
L 337.124669 119.503356 
L 340.657544 115.549786 
L 344.190418 111.776798 
L 347.723292 108.198172 
L 351.256166 104.827264 
L 354.78904 101.676976 
L 358.321915 98.759722 
L 361.854789 96.087394 
L 365.387663 93.671329 
L 368.920537 91.522289 
L 372.453411 89.650433 
L 375.986286 88.065283 
L 379.51916 86.775712 
L 383.052034 85.789915 
L 386.584908 85.115383 
L 390.117782 84.758896 
L 393.650657 84.726505 
L 397.183531 85.023509 
L 400.716405 85.654436 
L 404.249279 86.623061 
L 407.782153 87.932361 
L 411.315028 89.584529 
L 414.847902 91.580956 
L 418.380776 93.922247 
L 421.91365 96.608204 
L 425.446524 99.637817 
L 428.979399 103.00929 
L 432.512273 106.720033 
" clip-path="url(#p2a30b3f462)" style="fill: none; stroke: #1f77b4; stroke-opacity: 0.6; stroke-width: 1.5; stroke-linecap: square"/>
   </g>
   <g id="line2d_43">
    <path d="M 82.757727 91.535554 
L 86.290601 98.362644 
L 89.823476 105.196992 
L 93.35635 112.021652 
L 96.889224 118.819757 
L 100.422098 125.574563 
L 103.954972 132.2695 
L 107.487847 138.888207 
L 111.020721 145.414573 
L 114.553595 151.832778 
L 118.086469 158.127336 
L 121.619343 164.283126 
L 125.152218 170.285439 
L 128.685092 176.120009 
L 132.217966 181.773047 
L 135.75084 187.231282 
L 139.283714 192.481992 
L 142.816589 197.513028 
L 146.349463 202.312851 
L 149.882337 206.870569 
L 153.415211 211.175954 
L 156.948085 215.219457 
L 160.48096 218.992256 
L 164.013834 222.486275 
L 167.546708 225.694165 
L 171.079582 228.609377 
L 174.612456 231.226155 
L 178.145331 233.539546 
L 181.678205 235.5454 
L 185.211079 237.240422 
L 188.743953 238.622141 
L 192.276827 239.688925 
L 195.809702 240.439999 
L 199.342576 240.875431 
L 202.87545 240.996144 
L 206.408324 240.803903 
L 209.941198 240.301331 
L 213.474073 239.491862 
L 217.006947 238.379781 
L 220.539821 236.970171 
L 224.072695 235.268941 
L 227.605569 233.28276 
L 231.138444 231.01911 
L 234.671318 228.486182 
L 238.204192 225.692929 
L 241.737066 222.649013 
L 245.26994 219.364774 
L 248.802815 215.851229 
L 252.335689 212.120005 
L 255.868563 208.183355 
L 259.401437 204.054096 
L 262.934311 199.745593 
L 266.467185 195.271711 
L 270.00006 190.646792 
L 273.532934 185.885624 
L 277.065808 181.003385 
L 280.598682 176.015625 
L 284.131556 170.938213 
L 287.664431 165.787306 
L 291.197305 160.579302 
L 294.730179 155.330805 
L 298.263053 150.05858 
L 301.795927 144.779512 
L 305.328802 139.510563 
L 308.861676 134.268733 
L 312.39455 129.071011 
L 315.927424 123.934338 
L 319.460298 118.875566 
L 322.993173 113.911406 
L 326.526047 109.058401 
L 330.058921 104.332872 
L 333.591795 99.750883 
L 337.124669 95.328201 
L 340.657544 91.080252 
L 344.190418 87.022097 
L 347.723292 83.168363 
L 351.256166 79.533241 
L 354.78904 76.13044 
L 358.321915 72.973137 
L 361.854789 70.073961 
L 365.387663 67.444964 
L 368.920537 65.097568 
L 372.453411 63.042562 
L 375.986286 61.290071 
L 379.51916 59.8495 
L 383.052034 58.729568 
L 386.584908 57.938234 
L 390.117782 57.482687 
L 393.650657 57.369362 
L 397.183531 57.603872 
L 400.716405 58.191058 
L 404.249279 59.134902 
L 407.782153 60.438569 
L 411.315028 62.104399 
L 414.847902 64.133863 
L 418.380776 66.527609 
L 421.91365 69.285414 
L 425.446524 72.406218 
L 428.979399 75.888108 
L 432.512273 79.728331 
" clip-path="url(#p2a30b3f462)" style="fill: none; stroke: #1f77b4; stroke-opacity: 0.6; stroke-width: 1.5; stroke-linecap: square"/>
   </g>
   <g id="line2d_44">
    <path d="M 82.757727 102.475429 
L 86.290601 107.970429 
L 89.823476 113.475102 
L 93.35635 118.975682 
L 96.889224 124.458472 
L 100.422098 129.909884 
L 103.954972 135.316458 
L 107.487847 140.664913 
L 111.020721 145.942167 
L 114.553595 151.135376 
L 118.086469 156.231967 
L 121.619343 161.219662 
L 125.152218 166.086518 
L 128.685092 170.820951 
L 132.217966 175.411767 
L 135.75084 179.848194 
L 139.283714 184.119895 
L 142.816589 188.217008 
L 146.349463 192.130174 
L 149.882337 195.850538 
L 153.415211 199.369797 
L 156.948085 202.680204 
L 160.48096 205.774593 
L 164.013834 208.646398 
L 167.546708 211.289671 
L 171.079582 213.699084 
L 174.612456 215.869957 
L 178.145331 217.798277 
L 181.678205 219.480675 
L 185.211079 220.914476 
L 188.743953 222.097661 
L 192.276827 223.028918 
L 195.809702 223.707616 
L 199.342576 224.133811 
L 202.87545 224.308247 
L 206.408324 224.23237 
L 209.941198 223.908292 
L 213.474073 223.338806 
L 217.006947 222.527403 
L 220.539821 221.478197 
L 224.072695 220.195991 
L 227.605569 218.686199 
L 231.138444 216.954885 
L 234.671318 215.008723 
L 238.204192 212.854964 
L 241.737066 210.501464 
L 245.26994 207.95661 
L 248.802815 205.229346 
L 252.335689 202.329122 
L 255.868563 199.265878 
L 259.401437 196.05002 
L 262.934311 192.692405 
L 266.467185 189.204287 
L 270.00006 185.597315 
L 273.532934 181.883485 
L 277.065808 178.075134 
L 280.598682 174.184879 
L 284.131556 170.225608 
L 287.664431 166.210436 
L 291.197305 162.152679 
L 294.730179 158.065821 
L 298.263053 153.963469 
L 301.795927 149.859336 
L 305.328802 145.767192 
L 308.861676 141.70084 
L 312.39455 137.674075 
L 315.927424 133.700651 
L 319.460298 129.794251 
L 322.993173 125.968444 
L 326.526047 122.236659 
L 330.058921 118.612151 
L 333.591795 115.10796 
L 337.124669 111.73689 
L 340.657544 108.511463 
L 344.190418 105.443907 
L 347.723292 102.546101 
L 351.256166 99.829569 
L 354.78904 97.305437 
L 358.321915 94.984408 
L 361.854789 92.876731 
L 365.387663 90.992194 
L 368.920537 89.340074 
L 372.453411 87.929125 
L 375.986286 86.767565 
L 379.51916 85.863047 
L 383.052034 85.222632 
L 386.584908 84.852785 
L 390.117782 84.759353 
L 393.650657 84.947551 
L 397.183531 85.42195 
L 400.716405 86.186455 
L 404.249279 87.244323 
L 407.782153 88.598118 
L 411.315028 90.249734 
L 414.847902 92.200368 
L 418.380776 94.450549 
L 421.91365 97.000093 
L 425.446524 99.848138 
L 428.979399 102.993135 
L 432.512273 106.432848 
" clip-path="url(#p2a30b3f462)" style="fill: none; stroke: #1f77b4; stroke-opacity: 0.6; stroke-width: 1.5; stroke-linecap: square"/>
   </g>
   <g id="line2d_45">
    <path d="M 82.757727 109.549708 
L 86.290601 116.363421 
L 89.823476 123.187874 
L 93.35635 130.006618 
L 96.889224 136.803281 
L 100.422098 143.56162 
L 103.954972 150.265555 
L 107.487847 156.899205 
L 111.020721 163.446942 
L 114.553595 169.893411 
L 118.086469 176.223585 
L 121.619343 182.422793 
L 125.152218 188.476758 
L 128.685092 194.371637 
L 132.217966 200.094052 
L 135.75084 205.631123 
L 139.283714 210.970504 
L 142.816589 216.100406 
L 146.349463 221.00963 
L 149.882337 225.687617 
L 153.415211 230.124424 
L 156.948085 234.310803 
L 160.48096 238.238187 
L 164.013834 241.898728 
L 167.546708 245.285309 
L 171.079582 248.391564 
L 174.612456 251.211924 
L 178.145331 253.741559 
L 181.678205 255.97646 
L 185.211079 257.913427 
L 188.743953 259.550046 
L 192.276827 260.884759 
L 195.809702 261.916793 
L 199.342576 262.646233 
L 202.87545 263.073956 
L 206.408324 263.201689 
L 209.941198 263.031969 
L 213.474073 262.568129 
L 217.006947 261.814327 
L 220.539821 260.7755 
L 224.072695 259.457374 
L 227.605569 257.866431 
L 231.138444 256.009917 
L 234.671318 253.895795 
L 238.204192 251.532756 
L 241.737066 248.930159 
L 245.26994 246.098052 
L 248.802815 243.047116 
L 252.335689 239.788635 
L 255.868563 236.334507 
L 259.401437 232.697159 
L 262.934311 228.889572 
L 266.467185 224.925183 
L 270.00006 220.817936 
L 273.532934 216.58215 
L 277.065808 212.23258 
L 280.598682 207.784301 
L 284.131556 203.252713 
L 287.664431 198.6535 
L 291.197305 194.002572 
L 294.730179 189.316041 
L 298.263053 184.610173 
L 301.795927 179.901361 
L 305.328802 175.206055 
L 308.861676 170.540758 
L 312.39455 165.921953 
L 315.927424 161.366082 
L 319.460298 156.889494 
L 322.993173 152.50841 
L 326.526047 148.238881 
L 330.058921 144.096744 
L 333.591795 140.097588 
L 337.124669 136.256712 
L 340.657544 132.589089 
L 344.190418 129.109323 
L 347.723292 125.831623 
L 351.256166 122.769754 
L 354.78904 119.937015 
L 358.321915 117.346196 
L 361.854789 115.009554 
L 365.387663 112.93878 
L 368.920537 111.14496 
L 372.453411 109.638565 
L 375.986286 108.429415 
L 379.51916 107.526647 
L 383.052034 106.938708 
L 386.584908 106.673326 
L 390.117782 106.737488 
L 393.650657 107.137422 
L 397.183531 107.878594 
L 400.716405 108.965677 
L 404.249279 110.402552 
L 407.782153 112.192291 
L 411.315028 114.337157 
L 414.847902 116.838584 
L 418.380776 119.697193 
L 421.91365 122.912774 
L 425.446524 126.484297 
L 428.979399 130.409906 
L 432.512273 134.686931 
" clip-path="url(#p2a30b3f462)" style="fill: none; stroke: #1f77b4; stroke-opacity: 0.6; stroke-width: 1.5; stroke-linecap: square"/>
   </g>
   <g id="line2d_46">
    <path d="M 82.757727 99.75151 
L 86.290601 106.219713 
L 89.823476 112.694922 
L 93.35635 119.160943 
L 96.889224 125.601665 
L 100.422098 132.001097 
L 103.954972 138.343411 
L 107.487847 144.612979 
L 111.020721 150.794413 
L 114.553595 156.872602 
L 118.086469 162.832752 
L 121.619343 168.660425 
L 125.152218 174.34157 
L 128.685092 179.862559 
L 132.217966 185.210219 
L 135.75084 190.37188 
L 139.283714 195.335384 
L 142.816589 200.089127 
L 146.349463 204.622096 
L 149.882337 208.923881 
L 153.415211 212.984712 
L 156.948085 216.795469 
L 160.48096 220.347726 
L 164.013834 223.633767 
L 167.546708 226.646576 
L 171.079582 229.379897 
L 174.612456 231.82823 
L 178.145331 233.986847 
L 181.678205 235.851787 
L 185.211079 237.419888 
L 188.743953 238.6888 
L 192.276827 239.656958 
L 195.809702 240.323636 
L 199.342576 240.688889 
L 202.87545 240.753604 
L 206.408324 240.519471 
L 209.941198 239.988971 
L 213.474073 239.165407 
L 217.006947 238.052863 
L 220.539821 236.656208 
L 224.072695 234.981056 
L 227.605569 233.033814 
L 231.138444 230.821586 
L 234.671318 228.352241 
L 238.204192 225.634299 
L 241.737066 222.677007 
L 245.26994 219.490233 
L 248.802815 216.084489 
L 252.335689 212.470902 
L 255.868563 208.661169 
L 259.401437 204.667522 
L 262.934311 200.502735 
L 266.467185 196.180051 
L 270.00006 191.713174 
L 273.532934 187.116216 
L 277.065808 182.403686 
L 280.598682 177.590434 
L 284.131556 172.691613 
L 287.664431 167.72266 
L 291.197305 162.699236 
L 294.730179 157.637202 
L 298.263053 152.55257 
L 301.795927 147.461468 
L 305.328802 142.3801 
L 308.861676 137.324699 
L 312.39455 132.311496 
L 315.927424 127.356674 
L 319.460298 122.476323 
L 322.993173 117.686413 
L 326.526047 113.002739 
L 330.058921 108.440891 
L 333.591795 104.016215 
L 337.124669 99.743771 
L 340.657544 95.638291 
L 344.190418 91.714162 
L 347.723292 87.985353 
L 351.256166 84.46543 
L 354.78904 81.167472 
L 358.321915 78.104073 
L 361.854789 75.287298 
L 365.387663 72.728645 
L 368.920537 70.439044 
L 372.453411 68.428789 
L 375.986286 66.707547 
L 379.51916 65.284313 
L 383.052034 64.167405 
L 386.584908 63.364423 
L 390.117782 62.88225 
L 393.650657 62.727014 
L 397.183531 62.904097 
L 400.716405 63.418095 
L 404.249279 64.272833 
L 407.782153 65.471332 
L 411.315028 67.015816 
L 414.847902 68.907707 
L 418.380776 71.147604 
L 421.91365 73.735312 
L 425.446524 76.669805 
L 428.979399 79.949264 
L 432.512273 83.571054 
" clip-path="url(#p2a30b3f462)" style="fill: none; stroke: #1f77b4; stroke-opacity: 0.6; stroke-width: 1.5; stroke-linecap: square"/>
   </g>
   <g id="line2d_47">
    <path d="M 82.757727 132.796741 
L 86.290601 139.621455 
L 89.823476 146.455634 
L 93.35635 153.282505 
L 96.889224 160.085378 
L 100.422098 166.84769 
L 103.954972 173.553043 
L 107.487847 180.18525 
L 111.020721 186.728366 
L 114.553595 193.166747 
L 118.086469 199.485056 
L 121.619343 205.668349 
L 125.152218 211.702062 
L 128.685092 217.572079 
L 132.217966 223.264759 
L 135.75084 228.766972 
L 139.283714 234.066131 
L 142.816589 239.150216 
L 146.349463 244.007801 
L 149.882337 248.628121 
L 153.415211 253.001052 
L 156.948085 257.117139 
L 160.48096 260.967665 
L 164.013834 264.54462 
L 167.546708 267.840756 
L 171.079582 270.849593 
L 174.612456 273.565412 
L 178.145331 275.983325 
L 181.678205 278.09923 
L 185.211079 279.90987 
L 188.743953 281.412784 
L 192.276827 282.606366 
L 195.809702 283.489844 
L 199.342576 284.063302 
L 202.87545 284.327646 
L 206.408324 284.284613 
L 209.941198 283.936805 
L 213.474073 283.287621 
L 217.006947 282.341295 
L 220.539821 281.102858 
L 224.072695 279.578159 
L 227.605569 277.773803 
L 231.138444 275.697177 
L 234.671318 273.356395 
L 238.204192 270.760317 
L 241.737066 267.918511 
L 245.26994 264.841194 
L 248.802815 261.539255 
L 252.335689 258.024233 
L 255.868563 254.308224 
L 259.401437 250.403918 
L 262.934311 246.324542 
L 266.467185 242.083807 
L 270.00006 237.695912 
L 273.532934 233.175482 
L 277.065808 228.537538 
L 280.598682 223.797467 
L 284.131556 218.97097 
L 287.664431 214.074031 
L 291.197305 209.122878 
L 294.730179 204.133932 
L 298.263053 199.123794 
L 301.795927 194.109161 
L 305.328802 189.106817 
L 308.861676 184.133586 
L 312.39455 179.206275 
L 315.927424 174.341646 
L 319.460298 169.556374 
L 322.993173 164.866993 
L 326.526047 160.289875 
L 330.058921 155.841162 
L 333.591795 151.536754 
L 337.124669 147.392248 
L 340.657544 143.42291 
L 344.190418 139.643634 
L 347.723292 136.068904 
L 351.256166 132.712759 
L 354.78904 129.588756 
L 358.321915 126.709939 
L 361.854789 124.088804 
L 365.387663 121.737267 
L 368.920537 119.666642 
L 372.453411 117.887598 
L 375.986286 116.410146 
L 379.51916 115.243612 
L 383.052034 114.396598 
L 386.584908 113.876991 
L 390.117782 113.691909 
L 393.650657 113.847712 
L 397.183531 114.349963 
L 400.716405 115.203432 
L 404.249279 116.412078 
L 407.782153 117.979027 
L 411.315028 119.90659 
L 414.847902 122.196231 
L 418.380776 124.848581 
L 421.91365 127.863426 
L 425.446524 131.239716 
L 428.979399 134.975558 
L 432.512273 139.06823 
" clip-path="url(#p2a30b3f462)" style="fill: none; stroke: #1f77b4; stroke-opacity: 0.6; stroke-width: 1.5; stroke-linecap: square"/>
   </g>
   <g id="line2d_48">
    <path d="M 82.757727 102.186577 
L 86.290601 106.666776 
L 89.823476 111.157891 
L 93.35635 115.648596 
L 96.889224 120.127627 
L 100.422098 124.583802 
L 103.954972 129.006051 
L 107.487847 133.383446 
L 111.020721 137.705228 
L 114.553595 141.960829 
L 118.086469 146.139906 
L 121.619343 150.23236 
L 125.152218 154.228364 
L 128.685092 158.118391 
L 132.217966 161.893232 
L 135.75084 165.544021 
L 139.283714 169.062261 
L 142.816589 172.439836 
L 146.349463 175.669045 
L 149.882337 178.742608 
L 153.415211 181.653687 
L 156.948085 184.39592 
L 160.48096 186.9634 
L 164.013834 189.350734 
L 167.546708 191.553027 
L 171.079582 193.565891 
L 174.612456 195.38549 
L 178.145331 197.008503 
L 181.678205 198.432171 
L 185.211079 199.65429 
L 188.743953 200.673204 
L 192.276827 201.487829 
L 195.809702 202.097645 
L 199.342576 202.502696 
L 202.87545 202.703607 
L 206.408324 202.701551 
L 209.941198 202.498271 
L 213.474073 202.096074 
L 217.006947 201.497816 
L 220.539821 200.706897 
L 224.072695 199.727251 
L 227.605569 198.563352 
L 231.138444 197.220175 
L 234.671318 195.703213 
L 238.204192 194.018433 
L 241.737066 192.172288 
L 245.26994 190.171695 
L 248.802815 188.023999 
L 252.335689 185.736974 
L 255.868563 183.3188 
L 259.401437 180.778046 
L 262.934311 178.123626 
L 266.467185 175.364811 
L 270.00006 172.511178 
L 273.532934 169.572602 
L 277.065808 166.559225 
L 280.598682 163.481427 
L 284.131556 160.349814 
L 287.664431 157.175174 
L 291.197305 153.96846 
L 294.730179 150.740762 
L 298.263053 147.50328 
L 301.795927 144.267289 
L 305.328802 141.044121 
L 308.861676 137.845129 
L 312.39455 134.681662 
L 315.927424 131.565034 
L 319.460298 128.506501 
L 322.993173 125.517225 
L 326.526047 122.608258 
L 330.058921 119.790497 
L 333.591795 117.074674 
L 337.124669 114.47132 
L 340.657544 111.990738 
L 344.190418 109.642983 
L 347.723292 107.437834 
L 351.256166 105.384767 
L 354.78904 103.492935 
L 358.321915 101.771141 
L 361.854789 100.227824 
L 365.387663 98.871023 
L 368.920537 97.708379 
L 372.453411 96.747094 
L 375.986286 95.99393 
L 379.51916 95.455169 
L 383.052034 95.136634 
L 386.584908 95.043642 
L 390.117782 95.180994 
L 393.650657 95.552988 
L 397.183531 96.16338 
L 400.716405 97.015392 
L 404.249279 98.111688 
L 407.782153 99.454388 
L 411.315028 101.045044 
L 414.847902 102.88465 
L 418.380776 104.973629 
L 421.91365 107.31184 
L 425.446524 109.898567 
L 428.979399 112.73254 
L 432.512273 115.811918 
" clip-path="url(#p2a30b3f462)" style="fill: none; stroke: #1f77b4; stroke-opacity: 0.6; stroke-width: 1.5; stroke-linecap: square"/>
   </g>
   <g id="line2d_49">
    <path d="M 82.757727 105.023201 
L 86.290601 112.295464 
L 89.823476 119.578066 
L 93.35635 126.853064 
L 96.889224 134.1026 
L 100.422098 141.308956 
L 103.954972 148.45459 
L 107.487847 155.522183 
L 111.020721 162.49468 
L 114.553595 169.355339 
L 118.086469 176.087764 
L 121.619343 182.675951 
L 125.152218 189.104331 
L 128.685092 195.357798 
L 132.217966 201.421764 
L 135.75084 207.282177 
L 139.283714 212.925572 
L 142.816589 218.33908 
L 146.349463 223.510507 
L 149.882337 228.428307 
L 153.415211 233.08165 
L 156.948085 237.460449 
L 160.48096 241.555345 
L 164.013834 245.35779 
L 167.546708 248.860027 
L 171.079582 252.055104 
L 174.612456 254.936934 
L 178.145331 257.500262 
L 181.678205 259.74072 
L 185.211079 261.654807 
L 188.743953 263.239891 
L 192.276827 264.494274 
L 195.809702 265.417115 
L 199.342576 266.00849 
L 202.87545 266.269391 
L 206.408324 266.201665 
L 209.941198 265.808098 
L 213.474073 265.092329 
L 217.006947 264.05889 
L 220.539821 262.713166 
L 224.072695 261.061394 
L 227.605569 259.110651 
L 231.138444 256.868844 
L 234.671318 254.344662 
L 238.204192 251.547569 
L 241.737066 248.487792 
L 245.26994 245.176286 
L 248.802815 241.624694 
L 252.335689 237.845346 
L 255.868563 233.851198 
L 259.401437 229.655818 
L 262.934311 225.273349 
L 266.467185 220.71848 
L 270.00006 216.006385 
L 273.532934 211.152715 
L 277.065808 206.173544 
L 280.598682 201.085321 
L 284.131556 195.904856 
L 287.664431 190.64924 
L 291.197305 185.335839 
L 294.730179 179.98223 
L 298.263053 174.606148 
L 301.795927 169.225477 
L 305.328802 163.858165 
L 308.861676 158.52221 
L 312.39455 153.235595 
L 315.927424 148.016254 
L 319.460298 142.88202 
L 322.993173 137.850588 
L 326.526047 132.939465 
L 330.058921 128.165929 
L 333.591795 123.546983 
L 337.124669 119.099318 
L 340.657544 114.839262 
L 344.190418 110.78275 
L 347.723292 106.945278 
L 351.256166 103.341865 
L 354.78904 99.987014 
L 358.321915 96.894678 
L 361.854789 94.078229 
L 365.387663 91.550419 
L 368.920537 89.323341 
L 372.453411 87.408414 
L 375.986286 85.816348 
L 379.51916 84.557116 
L 383.052034 83.639931 
L 386.584908 83.073224 
L 390.117782 82.864608 
L 393.650657 83.020887 
L 397.183531 83.548018 
L 400.716405 84.451103 
L 404.249279 85.734371 
L 407.782153 87.401172 
L 411.315028 89.453975 
L 414.847902 91.894349 
L 418.380776 94.72297 
L 421.91365 97.939606 
L 425.446524 101.543132 
L 428.979399 105.531526 
L 432.512273 109.901879 
" clip-path="url(#p2a30b3f462)" style="fill: none; stroke: #1f77b4; stroke-opacity: 0.6; stroke-width: 1.5; stroke-linecap: square"/>
   </g>
   <g id="line2d_50">
    <path d="M 82.757727 118.080278 
L 86.290601 125.911157 
L 89.823476 133.746426 
L 93.35635 141.566716 
L 96.889224 149.352753 
L 100.422098 157.085408 
L 103.954972 164.745745 
L 107.487847 172.315071 
L 111.020721 179.774977 
L 114.553595 187.107385 
L 118.086469 194.294604 
L 121.619343 201.31935 
L 125.152218 208.164829 
L 128.685092 214.814722 
L 132.217966 221.253292 
L 135.75084 227.465366 
L 139.283714 233.436402 
L 142.816589 239.152528 
L 146.349463 244.600554 
L 149.882337 249.768037 
L 153.415211 254.643284 
L 156.948085 259.2154 
L 160.48096 263.474298 
L 164.013834 267.410721 
L 167.546708 271.016321 
L 171.079582 274.283595 
L 174.612456 277.205949 
L 178.145331 279.777741 
L 181.678205 281.994224 
L 185.211079 283.851634 
L 188.743953 285.34715 
L 192.276827 286.478904 
L 195.809702 287.246009 
L 199.342576 287.64855 
L 202.87545 287.687574 
L 206.408324 287.365109 
L 209.941198 286.684128 
L 213.474073 285.648584 
L 217.006947 284.263355 
L 220.539821 282.534253 
L 224.072695 280.468025 
L 227.605569 278.072312 
L 231.138444 275.355625 
L 234.671318 272.327361 
L 238.204192 268.99773 
L 241.737066 265.37778 
L 245.26994 261.479323 
L 248.802815 257.314938 
L 252.335689 252.897935 
L 255.868563 248.24229 
L 259.401437 243.362655 
L 262.934311 238.274296 
L 266.467185 232.993073 
L 270.00006 227.535356 
L 273.532934 221.918054 
L 277.065808 216.158503 
L 280.598682 210.274469 
L 284.131556 204.284092 
L 287.664431 198.205826 
L 291.197305 192.058411 
L 294.730179 185.860814 
L 298.263053 179.6322 
L 301.795927 173.391858 
L 305.328802 167.15917 
L 308.861676 160.953556 
L 312.39455 154.794433 
L 315.927424 148.701158 
L 319.460298 142.692983 
L 322.993173 136.789007 
L 326.526047 131.008129 
L 330.058921 125.368998 
L 333.591795 119.889971 
L 337.124669 114.589061 
L 340.657544 109.483898 
L 344.190418 104.591681 
L 347.723292 99.929136 
L 351.256166 95.512478 
L 354.78904 91.357358 
L 358.321915 87.478842 
L 361.854789 83.891363 
L 365.387663 80.608681 
L 368.920537 77.643855 
L 372.453411 75.009216 
L 375.986286 72.716318 
L 379.51916 70.77593 
L 383.052034 69.197993 
L 386.584908 67.991607 
L 390.117782 67.164995 
L 393.650657 66.725502 
L 397.183531 66.679553 
L 400.716405 67.032658 
L 404.249279 67.789379 
L 407.782153 68.95334 
L 411.315028 70.527201 
L 414.847902 72.512655 
L 418.380776 74.91043 
L 421.91365 77.720284 
L 425.446524 80.940996 
L 428.979399 84.570381 
L 432.512273 88.605303 
" clip-path="url(#p2a30b3f462)" style="fill: none; stroke: #1f77b4; stroke-opacity: 0.6; stroke-width: 1.5; stroke-linecap: square"/>
   </g>
   <g id="line2d_51">
    <path d="M 82.757727 94.403246 
L 86.290601 101.031587 
L 89.823476 107.670564 
L 93.35635 114.304193 
L 96.889224 120.916574 
L 100.422098 127.491926 
L 103.954972 134.014627 
L 107.487847 140.469251 
L 111.020721 146.840612 
L 114.553595 153.113798 
L 118.086469 159.274206 
L 121.619343 165.307588 
L 125.152218 171.200071 
L 128.685092 176.938209 
L 132.217966 182.509006 
L 135.75084 187.89995 
L 139.283714 193.099045 
L 142.816589 198.094836 
L 146.349463 202.876459 
L 149.882337 207.433634 
L 153.415211 211.756715 
L 156.948085 215.836713 
L 160.48096 219.665302 
L 164.013834 223.234869 
L 167.546708 226.538496 
L 171.079582 229.569996 
L 174.612456 232.323961 
L 178.145331 234.795693 
L 181.678205 236.981314 
L 185.211079 238.877692 
L 188.743953 240.482495 
L 192.276827 241.794205 
L 195.809702 242.812087 
L 199.342576 243.536195 
L 202.87545 243.967409 
L 206.408324 244.107389 
L 209.941198 243.958597 
L 213.474073 243.524288 
L 217.006947 242.808492 
L 220.539821 241.816 
L 224.072695 240.552381 
L 227.605569 239.023936 
L 231.138444 237.237695 
L 234.671318 235.201404 
L 238.204192 232.923489 
L 241.737066 230.413054 
L 245.26994 227.679865 
L 248.802815 224.734291 
L 252.335689 221.587296 
L 255.868563 218.250433 
L 259.401437 214.735788 
L 262.934311 211.055948 
L 266.467185 207.224 
L 270.00006 203.253454 
L 273.532934 199.158251 
L 277.065808 194.952705 
L 280.598682 190.651467 
L 284.131556 186.269507 
L 287.664431 181.822043 
L 291.197305 177.324545 
L 294.730179 172.792658 
L 298.263053 168.242192 
L 301.795927 163.689062 
L 305.328802 159.149256 
L 308.861676 154.638803 
L 312.39455 150.173717 
L 315.927424 145.76997 
L 319.460298 141.443445 
L 322.993173 137.2099 
L 326.526047 133.084927 
L 330.058921 129.083912 
L 333.591795 125.222 
L 337.124669 121.514052 
L 340.657544 117.974614 
L 344.190418 114.617876 
L 347.723292 111.457636 
L 351.256166 108.507271 
L 354.78904 105.779699 
L 358.321915 103.287344 
L 361.854789 101.042117 
L 365.387663 99.055367 
L 368.920537 97.337875 
L 372.453411 95.899805 
L 375.986286 94.7507 
L 379.51916 93.899433 
L 383.052034 93.354215 
L 386.584908 93.122554 
L 390.117782 93.211225 
L 393.650657 93.626296 
L 397.183531 94.373068 
L 400.716405 95.45608 
L 404.249279 96.879106 
L 407.782153 98.645127 
L 411.315028 100.75634 
L 414.847902 103.214146 
L 418.380776 106.019139 
L 421.91365 109.17112 
L 425.446524 112.669089 
L 428.979399 116.511239 
L 432.512273 120.694978 
" clip-path="url(#p2a30b3f462)" style="fill: none; stroke: #1f77b4; stroke-opacity: 0.6; stroke-width: 1.5; stroke-linecap: square"/>
   </g>
   <g id="line2d_52">
    <path d="M 82.757727 104.723244 
L 86.290601 110.800021 
L 89.823476 116.886446 
L 93.35635 122.966984 
L 96.889224 129.026183 
L 100.422098 135.048708 
L 103.954972 141.019374 
L 107.487847 146.923193 
L 111.020721 152.745406 
L 114.553595 158.471519 
L 118.086469 164.087345 
L 121.619343 169.57903 
L 125.152218 174.933099 
L 128.685092 180.13648 
L 132.217966 185.176545 
L 135.75084 190.041136 
L 139.283714 194.718591 
L 142.816589 199.19778 
L 146.349463 203.468146 
L 149.882337 207.519692 
L 153.415211 211.343055 
L 156.948085 214.929491 
L 160.48096 218.270916 
L 164.013834 221.359918 
L 167.546708 224.189789 
L 171.079582 226.754514 
L 174.612456 229.048818 
L 178.145331 231.068164 
L 181.678205 232.808757 
L 185.211079 234.267571 
L 188.743953 235.44234 
L 192.276827 236.331573 
L 195.809702 236.934563 
L 199.342576 237.251376 
L 202.87545 237.282852 
L 206.408324 237.030613 
L 209.941198 236.497046 
L 213.474073 235.685313 
L 217.006947 234.599329 
L 220.539821 233.243764 
L 224.072695 231.624016 
L 227.605569 229.746207 
L 231.138444 227.617178 
L 234.671318 225.244458 
L 238.204192 222.636228 
L 241.737066 219.801338 
L 245.26994 216.749284 
L 248.802815 213.490128 
L 252.335689 210.034548 
L 255.868563 206.393755 
L 259.401437 202.579493 
L 262.934311 198.604008 
L 266.467185 194.480004 
L 270.00006 190.220626 
L 273.532934 185.839406 
L 277.065808 181.350268 
L 280.598682 176.767441 
L 284.131556 172.105474 
L 287.664431 167.379164 
L 291.197305 162.603537 
L 294.730179 157.793805 
L 298.263053 152.965325 
L 301.795927 148.133567 
L 305.328802 143.314071 
L 308.861676 138.52241 
L 312.39455 133.77415 
L 315.927424 129.084812 
L 319.460298 124.469832 
L 322.993173 119.944524 
L 326.526047 115.52404 
L 330.058921 111.223336 
L 333.591795 107.057124 
L 337.124669 103.039853 
L 340.657544 99.185657 
L 344.190418 95.508322 
L 347.723292 92.021261 
L 351.256166 88.737475 
L 354.78904 85.669518 
L 358.321915 82.829467 
L 361.854789 80.228889 
L 365.387663 77.878823 
L 368.920537 75.789733 
L 372.453411 73.971511 
L 375.986286 72.433424 
L 379.51916 71.184099 
L 383.052034 70.231513 
L 386.584908 69.582956 
L 390.117782 69.245027 
L 393.650657 69.22361 
L 397.183531 69.523864 
L 400.716405 70.150196 
L 404.249279 71.106273 
L 407.782153 72.394999 
L 411.315028 74.018503 
L 414.847902 75.978148 
L 418.380776 78.274514 
L 421.91365 80.907402 
L 425.446524 83.875838 
L 428.979399 87.178078 
L 432.512273 90.811596 
" clip-path="url(#p2a30b3f462)" style="fill: none; stroke: #1f77b4; stroke-opacity: 0.6; stroke-width: 1.5; stroke-linecap: square"/>
   </g>
   <g id="line2d_53">
    <path d="M 82.757727 93.698257 
L 86.290601 99.913346 
L 89.823476 106.140267 
L 93.35635 112.363732 
L 96.889224 118.56852 
L 100.422098 124.739534 
L 103.954972 130.861821 
L 107.487847 136.920622 
L 111.020721 142.901404 
L 114.553595 148.789896 
L 118.086469 154.572127 
L 121.619343 160.234457 
L 125.152218 165.763617 
L 128.685092 171.146737 
L 132.217966 176.371377 
L 135.75084 181.425569 
L 139.283714 186.297826 
L 142.816589 190.977201 
L 146.349463 195.453286 
L 149.882337 199.716241 
L 153.415211 203.756847 
L 156.948085 207.566495 
L 160.48096 211.137218 
L 164.013834 214.461726 
L 167.546708 217.533409 
L 171.079582 220.346349 
L 174.612456 222.895345 
L 178.145331 225.175931 
L 181.678205 227.184379 
L 185.211079 228.917698 
L 188.743953 230.373672 
L 192.276827 231.550818 
L 195.809702 232.448439 
L 199.342576 233.06661 
L 202.87545 233.406143 
L 206.408324 233.468651 
L 209.941198 233.256483 
L 213.474073 232.772744 
L 217.006947 232.021301 
L 220.539821 231.006741 
L 224.072695 229.734385 
L 227.605569 228.210252 
L 231.138444 226.441098 
L 234.671318 224.434301 
L 238.204192 222.197957 
L 241.737066 219.740774 
L 245.26994 217.072069 
L 248.802815 214.201783 
L 252.335689 211.140416 
L 255.868563 207.899013 
L 259.401437 204.489141 
L 262.934311 200.922848 
L 266.467185 197.212651 
L 270.00006 193.371489 
L 273.532934 189.412695 
L 277.065808 185.349963 
L 280.598682 181.197324 
L 284.131556 176.969091 
L 287.664431 172.67984 
L 291.197305 168.344362 
L 294.730179 163.97764 
L 298.263053 159.594793 
L 301.795927 155.211057 
L 305.328802 150.841731 
L 308.861676 146.502151 
L 312.39455 142.207644 
L 315.927424 137.973493 
L 319.460298 133.814897 
L 322.993173 129.746936 
L 326.526047 125.78453 
L 330.058921 121.942403 
L 333.591795 118.23505 
L 337.124669 114.676687 
L 340.657544 111.281237 
L 344.190418 108.06228 
L 347.723292 105.033016 
L 351.256166 102.20625 
L 354.78904 99.594342 
L 358.321915 97.20918 
L 361.854789 95.062163 
L 365.387663 93.164153 
L 368.920537 91.525464 
L 372.453411 90.155826 
L 375.986286 89.064365 
L 379.51916 88.259581 
L 383.052034 87.749319 
L 386.584908 87.540775 
L 390.117782 87.640428 
L 393.650657 88.054084 
L 397.183531 88.786816 
L 400.716405 89.842967 
L 404.249279 91.226153 
L 407.782153 92.93922 
L 411.315028 94.984276 
L 414.847902 97.362652 
L 418.380776 100.074933 
L 421.91365 103.120915 
L 425.446524 106.499644 
L 428.979399 110.209393 
L 432.512273 114.247683 
" clip-path="url(#p2a30b3f462)" style="fill: none; stroke: #1f77b4; stroke-opacity: 0.6; stroke-width: 1.5; stroke-linecap: square"/>
   </g>
   <g id="line2d_54">
    <path d="M 82.757727 107.806262 
L 86.290601 114.250059 
L 89.823476 120.70408 
L 93.35635 127.152379 
L 96.889224 133.579093 
L 100.422098 139.968475 
L 103.954972 146.304936 
L 107.487847 152.573088 
L 111.020721 158.757778 
L 114.553595 164.844127 
L 118.086469 170.817568 
L 121.619343 176.663878 
L 125.152218 182.369225 
L 128.685092 187.920184 
L 132.217966 193.303792 
L 135.75084 198.507562 
L 139.283714 203.51953 
L 142.816589 208.328269 
L 146.349463 212.92293 
L 149.882337 217.293262 
L 153.415211 221.429644 
L 156.948085 225.323091 
L 160.48096 228.965327 
L 164.013834 232.348719 
L 167.546708 235.46639 
L 171.079582 238.312159 
L 174.612456 240.880629 
L 178.145331 243.167121 
L 181.678205 245.167747 
L 185.211079 246.879394 
L 188.743953 248.29975 
L 192.276827 249.427268 
L 195.809702 250.261239 
L 199.342576 250.801712 
L 202.87545 251.049554 
L 206.408324 251.006436 
L 209.941198 250.674819 
L 213.474073 250.057931 
L 217.006947 249.159801 
L 220.539821 247.985211 
L 224.072695 246.53972 
L 227.605569 244.829611 
L 231.138444 242.861895 
L 234.671318 240.644298 
L 238.204192 238.185247 
L 241.737066 235.493818 
L 245.26994 232.579729 
L 248.802815 229.453359 
L 252.335689 226.125634 
L 255.868563 222.608074 
L 259.401437 218.912746 
L 262.934311 215.052219 
L 266.467185 211.039531 
L 270.00006 206.888175 
L 273.532934 202.612054 
L 277.065808 198.225447 
L 280.598682 193.742984 
L 284.131556 189.179586 
L 287.664431 184.550453 
L 291.197305 179.871008 
L 294.730179 175.156868 
L 298.263053 170.423803 
L 301.795927 165.687692 
L 305.328802 160.964494 
L 308.861676 156.270193 
L 312.39455 151.620772 
L 315.927424 147.032166 
L 319.460298 142.520223 
L 322.993173 138.100665 
L 326.526047 133.789049 
L 330.058921 129.600726 
L 333.591795 125.550806 
L 337.124669 121.654121 
L 340.657544 117.925181 
L 344.190418 114.378141 
L 347.723292 111.026776 
L 351.256166 107.884425 
L 354.78904 104.963982 
L 358.321915 102.277843 
L 361.854789 99.837889 
L 365.387663 97.655448 
L 368.920537 95.741266 
L 372.453411 94.105501 
L 375.986286 92.757659 
L 379.51916 91.706609 
L 383.052034 90.96053 
L 386.584908 90.52691 
L 390.117782 90.412528 
L 393.650657 90.623422 
L 397.183531 91.164881 
L 400.716405 92.041443 
L 404.249279 93.256868 
L 407.782153 94.814132 
L 411.315028 96.71543 
L 414.847902 98.962153 
L 418.380776 101.554895 
L 421.91365 104.493463 
L 425.446524 107.776853 
L 428.979399 111.403266 
L 432.512273 115.370116 
" clip-path="url(#p2a30b3f462)" style="fill: none; stroke: #1f77b4; stroke-opacity: 0.6; stroke-width: 1.5; stroke-linecap: square"/>
   </g>
   <g id="patch_3">
    <path d="M 65.27 300.76 
L 65.27 27.6 
" style="fill: none; stroke: #000000; stroke-width: 0.8; stroke-linejoin: miter; stroke-linecap: square"/>
   </g>
   <g id="patch_4">
    <path d="M 450 300.76 
L 450 27.6 
" style="fill: none; stroke: #000000; stroke-width: 0.8; stroke-linejoin: miter; stroke-linecap: square"/>
   </g>
   <g id="patch_5">
    <path d="M 65.27 300.76 
L 450 300.76 
" style="fill: none; stroke: #000000; stroke-width: 0.8; stroke-linejoin: miter; stroke-linecap: square"/>
   </g>
   <g id="patch_6">
    <path d="M 65.27 27.6 
L 450 27.6 
" style="fill: none; stroke: #000000; stroke-width: 0.8; stroke-linejoin: miter; stroke-linecap: square"/>
   </g>
   <g id="text_18">
    <!-- Unimodal Demonstrations -->
    <g transform="translate(166.278437 21.6)scale(0.14 -0.14)">
     <defs>
      <path id="DejaVuSans-55" d="M 556 4666 
L 1191 4666 
L 1191 1831 
Q 1191 1081 1462 751 
Q 1734 422 2344 422 
Q 2950 422 3222 751 
Q 3494 1081 3494 1831 
L 3494 4666 
L 4128 4666 
L 4128 1753 
Q 4128 841 3676 375 
Q 3225 -91 2344 -91 
Q 1459 -91 1007 375 
Q 556 841 556 1753 
L 556 4666 
z
" transform="scale(0.015625)"/>
      <path id="DejaVuSans-64" d="M 2906 2969 
L 2906 4863 
L 3481 4863 
L 3481 0 
L 2906 0 
L 2906 525 
Q 2725 213 2448 61 
Q 2172 -91 1784 -91 
Q 1150 -91 751 415 
Q 353 922 353 1747 
Q 353 2572 751 3078 
Q 1150 3584 1784 3584 
Q 2172 3584 2448 3432 
Q 2725 3281 2906 2969 
z
M 947 1747 
Q 947 1113 1208 752 
Q 1469 391 1925 391 
Q 2381 391 2643 752 
Q 2906 1113 2906 1747 
Q 2906 2381 2643 2742 
Q 2381 3103 1925 3103 
Q 1469 3103 1208 2742 
Q 947 2381 947 1747 
z
" transform="scale(0.015625)"/>
      <path id="DejaVuSans-61" d="M 2194 1759 
Q 1497 1759 1228 1600 
Q 959 1441 959 1056 
Q 959 750 1161 570 
Q 1363 391 1709 391 
Q 2188 391 2477 730 
Q 2766 1069 2766 1631 
L 2766 1759 
L 2194 1759 
z
M 3341 1997 
L 3341 0 
L 2766 0 
L 2766 531 
Q 2569 213 2275 61 
Q 1981 -91 1556 -91 
Q 1019 -91 701 211 
Q 384 513 384 1019 
Q 384 1609 779 1909 
Q 1175 2209 1959 2209 
L 2766 2209 
L 2766 2266 
Q 2766 2663 2505 2880 
Q 2244 3097 1772 3097 
Q 1472 3097 1187 3025 
Q 903 2953 641 2809 
L 641 3341 
Q 956 3463 1253 3523 
Q 1550 3584 1831 3584 
Q 2591 3584 2966 3190 
Q 3341 2797 3341 1997 
z
" transform="scale(0.015625)"/>
      <path id="DejaVuSans-6c" d="M 603 4863 
L 1178 4863 
L 1178 0 
L 603 0 
L 603 4863 
z
" transform="scale(0.015625)"/>
      <path id="DejaVuSans-20" transform="scale(0.015625)"/>
      <path id="DejaVuSans-44" d="M 1259 4147 
L 1259 519 
L 2022 519 
Q 2988 519 3436 956 
Q 3884 1394 3884 2338 
Q 3884 3275 3436 3711 
Q 2988 4147 2022 4147 
L 1259 4147 
z
M 628 4666 
L 1925 4666 
Q 3281 4666 3915 4102 
Q 4550 3538 4550 2338 
Q 4550 1131 3912 565 
Q 3275 0 1925 0 
L 628 0 
L 628 4666 
z
" transform="scale(0.015625)"/>
      <path id="DejaVuSans-72" d="M 2631 2963 
Q 2534 3019 2420 3045 
Q 2306 3072 2169 3072 
Q 1681 3072 1420 2755 
Q 1159 2438 1159 1844 
L 1159 0 
L 581 0 
L 581 3500 
L 1159 3500 
L 1159 2956 
Q 1341 3275 1631 3429 
Q 1922 3584 2338 3584 
Q 2397 3584 2469 3576 
Q 2541 3569 2628 3553 
L 2631 2963 
z
" transform="scale(0.015625)"/>
     </defs>
     <use xlink:href="#DejaVuSans-55"/>
     <use xlink:href="#DejaVuSans-6e" x="73.193359"/>
     <use xlink:href="#DejaVuSans-69" x="136.572266"/>
     <use xlink:href="#DejaVuSans-6d" x="164.355469"/>
     <use xlink:href="#DejaVuSans-6f" x="261.767578"/>
     <use xlink:href="#DejaVuSans-64" x="322.949219"/>
     <use xlink:href="#DejaVuSans-61" x="386.425781"/>
     <use xlink:href="#DejaVuSans-6c" x="447.705078"/>
     <use xlink:href="#DejaVuSans-20" x="475.488281"/>
     <use xlink:href="#DejaVuSans-44" x="507.275391"/>
     <use xlink:href="#DejaVuSans-65" x="584.277344"/>
     <use xlink:href="#DejaVuSans-6d" x="645.800781"/>
     <use xlink:href="#DejaVuSans-6f" x="743.212891"/>
     <use xlink:href="#DejaVuSans-6e" x="804.394531"/>
     <use xlink:href="#DejaVuSans-73" x="867.773438"/>
     <use xlink:href="#DejaVuSans-74" x="919.873047"/>
     <use xlink:href="#DejaVuSans-72" x="959.082031"/>
     <use xlink:href="#DejaVuSans-61" x="1000.195312"/>
     <use xlink:href="#DejaVuSans-74" x="1061.474609"/>
     <use xlink:href="#DejaVuSans-69" x="1100.683594"/>
     <use xlink:href="#DejaVuSans-6f" x="1128.466797"/>
     <use xlink:href="#DejaVuSans-6e" x="1189.648438"/>
     <use xlink:href="#DejaVuSans-73" x="1253.027344"/>
    </g>
   </g>
   <g id="legend_1">
    <g id="patch_7">
     <path d="M 72.97 52.545937 
L 190.200781 52.545937 
Q 192.400781 52.545937 192.400781 50.345937 
L 192.400781 35.3 
Q 192.400781 33.1 190.200781 33.1 
L 72.97 33.1 
Q 70.77 33.1 70.77 35.3 
L 70.77 50.345937 
Q 70.77 52.545937 72.97 52.545937 
z
" style="fill: #ffffff; opacity: 0.8; stroke: #cccccc; stroke-linejoin: miter"/>
    </g>
    <g id="line2d_55">
     <path d="M 75.17 42.008281 
L 86.17 42.008281 
L 97.17 42.008281 
" style="fill: none; stroke: #1f77b4; stroke-opacity: 0.6; stroke-width: 1.5; stroke-linecap: square"/>
    </g>
    <g id="text_19">
     <!-- Demonstration -->
     <g transform="translate(105.97 45.858281)scale(0.11 -0.11)">
      <use xlink:href="#DejaVuSans-44"/>
      <use xlink:href="#DejaVuSans-65" x="77.001953"/>
      <use xlink:href="#DejaVuSans-6d" x="138.525391"/>
      <use xlink:href="#DejaVuSans-6f" x="235.9375"/>
      <use xlink:href="#DejaVuSans-6e" x="297.119141"/>
      <use xlink:href="#DejaVuSans-73" x="360.498047"/>
      <use xlink:href="#DejaVuSans-74" x="412.597656"/>
      <use xlink:href="#DejaVuSans-72" x="451.806641"/>
      <use xlink:href="#DejaVuSans-61" x="492.919922"/>
      <use xlink:href="#DejaVuSans-74" x="554.199219"/>
      <use xlink:href="#DejaVuSans-69" x="593.408203"/>
      <use xlink:href="#DejaVuSans-6f" x="621.191406"/>
      <use xlink:href="#DejaVuSans-6e" x="682.373047"/>
     </g>
    </g>
   </g>
  </g>
 </g>
 <defs>
  <clipPath id="p2a30b3f462">
   <rect x="65.27" y="27.6" width="384.73" height="273.16"/>
  </clipPath>
 </defs>
</svg>
